<?xml version="1.0" encoding="utf-8"?>
<!-- Generator: Adobe Illustrator 23.1.0, SVG Export Plug-In . SVG Version: 6.00 Build 0)  -->
<svg version="1.1" id="Layer_1" xmlns="http://www.w3.org/2000/svg" xmlns:xlink="http://www.w3.org/1999/xlink" x="0px" y="0px"
	 viewBox="0 0 500 500" style="enable-background:new 0 0 500 500;" xml:space="preserve">
<path d="M321.9,365.4c3.1,0,6.2,0,9.2,0c7.2,0,14.3-0.8,21.1-3c16.9-5.5,29.8-15.5,35.9-32.8c2.5-7.3,3.6-14.7,3.5-22.3
	c0-0.4,0-0.7,0-1.1c0-4.4-0.5-8.8-1.2-13.2c-2.1-13.5-6.6-26.3-9.4-39.6c-0.8-3.6-1.4-7.2-2.1-10.8l-18.2-90.5
	c-8.1-23.2-21.6-42.8-41.4-57.6c-8-5.9-16.4-10.6-25.3-14.1c-9.3-3.6-19.1-6-29.4-7.3c-4.2-0.5-8.4-0.8-12.6-0.9c-0.6,0-1.2,0-1.8,0
	c-0.6,0-1.2,0-1.9,0c-4.4,0.1-8.7,0.4-13.1,0.9c-10.3,1.3-20.1,3.7-29.4,7.3c-8.9,3.5-17.4,8.1-25.3,14
	c-19.9,14.8-33.3,34.3-41.4,57.6c-7.3,20.9-10.2,42.8-13.9,64.5c-2.1,12.2-3.8,24.6-6.3,36.7c-2.8,13.3-7.3,26.2-9.4,39.6
	c-1.7,10.5-1.8,21.1,1.1,31.4c5.7,21,20.5,32.9,40.5,39c8.1,2.5,16.4,2.4,24.7,1.7c1.4-0.1,3.1-0.5,3.8,1c0.7,1.6-1.1,2.4-2.1,3.3
	c-0.7,0.6-1.5,1-2.3,1.4c-3.2,1.6-6.4,3.2-9.6,4.6c-10.2,4.6-20.7,8.6-30.3,14.5c-11.2,7-17.8,17.2-20.5,29.9
	c-1,4.9,1.3,7.6,6.3,7.8c0.7,0,1.3,0,2,0c85.3,0,170.6,0,255.9,0c1,0,2,0,3-0.2c3.1-0.6,4.7-3.2,4.2-6.2
	c-2.3-13.2-9.1-23.2-20.1-30.8c-8.4-5.7-17.7-9.3-27.1-12.9c-6.3-2.4-12.3-5.3-17.8-9.3c-0.6-0.4-1.7-0.8-1.2-1.9
	C320.2,365.5,321.1,365.4,321.9,365.4z M311.2,376.7c-3.3,6.3-8.3,11-14,14.9c-10.5,7.3-22.2,11.5-34.9,12.8
	c-17.7,1.9-34.8-0.4-51-8c-7.8-3.7-14.7-8.4-19.8-15.4c-0.6-0.8-1.1-1.6-1.6-2.5c-2-3.4-2-3.4,1-6c6-5.2,8.7-12.2,10.2-19.7
	c0.8-4.3,1.2-8.7,1-13.5c32.3,21.1,64.1,21.1,96.1,0c0.5,2.2,0.2,4.2,0.3,6.2c0.5,7.6,2.1,14.7,6.1,21.3c1.6,2.7,3.5,5.1,6.1,6.8
	C312.2,374.7,311.9,375.5,311.2,376.7z M280.7,335.7c-11.7,6.1-24.3,8.5-37.4,7.1c-14.2-1.5-26.7-7.3-38.2-15.7
	c-19.7-14.3-31.2-34.1-37.8-57c-4.1-14.1-6.4-28.6-7.6-43.3c-0.7-8.2-1.2-16.4-0.9-24.7c0.2-7,1.2-13.9,2.6-20.7
	c0.1-0.6,0.2-1.3,1.1-1.8c1.2,3.5,1.3,7.3,2.3,10.8c0.3,1.3,0.6,2.6,1,3.8c1.6,5.1,6.2,7.5,11.4,6.2c2.2-0.6,3-1.9,3.2-4.1
	c1.1-13.1,3.1-26,6.4-38.7c0.3-1.2,0.8-2.3,1.7-3.5c0.3,3.1,0.6,6.3,0.8,9.4c0.5,10.3,0.7,20.6,0.6,30.9c-0.1,5.2-0.1,5.5,5,5.9
	c10.5,0.7,21.1,0.6,31.7,0c2.2-0.1,3.1-1.3,3.2-3.3c0.5-5.8,0.9-11.6,1.5-17.4c0.8-8.3,1.5-16.6,3.4-24.8c1.6,6.3,2.3,12.7,3,19.1
	c0.8,7.7,1.7,15.4,2.5,23.1c0.2,2.2,1.1,3.2,3.4,3.3c13,0.6,26.1,0.7,39.2,0c2.2-0.1,3-1.3,2.9-3.4c-0.2-5.2-0.3-10.5-0.6-15.7
	c-0.5-7.7,0.1-15.5,0.1-23.2c0-0.4,0.1-0.8,0.2-1.5c1.2,0.8,1.3,1.9,1.5,2.8c3.6,11.6,6.3,23.4,7.3,35.5c0.4,4.6,1.7,5.9,6.5,5.9
	c7.9,0.1,15.8,0.1,23.7,0c1.5,4,3,8.3,4.5,12.7c3.2,9.3,6.6,19.4,10,30.4c-1.3,9.9-3.4,19.6-6.3,29.3
	C324,301.1,306.7,322.2,280.7,335.7z"/>
</svg>
