<?xml version="1.0" encoding="utf-8"?>
<!-- Generator: Adobe Illustrator 23.1.0, SVG Export Plug-In . SVG Version: 6.00 Build 0)  -->
<svg version="1.1" id="Layer_1" xmlns="http://www.w3.org/2000/svg" xmlns:xlink="http://www.w3.org/1999/xlink" x="0px" y="0px"
	 viewBox="0 0 250 250" style="enable-background:new 0 0 250 250;" xml:space="preserve">
<g>
	<path d="M175.1,211.3c-0.2-3.2-0.4-6.4-1-9.6c-0.5-2.7-1.2-5.5-2.5-7.9c-3.8-7.5-9.9-12.6-17.8-15.5c-6.7-2.5-13.5-4.7-20.1-7.2
		c-5.6-2.1-9.6-5.7-10.7-12c-0.3-2.1-0.5-3.8,1.4-5.4c2-1.7,3.5-3.9,5.2-5.9c3.3-4,5.3-8.6,7.5-13.3c0.2-0.4,0.7-0.9,1.2-1
		c5.1-1.5,8.8-4.9,10.7-9.7c1.2-3.1,2-6.5,1.1-9.9c-0.1-0.5-0.1-1.1-0.1-1.5c4.2-2,6.7-4.8,7.7-9.3c1.1-4.7-1.4-8-3.7-11.4
		c2.5-1.2,4.9-3.8,5.4-5.7c1.2-4.9-0.3-9.3-2.9-13.3c-1.7-2.7-4.3-4.7-7.2-6.1c-0.4-0.2-0.9-0.8-0.8-1.2c0.7-4.2,0.3-8.3-1-12.4
		c-1.5-4.8-4.6-8-9.3-9.7c-4.5-1.6-8.9-1.1-13.4,0.5c-2.5-5.9-7.4-8.8-13.5-9.7c-6-0.9-11.5,0.1-16.1,4.6
		c-4.7-4.5-10.1-5.5-16.1-4.4c-6,1.1-10.8,3.9-13.1,10c-3.4-1.9-6.9-2.2-10.6-1.6c-6,1-9.8,4.4-12.1,9.9c-1.8,4.4-1.1,9-1.1,13.6
		c0.1-0.1,0,0,0,0c-0.2,0.1-0.5,0.2-0.7,0.3c-4.7,2-8.2,5.3-9.6,10.3c-1.7,5.9-1,11.7,5,14.8c-0.4,0.5-0.7,1-1.1,1.5
		c-1.5,2-2.4,4.2-2.5,6.7c-0.2,5.3,2.4,9.1,6.6,12c0.4,0.3,0.7,1,0.7,1.5c0,2-0.3,4-0.2,6c0.2,3.4,1.7,6.4,3.8,9
		c2.2,2.6,5.1,4.2,8.3,5.3c0.4,0.1,0.9,0.6,1,1.1c2.7,7.6,7.2,14,12.8,19.5c1.5,1.5,1.6,2.7,1.4,4.5c-0.8,6-4.1,9.8-9.7,11.8
		c-7.2,2.6-14.4,5.3-21.5,8c-4.9,1.9-9.2,4.8-12.7,8.6c-4.6,5-7.2,11-7.7,17.8c-0.1,1.8-0.5,3.6-0.6,5.4c0,1.8,0.2,3.6,1.7,4.8
		c1.3,1,3,1.1,4.4,0.1c0.5-0.4,1.1-1.1,1.2-1.7c0.2-1.5,0.2-3.1,0.3-4.7c0.1-7.3,2.6-13.7,7.9-18.8c2.8-2.6,6.2-4.3,9.7-5.6
		c6.5-2.4,12.9-4.8,18.9-7c2.7,2.5,4.8,5,7.4,6.6c3.5,2.1,7.3,3.8,11.2,5.1c6.8,2.2,13.8,3.3,21,2.4c4.6-0.6,9.2-1.1,13.7-2.6
		c5.6-1.9,10.9-4.4,14.8-9c1.6-1.9,3-2.4,5.4-1.4c6.7,2.7,13.6,4.8,20.3,7.6c5.7,2.4,9.7,6.9,12,12.7c1.8,4.4,1.9,9.1,2,13.8
		c0,2.1,2.1,3.7,4.1,3.1C174,215.3,175.2,213.8,175.1,211.3z M60.1,133c-0.6-1.5-1.3-3.1-2.1-4.5c-0.2-0.5-0.9-1-1.4-1
		c-6.2-0.7-7.8-4.3-8.7-8.6c-0.7-3.1-0.3-6.2,0.9-9.2c1-2.3,2.7-3.3,5.1-2.6c0.3,0.1,0.5,0.1,0.8,0.2c2.7,0.9,4.4,0.1,4.8-2.7
		c0.5-3.6,0.8-7.3,1-11c0.2-3.2,0.3-6.4,0.4-9.7c4.2,0.5,8.1,0.4,11.2-2.6c3.1-3,3.5-6.8,3.3-11.3c2.4,4.9,6.6,6,10.9,6.3
		c4.4,0.2,8.5-1.1,11.7-4.3c7.8,5.5,16.8,3.8,19.6-3.6c0.3,8.5,5.4,12.4,12.8,13.8c0,2.9-0.1,5.7,0,8.5c0.2,3.4,0.7,6.8,1.1,10.2
		c0.2,1.5,0.2,3.1,0.4,4.6c0.3,2,2,3,3.9,2.2c3-1.3,5.4-0.1,6.5,3c1.4,3.9,1.2,7.7-0.4,11.4c-1.3,3-3.4,5.1-6.8,5.5
		c-2.2,0.3-2.9,2-3.6,3.7c-2.8,7.2-6.8,13.6-12.7,18.6c-4.6,3.8-9.7,6.7-15.6,7.9c-9,1.9-17.5,0.6-25.5-3.9
		C69.4,148.9,63.8,141.8,60.1,133z M113.5,181.3c-6.9,3.1-14.1,4.6-21.6,3.9c-5.7-0.6-11.1-1.9-16.1-4.8c-2.6-1.5-5.1-3.4-7.5-5.2
		c-0.8-0.6-0.7-1.2,0-1.9c3.4-3.2,5.3-7.1,5.9-11.7c0.1-0.5,0.3-0.9,0.4-1.3c13.9,6.1,27.7,6.6,41.5,0c0.8,2.4,1.4,5,2.6,7.4
		c1.2,2.4,2.9,4.4,4.6,6.8C120.8,177.5,117.2,179.5,113.5,181.3z"/>
	<path d="M229.3,199.2c0.4-0.2,0.6-0.4,0.9-0.5c4.1-2.6,4.6-5.2,3.7-9.1c-0.8-3.5-2.3-6.9-3.4-10.4c-4.9-15.3-9.8-30.5-14.7-45.8
		c-0.2-0.6-0.1-1.4,0.3-1.9c2.8-4.2,0.4-8.7-3.5-9.9c-0.5-0.2-1.1-0.7-1.3-1.2c-0.8-2.3-1.5-4.6-2.2-6.9
		c-3.8-12.2-7.7-24.3-11.5-36.5c-2.8-8.7-5.5-17.5-8.3-26.2c-0.3-1.1-1-2.4-1.9-2.9c-1.6-0.9-1.9-2.3-2.4-3.8
		c-0.2-0.8-0.6-1.6-0.8-2.4c-1.3-4.6-5.3-6.9-9.7-7c-6.9,0-10.9,6.2-9.6,12.4c0.5,2.6,1.5,5.1,2.3,7.6c2.2,6.9,4.3,13.8,6.5,20.8
		c3.2,10.2,6.4,20.3,9.6,30.5c0.2,0.5,0.1,1.3-0.2,1.8c-1.6,2.7-3.4,5.3-4.9,8c-4.5,8.3-6.6,17.2-5,26.5c1.3,7.1,3.7,14.1,5.7,21.1
		c0.6,2.2,3.4,3.3,5.6,2.7c2.9-0.9,4.1-3.7,3-7c-1.6-4.9-3.1-9.7-4.7-14.6c-0.1-0.5-0.3-1.1-0.1-1.5c1.8-3.1,3.8-6.1,5.7-9.2
		c0.2,0.1,0.3,0.1,0.5,0.2c0.5,2,1.7,3.4,3.6,4.3c0.5,0.2,1,0.8,1.1,1.4c3.2,9.8,6.3,19.6,9.4,29.4c2.8,8.8,5.6,17.7,8.3,26.5
		c0.8,2.5,2.1,4.7,4.7,5.6c1.7,0.5,3.6,0.5,5.7,0.8c0-0.1,0.1,0.2,0.2,0.4c1,3.2,2,6.4,3,9.5c0.6,2.1,2.1,3.3,4.1,3.2
		c1.9,0,3.6-1.2,3.8-3.1c0.2-1.2-0.3-2.6-0.7-3.9C231.2,205.3,230.2,202.2,229.3,199.2z M188,123.2c-2.5,3.5-5,7-7.6,10.5
		c-0.1,0.1-0.2,0.2-0.6,0.5c0.5-6.9,2.9-12.8,6.4-18.6c0.7,2.2,1.4,4.2,2,6.3C188.3,122.3,188.2,122.9,188,123.2z M196.4,125.8
		c-7.2-22.8-14.4-45.6-21.6-68.5c2.9-1,5.8-1.9,8.8-2.9c7.2,22.9,14.3,45.6,21.5,68.5C202.2,123.9,199.4,124.8,196.4,125.8z"/>
</g>
</svg>
