<?xml version="1.0" encoding="utf-8"?>
<!-- Generator: Adobe Illustrator 23.1.0, SVG Export Plug-In . SVG Version: 6.00 Build 0)  -->
<svg version="1.1" id="Layer_1" xmlns="http://www.w3.org/2000/svg" xmlns:xlink="http://www.w3.org/1999/xlink" x="0px" y="0px"
	 viewBox="0 0 250 250" style="enable-background:new 0 0 250 250;" xml:space="preserve">
<g>
	<path d="M120.8,188.7c-4.5-6-10.5-9.9-17.2-13c-0.8-0.4-1.6-0.8-2.5-1.1c0.4-0.2,0.7-0.2,1-0.2c2.1-0.2,4.2-0.1,6.2-0.6
		c1.9-0.5,3.8-1.6,5.4-2.7c3.2-2.2,5.7-5,7-8.8c0.7-2,0.5-3.7-1.2-5.3c-5.1-4.6-7-10.7-7-17.3c0-5.8,0.7-11.7,0.9-17.5
		c0.3-6.8-0.2-13.5-1.5-20.1c-1.2-6.2-3.3-11.9-7-17c-5.3-7.4-12.3-11.7-21.6-11.3c-1.9,0.1-3.4-0.3-5-1.1c-5.7-2.8-11.6-3-17.6-1.8
		c-8.6,1.7-15.7,6.2-21.4,12.9c-5.4,6.4-8.6,13.7-9.9,21.9c-0.3,2.1-0.2,4.4-0.7,6.5c-1.1,4.4-2.3,8.7-3.9,12.9
		c-2.2,6-5.1,11.8-5.9,18.2c-0.4,3.3-0.5,6.7,0.5,10c0.7,2.2,1.5,4.5,2.1,6.7c1.3,4.7,0.5,7.9-3.6,10.4c-1.9,1.2-2.1,2.6-0.8,4.4
		c0.5,0.7,1.3,1.3,2.1,1.6c2.8,1.3,5.9,1.5,9.1,1.4c-0.2,0.2-0.3,0.2-0.4,0.3c-5.1,2.4-9.9,5.3-13.5,9.9c-4.1,5.2-5.7,11.1-5.3,17.6
		c0.1,1.7,1.3,2.7,2.9,2.8c0.4,0,0.8,0,1.2,0h102.3c2.3,0,4.5,0,6.8,0c1.8,0,2.9-1.1,3.1-2.6C126.1,199.5,124.6,193.8,120.8,188.7z
		 M54.8,106.2c6.6-5.7,13.3-11.4,20-17.2c0.6-0.5,1.2-1,1.8-1.5c-2,7.9-15.7,20.8-25.5,23.1c-0.1-0.1-0.2-0.2-0.4-0.3
		C52.1,109,53.3,107.5,54.8,106.2z M81.6,186.3c-7.6,2.1-15.1,1.2-22.5-1.2c-5.6-1.8-10.4-5-15.1-8.6c5.9-2.4,8.8-7,10.1-13.1
		c9.3,7.3,19.3,9.8,30.6,5.3c1.2,4.9,4.8,7.3,9.6,8.4C91.1,181.7,86.9,184.8,81.6,186.3z M81.3,164.1c-7.2,2.3-14.1,1.4-20.7-2.3
		c-7.7-4.3-12.8-10.9-16-19c-0.3-0.7-0.5-1.4-0.9-2.1c-0.7-1.3-1.7-1.7-3.1-1.3c-0.3,0.1-0.7,0.1-0.9-0.1c-2.1-1.7-5.2-7.5-3.8-11.4
		c0.7-1.9,1.9-2.5,3.7-1.6c2.5,1.2,3.7,0.7,4.6-1.9c0.6-1.7,1.1-3.3,1.9-4.9c0.3-0.7,1-1.3,1.6-1.6c4.6-2.2,9.2-4.2,13.8-6.3
		c4.7-2.2,9.5-4.3,13.1-8.3c3-3.3,5.5-6.8,7.6-10.7c0.1-0.2,0.3-0.4,0.4-0.6c2.9,2.8,5.8,5.6,8.6,8.4c1.2,1.1,2.3,2.3,3.4,3.5
		c4.9,4.9,7.8,10.9,9.1,17.7c0.7,4.1,0.3,8.2-0.5,12.3c-1.1,5.7-2.7,11.2-5.7,16.3C93.7,156.5,88.6,161.7,81.3,164.1z"/>
	<path d="M240.7,205c-0.4-2.6-0.8-5.2-1.3-7.7c-1.2-5.4-3.3-10.5-7.4-14.3c-6.5-6-14.2-10.1-22.6-12.7c-2.2-0.7-3.8-1.4-3.7-4
		c0-0.3,0-0.6-0.1-0.9c-0.4-3.8,1-7.3,2.5-10.7c0.2-0.4,0.7-0.8,1.1-1c2.4-0.9,4.4-2.3,5.9-4.4c2.3-3.1,3.5-6.7,3.8-10.5
		c0.2-2.4,0.2-4.9-1.3-7.1c-0.8-1.2-0.8-2.2-0.4-3.4c1.1-4.2,1.4-8.5,0.6-12.8c-0.8-4.6-3-8.5-6.7-11.4c-0.6-0.4-0.9-1.2-1.3-1.8
		c-1.2-1.8-2.2-3.9-3.7-5.5c-3.1-3.4-7.1-5.5-11.8-6.1c0.6-0.9,1.1-1.8,1.6-2.6c3.5-5.5,5.1-11.6,4.3-18.1
		c-0.9-8.1-5.2-14.4-11.4-19.3c-9.1-7.4-19.8-9.9-31.3-9.2c-5.3,0.3-10.4,1.3-15.3,3.1c-9.3,3.3-16.9,8.7-21.5,17.8
		c-3.1,6-4,12.3-2.5,18.9c1.3,5.5,4.4,10,8.3,13.9c0.7,0.7,1.1,1.5,1,2.5c-0.3,4.9-0.5,9.8-0.7,14.6c-0.1,2.7,2,4,4.4,2.6
		c2.3-1.3,4.5-2.7,6.6-4.3c2.4-1.9,4.7-4,7-6c0.4-0.3,1-0.6,1.4-0.5c3,0.5,5.9,1.1,9,1.7c-0.1,0.3-0.2,0.6-0.2,0.8
		c-1.2,3.9-2.7,7.7-3.5,11.7c-0.9,4.6-1.3,9.3-1.4,14c-0.1,4.5,0.1,9.1,0.5,13.6c0.3,3.1,1.1,6.2,1.9,9.3c1.5,5.6,3.8,10.8,7.9,15.1
		c-3.2,1.6-6.4,3.1-9.5,4.8c-4.3,2.2-8.3,4.8-11.5,8.5c-2.8,3.2-4.7,7-6,11c-1.1,3.5-1.9,7.1-2.8,10.7c-0.4,1.8,0.7,3.4,2.2,3.7
		c1.7,0.3,2.7-0.5,3.2-2.4c0.7-2.7,1.2-5.5,2-8.1c1.2-4,2.7-7.9,5.5-11.1c1.5-1.7,3.2-3.2,5.2-4.3c0.1,0.1,0.3,0.1,0.4,0.2
		c-1.2,8.4-2.4,16.9-3.7,25.5h71.3c-1.3-9.5-0.2-18.7,1.1-28.3c3,1.9,5.9,3.5,8.6,5.4c3.3,2.2,5.4,5.3,6.4,9.1c1,4,1.9,8,2.7,12
		c0.4,1.9,1.9,2.7,3.6,1.7C240.4,207.5,240.9,206.4,240.7,205z M146.6,98.7c-1-0.1-2.1,0-2.9,0.4c-1.4,0.8-2.5,1.9-3.7,2.9
		c-2.1,1.7-4.2,3.5-6.3,5.2c-0.5,0.4-1.1,0.6-1.9,1c0.3-3.2,0.4-6.2,0.8-9.1c0.3-2.4,0.2-4.6-1.5-6.6c-1.8-2.1-3.6-4.4-5.1-6.7
		c-3.1-4.5-3.6-9.6-2.6-14.9c2-10.5,8.7-17,18.1-21c4.5-1.9,9.2-2.9,14-3.4c9.7-0.9,18.8,0.9,27.2,5.8c5.8,3.3,10.2,7.9,11.9,14.6
		c2.2,8.5-0.8,18.6-8.9,23.9c-2.7,1.8-5.5,2.3-8.5,2.7c-4.8,0.6-9.6,1-14.1,3c-1.5,0.7-2.8,1.8-4.2,2.7c-0.5,0.3-1.2,0.8-1.7,0.7
		C153.7,99.6,150.2,99.1,146.6,98.7z M160.2,189.5c-1.2,0.3-2.5,0.5-4.4,0.9c0.6-4,1.1-7.7,1.8-11.4c0.1-0.3,0.5-0.7,0.8-0.9
		c1.2-0.6,2.4-1.1,3.7-1.7C161.5,180.8,160.9,185.1,160.2,189.5z M200.6,173.3c-0.8,3-1.8,5.9-2.8,8.9c-0.1,0.4-0.8,0.7-1.2,0.8
		c-4.8,0.1-9.5,0.2-14.3,0c-3.6-0.1-7.2-0.6-10.8-1c-0.1,0-0.3,0-0.4,0c-1.9,0.1-2.1,0-2.4-2c-0.2-1.5-0.5-2.9-0.7-4.3
		c12.2,2.8,23.2,2,32.3-7.4C201.4,170,201,171.7,200.6,173.3z M197.4,162.9c-4.4,5.1-9.7,9-16.8,9.1c-9.2,0.1-18.3-4.4-22-14.5
		c-2.3-6.3-3.5-12.7-3.6-19.3c0-2.4-0.2-4.9-0.2-7.3c-0.2-5.6,0.9-10.9,3.4-16c1.1-2.1,1-2.2,3.3-1.9c5.7,0.8,11.3,1.4,17,1
		c6.1-0.3,12.1-1.2,17.9-3.2c0.1,0,0.2,0,0.3,0c0.5,2.6,0.8,5.1,1.4,7.6c1.2,5.2,2.4,10.4,3.7,15.5c0.4,1.7,1.5,2,2.9,1
		c0.9-0.7,1.7-1.5,2.6-2.2c2.7-2.1,6.1-0.4,6.3,3.2c0.2,4.1-1,7.9-4,10.8c-0.8,0.8-1.9,1.3-3,1.8c-1.8,0.8-2.9,2.1-3.6,3.9
		C201.6,156.2,200,159.9,197.4,162.9z M208.1,190.7c-1.2-0.2-2.5-0.4-3.9-0.7c0-4.5,1.1-8.8,2.3-13.2c1.4,0.5,2.8,1,4,1.5
		C209.7,182.5,208.9,186.5,208.1,190.7z"/>
	<path d="M177.2,85.4c-1.3-3.6-3.1-7.2-2.3-11.9c-0.3-2.2-0.4-5-1-7.7c-1.4-6.8-6.6-13.1-15.1-13c-4.7,0.1-8.4,2-11.3,5.5
		c-3.1,3.7-4.2,8.1-4.1,12.9c0.1,5.6-0.2,11.1-2.6,16.3c-0.5,1,0.1,1.6,1,1.8c0.4,0.1,0.8,0.1,1.2,0.2c3.5,0.4,6.9,0.2,9.9-1.8
		c0.7-0.5,1.2-0.5,1.9-0.1c1.8,0.9,3.9,1.1,5.7,0.5c2.2-0.7,4-0.6,6.1,0.1c2.9,1,6,0.6,9,0.1C177.9,87.9,178,87.6,177.2,85.4z
		 M166.8,76.9c-0.9,1.5-1.7,3-2.5,4.5c-0.8,1.4-2.3,1.7-3.7,2c-1.3,0.3-2.8,0.2-4.1,0.1c-1.6-0.1-2.5-1.2-3.3-2.4
		c-2.4-3.7-2.9-7.8-2.7-12.1c0-0.4,0.7-0.9,1.2-1.1c2.4-1,4.9-2,7.4-3c0.7-0.3,1.3-0.8,2-1.3c1.5,1.4,3,2.7,4.4,4.1
		c0.8,0.8,1.9,1.6,2.1,2.7C168.1,72.6,168.1,74.8,166.8,76.9z"/>
</g>
</svg>
