<?xml version="1.0" encoding="utf-8"?>
<!-- Generator: Adobe Illustrator 23.1.0, SVG Export Plug-In . SVG Version: 6.00 Build 0)  -->
<svg version="1.1" id="Layer_1" xmlns="http://www.w3.org/2000/svg" xmlns:xlink="http://www.w3.org/1999/xlink" x="0px" y="0px"
	 viewBox="0 0 250 250" style="enable-background:new 0 0 250 250;" xml:space="preserve">
<g>
	<g>
		<path d="M222.6,173.1c-1.4-8.8-2.9-17.5-4.4-26.2c-0.5-3.3-1.2-6.5-0.8-9.9c0.2-2.3,0.5-4.7,0.1-6.9c-1.4-7.9-3.1-15.7-4.6-23.6
			c-0.2-1-0.4-2-0.5-3.1c-0.2-2-1.3-3.7-3.2-4.2c-0.7-0.2-0.8-0.5-0.9-1c-0.6-2.6-1.1-5.2-1.7-7.8c-0.2-0.8-0.3-1.5-0.5-2.2
			c-0.3-1-1.3-1.5-2.3-1.3c-1.1,0.2-1.4,1-1.3,2c0.1,0.6,0.2,1.1,0.3,1.7c0.5,2,0.9,3.9,1.4,6c-1.1,0.2-1.9,0.3-2.9,0.5
			c-0.2-0.7-0.3-1.6-0.5-2.4c-0.4-1.6-0.7-3.3-1.1-4.9c-0.2-0.9-0.7-1.8-1.8-1.7c-1.3,0.1-1.9,1-1.6,2.5c0.5,2.4,1.1,4.8,1.6,7.1
			c-1,0.3-1.8,0.6-2.9,0.9c-0.1-0.8-0.2-1.5-0.3-2.2c-0.4-1.8-0.7-3.5-1.1-5.2c-0.2-0.9-0.6-1.5-1.6-1.6c-1.4-0.1-2.2,0.8-1.9,2.2
			c0.5,2.4,1.1,4.9,1.7,7.1c-1.1,0.3-2,0.6-3,0.8c-0.5-2.4-1-4.8-1.5-7.1c-0.3-1.5-1.7-2-2.9-1.2c-0.9,0.6-0.7,1.6-0.5,2.4
			c0.6,3.1,1.3,6.2,1.9,9.3c0.1,0.7,0.1,1.1-0.5,1.6c-1.4,1.1-1.9,2.6-1.6,4.4c0.1,0.8,0.3,1.6,0.4,2.4c1.6,7.6,3.3,15.1,4.9,22.7
			c0.6,3,1.6,5.7,3.3,8.3c0.8,1.1,1.4,2.4,1.8,3.7c1.8,6.7,3.4,13.5,5,20.3c1,3.9,2,7.8,3.1,11.7c0.9,3.1,3,4.5,6.2,4.4
			c1.1,0,2.2-0.2,3.4-0.3c0.3,1.8,0.6,3.7,0.7,5.6c0.2,2.1,0.1,4.2,0.2,6.3c0.1,1.4,0.8,2,2.3,2.1c1.3,0.1,2.1-0.4,2.4-1.7
			c0.1-0.5,0.2-1,0.2-1.5c-0.2-4-0.5-7.9-0.7-12c0,0,0.3,0,0.5-0.1C221.3,180.1,223.3,177.4,222.6,173.1z M207.8,136.3
			c-1.4,2.2-4.3,2.9-6.4,1.5c-2.4-1.5-3-4.8-1.4-7.3c1.4-2.2,4.3-2.9,6.3-1.5C208.6,130.5,209.3,134,207.8,136.3z M186.7,110.4
			c-0.4-2.1-0.3-2.3,1.5-2.7c6.2-1.3,12.3-2.6,18.5-3.9c0.6-0.1,1.3-0.2,2-0.4c0.2,0.8,0.4,1.5,0.7,2.5
			C201.7,107.4,194.2,108.9,186.7,110.4z"/>
	</g>
	<path d="M144,157.3h33.3c0-0.6,0-1.2,0-1.8c0-0.2,0-0.4,0-0.6c0-2.3-0.2-4.7-0.6-7c-1.1-7.1-3.5-13.9-5-21
		c-0.4-1.9-0.8-3.8-1.1-5.7L161,73.3c-4.3-12.3-11.4-22.6-21.9-30.5c-4.2-3.1-8.7-5.6-13.4-7.4c-4.9-1.9-10.1-3.2-15.6-3.9
		c-2.2-0.3-4.4-0.4-6.6-0.5c-0.3,0-0.6,0-1,0c-0.3,0-0.7,0-1,0c-2.3,0-4.6,0.2-6.9,0.5C89.2,32.2,84,33.4,79,35.4
		c-4.7,1.8-9.2,4.3-13.4,7.4C55.1,50.7,48,61,43.7,73.3c-3.9,11.1-5.4,22.7-7.4,34.2c-1.1,6.5-2,13-3.4,19.4c-1.5,7-3.9,13.8-5,21
		c-0.5,3.1-0.7,6.3-0.6,9.4h33.4c1.5,2.3,3.2,4.4,5,6.4c1.3,1.5,2.7,2.9,4.2,4.2l0.2,4.8c0.1,2-0.1,3.8-0.4,5.5
		c-0.2,1-0.4,1.8-0.7,2.6c0.3,0.9-4.6,7.1-5.1,7.5c-0.4,0.3-0.8,0.5-1.2,0.8c-1.7,0.8-3.4,1.7-5.1,2.4c-5.4,2.4-11,4.5-16,7.7
		c-5.9,3.7-9.4,9.1-10.9,15.8c-0.6,2.6,0.7,4,3.4,4.1c0.3,0,0.7,0,1.1,0c45.2,0,90.3,0,135.4,0c0.5,0,1.1,0,1.6-0.1
		c1.6-0.3,2.5-1.7,2.2-3.3c-1.2-7-4.8-12.3-10.6-16.3c-4.4-3-9.1-5.7-14.3-6.8c-5.4-1.1-8.2-1.3-13.6-12c-0.5-1.6-0.8-3.3-0.9-5.3
		c0-0.1,0-0.4,0-0.6c0-0.9,0-2.3-0.3-3.8l-0.6-2.5C137.8,165.1,141.1,161.4,144,157.3z M134.4,190.6c0.8,0.5,0.6,0.9,0.3,1.6
		c-1.8,3.3-4.4,5.8-7.4,7.9c-5.6,3.8-11.7,6.1-18.5,6.8c-9.4,1-18.4-0.2-27-4.2c-4.1-1.9-7.8-4.4-10.5-8.2c-0.3-0.4-0.6-0.9-0.9-1.3
		c-1.1-1.8-1.1-1.8,0.5-3.2c2.8-2.5,4.3-5.7,5.1-9.2c0.1-0.4,0.2-0.8,0.3-1.3c0.4-2.3,0.6-4.6,0.5-7.1c7.8,5.1,15.6,7.9,23.4,8.3
		h4.4c7.7-0.5,15.4-3.2,23.1-8.3c0.3,1.1,0.1,2.2,0.2,3.3c0.1,1.7,0.3,3.3,0.7,4.9c0.5,2.2,1.3,4.3,2.5,6.4
		C132,188.4,133.1,189.7,134.4,190.6z M118.5,170.5c-6.2,3.2-12.9,4.5-19.8,3.8c-7.5-0.8-14.2-3.9-20.2-8.3c-1-0.8-2-1.5-3-2.3
		c-2.3-2-4.4-4.1-6.2-6.4c-5.1-6.2-8.5-13.5-10.8-21.5c-2.2-7.5-3.4-15.1-4-22.9c-0.4-4.4-0.6-8.7-0.5-13.1c0.1-3.7,0.6-7.3,1.4-11
		c0.1-0.3,0.1-0.7,0.6-1c2.7-15,4.3-21.1,27-23.1c33.7-3,47.9,22.7,58.6,34.2c1.6,1.7,1.6,4.4,2.4,6.7c1.7,4.9,3.5,10.3,5.3,16.1
		c-0.7,5.2-1.8,10.4-3.3,15.5c-2.3,7.7-5.9,14.3-10.6,20C130.8,162.6,125.2,167,118.5,170.5z"/>
</g>
</svg>
