<?xml version="1.0" encoding="utf-8"?>
<!-- Generator: Adobe Illustrator 23.1.0, SVG Export Plug-In . SVG Version: 6.00 Build 0)  -->
<svg version="1.1" id="Layer_1" xmlns="http://www.w3.org/2000/svg" xmlns:xlink="http://www.w3.org/1999/xlink" x="0px" y="0px"
	 viewBox="0 0 250 250" style="enable-background:new 0 0 250 250;" xml:space="preserve">
<style type="text/css">
	.st0{fill:#FFFFFF;}
</style>
<path d="M72,98.1"/>
<path d="M164.7,158.7c2.7-4.4,4.6-9,4.7-14.2c0.1-4.2-0.8-8.2-2.9-11.9c-2.4-4.3-5-8.5-7.5-12.7c-3.5-5.9-6.1-12.1-7.6-18.8
	c-1.1-4.9-2.3-9.8-3.3-14.8l-7.4-20.2c-2.5-5.5-6-10.2-10.5-14.1c-5.9-5.2-12.7-7.9-20.6-7.1c-2,0.2-3.4-0.1-5.1-1
	c-6.4-3.3-13.1-4.6-20.3-3.6c-10.4,1.4-19.4,5.9-26.9,13.2c-5.7,5.6-10,12.1-13.1,19.3c-3.4,7.9-5.6,16.2-7.4,24.6
	c-1.9,8.6-4.4,16.9-9,24.5c-2.3,3.8-4.5,7.6-6.2,11.7c-2.1,4.9-2.8,10-1.6,15.3c0.9,4.2,3.1,7.8,5.6,11.3c1.5,2.2,2.9,4.4,3.1,7.2
	c0.2,4.1-1.1,6.2-4.6,7.1c-1.2,0.3-2.6,0-3.9,0c0,0.2-0.1,0.4-0.1,0.5c3.4,6,9.3,6.4,15.6,6c-4.5,3.1-8,6.9-10.4,11.5
	c-2.3,4.4-3.5,9-3.6,14c0,2.3,0.9,3.3,3.3,3.4c0.2,0,0.5,0,0.7,0h136.9c0.3,0,0.6,0,0.9,0c2.3-0.1,3.2-1.1,3-3.4
	c0-0.6-0.1-1.3-0.1-1.9c-0.2-5.1-1.8-9.7-4.4-14.1c-2.3-3.8-5.4-7-9.3-9.6c2.1,0.2,3.9,0.3,5.7,0.2c3.4-0.3,6.4-1.4,8.8-4
	c0.6-0.6,1.6-1.4,1.2-2.2c-0.3-0.7-1.5-0.3-2.3-0.2c-5.3,0.3-7.4-5.2-5.5-8.8C161.6,163.4,163.2,161.1,164.7,158.7z M126.2,174.9
	c-5.2,5.6-11.6,9-19.1,10.4c-6.9,1.3-13.8,1.6-20.9,0.8c-4.8-0.6-9.5-1.5-13.9-3.6c-3.8-1.8-7.1-4.2-9.9-7.3c-0.7-0.7-1-1.2,0.3-2
	c5.7-3.2,8.8-8.1,9.5-14.6c0.1-1,0.3-2,0.4-3.2c12.3,9.5,28.8,10.3,43.1,0.2c0.3,2.9,0.8,5.7,1.9,8.4c1.7,4.1,4.5,7.4,8.5,9.5
	C126.9,174,126.7,174.3,126.2,174.9z M125.2,135.5c-5.4,10.2-13.3,17.9-25.2,20.4c-9.2,1.9-17.6-0.5-25.1-6
	c-5.6-4.2-9.9-9.4-12.9-15.7c-1.8-3.8-2.7-7.9-3.5-12c-0.7-3.3-1.3-6.7-1.1-10.1c0.3-4.2,0.7-8.5,4.1-11.6c2.3-2.1,4.9-3.9,7.7-5.5
	c6.3-3.6,12.5-7.4,18.3-11.9c6.5-5,11.8-10.9,15.6-18.1c0.1-0.2,0.2-0.4,0.5-0.8c0.8,3.3,2.2,6.1,3.8,8.9c2.8,4.8,6.4,9,10.2,13
	c3.3,3.4,7,6.4,9.6,10.4c2.4,3.6,3.7,7.5,3.7,11.8C131.1,117.7,129.6,127,125.2,135.5z"/>
<path d="M244.7,95.9c-0.8-5.9-3.3-10.7-7.8-14.5c-3.9-3.3-8.5-4.9-13.3-6.2c-10.6-2.8-21.4-4.2-32.1-6.2c-5.4-1-10.8-1.8-15.7-4.6
	c-3.9-2.2-8-4.1-12-6.2c-1.9-1-2.8-0.7-3.8,1.1c-3.7,6.7-7.3,13.4-10.9,20.1c-1.2,2.2-0.7,3.4,1.6,4.5c2.2,1,4.4,1.9,6.5,3
	c3,1.5,6,2.9,8.8,4.7c2.5,1.6,4.8,3.7,7.1,5.6c8,6.5,15.4,13.6,23.3,20.1c0.9,0.8,1.5,1.8,1.1,3.1c-0.8,2.6-1.6,5.2-2.4,7.8
	c-0.3,1-0.7,1.2-1.7,0.8c-2.5-0.8-3.7-0.3-4.7,2.1c-1.1,2.6-2.1,5.2-3.1,7.9c-1.2,3.2-0.1,5.2,3.4,6c-0.4,0.6-0.9,0.9-1.2,1.5
	c-1.1,2.8-2.4,5.6-3.3,8.5c-1.1,3.7-1.1,7.5,1.9,10.2c2.2,1.9,2.1,3.5,0.9,5.6c-0.2,0.4-0.3,0.8-0.4,1.2c-3,9.1-0.5,13.5,4.9,19.7
	c1,1.1,2.7,0.9,3.9-0.2c1.5-1.5,1.6-2.5,0.3-3.9c-1.3-1.4-2.4-2.9-3.3-4.6c-1.3-2.3-1.7-4.6-0.5-7.2c0.7-1.5,1.2-3.1,1.7-4.6
	c0.3-1.2,0.8-1.6,2-1.5c2.6,0.3,5.1,0,7.2-1.8c1.8-1.5,2.9-3.3,3.7-5.4c4.4-11.2,8.9-22.4,13.2-33.7c0.9-2.3,2.4-3.5,4.7-4
	c2.3-0.5,4.6-1.3,6.7-2.5C240.1,117.5,246,105.5,244.7,95.9z M168,85.8c-4.5-2.8,2.6-15.9,7-13.5C179.5,74.7,172.7,88.6,168,85.8z
	 M219.9,111.1c-6.2,0-11-4.7-10.9-10.9c0-6.1,4.6-10.8,10.9-10.7c6.5,0.1,10.8,5.7,10.6,10.8C230.7,106.2,225.8,111.1,219.9,111.1z"
	/>
<path class="st0" d="M72,98.1"/>
<path d="M72,98.1"/>
</svg>
