<?xml version="1.0" encoding="utf-8"?>
<!-- Generator: Adobe Illustrator 23.1.0, SVG Export Plug-In . SVG Version: 6.00 Build 0)  -->
<svg version="1.1" id="Layer_1" xmlns="http://www.w3.org/2000/svg" xmlns:xlink="http://www.w3.org/1999/xlink" x="0px" y="0px"
	 viewBox="0 0 250 250" style="enable-background:new 0 0 250 250;" xml:space="preserve">
<g>
	<path d="M98,28.3c-0.5-0.9-1.3-0.8-2-0.5c-0.5,0.2-1.1,0.4-1.6,0.7c-6.7,3.5-13.1,7.3-19.6,11.1c-6.4,3.7-12.8,7.5-19.3,11.2
		c-1-4.2-2.1-8.4-3.1-12.6c6.4-1.2,11-4.5,13.1-10.9c2.9-8.8-2.8-18.5-12-20.2c-7.7-1.5-16,2.7-18.4,11.6c-2.1,8.1,2.9,16.9,11.1,19
		c0.5,0.1,0.7,0.3,0.8,0.7c1.2,4.8,2.4,9.6,3.7,14.4c0.2,0.5,0.1,0.7-0.3,1.1c-1.5,1.6-2.2,3.6-2.4,5.8c-0.1,0.5-0.2,0.8-0.7,1.1
		c-3.3,1.9-6.6,3.8-9.9,5.7c-0.5,0.3-0.9,0.3-1.3-0.1c-1.9-1.7-4.2-2.7-6.7-3.2c-7.1-1.3-13.8,2.1-17,8.1c-1.9,3.6-2.3,7.3-1.4,11.2
		c0.2,0.7-0.1,0.9-0.6,1.2c-1.5,0.8-3,1.5-4.5,2.4c-1.2,0.7-2.5,1.1-3.5,2c-1.4,1.3-1.1,2.9,0.6,3.8c1.2,0.7,2.2,0.2,3.3-0.4
		c2.1-1.1,4.2-2.3,6.2-3.5c0.6-0.4,0.9-0.3,1.2,0.3c1.4,2,3.2,3.5,5.3,4.6c4,2,8.2,2.3,12.4,0.8c5.3-1.9,8.6-5.6,10.1-11.1
		c1.1-3.9,0.4-7.6-1.3-11.2c-0.2-0.4-0.4-0.5,0.1-0.8c2.9-1.7,5.8-3.4,8.8-5.1c0.3,1.6,0.6,3.2,0.9,4.6c0.3,1.2,0.7,1.4,1.7,0.7
		c0.2-0.2,0.4-0.4,0.6-0.6c2.5-2.1,4.9-4.3,7.4-6.4c11.6-10.2,23.3-20.4,35-30.6c1-0.9,1.9-1.7,2.8-2.6C98.2,30,98.5,29.2,98,28.3z
		 M36.2,83.6c-2.6,5.3-9.4,7.8-14.5,5c-4.6-1.9-8-8.1-5.1-14.5c2.5-5.5,9.2-7.9,14.8-5.1C36.6,71.6,38.8,78.2,36.2,83.6z M45.9,32.5
		c-5-2.3-7.9-8.7-5.3-14.4c2.6-5.5,8.9-7.9,14.5-5.2c6.2,2.9,7.6,10,5.2,14.5C58,32.6,51.3,35,45.9,32.5z M57.9,60.3
		c-0.7,1.5-2,1.9-3.6,1.2c-1.4-0.3-1.9-2.4-1.4-3.6c0.7-1.4,2.4-2,3.7-1.4C58.1,57.2,58.7,58.9,57.9,60.3z"/>
	<path d="M61.7,110.9c-0.5,0.6-1.1,0.9-1.7,0.9c-0.8-0.1-1.2-0.7-1.4-1.3c-0.5-1.9-1-3.8-1.4-5.6c-2.1-9.4-4.2-18.7-6-28.1
		C51,76,51.1,75.5,51.7,75c2.4-2,4.8-4.1,7.2-6.2c0.3-0.3,0.6-0.7,1.2-0.5c0.6,0.3,0.5,0.8,0.5,1.3c0.4,13.2,0.8,26.5,1.2,39.7
		C61.8,109.9,61.8,110.4,61.7,110.9z"/>
</g>
<path d="M200,207.7c-0.3-2.4-0.4-4.7-0.6-7.1c-0.8-7.8-4.9-13.5-11.1-17.8c-6.1-4.2-13-6.6-19.7-9.5c-3.4-1.4-6.9-2.8-10.2-4.4
	c-2.3-1.1-4.3-2.9-4.6-5.6c-0.3-2.9-0.2-5.9-0.2-8.9c0-0.2,0.3-0.5,0.4-0.7c4.8-5.8,8.1-12.4,10.3-19.5c0.5-1.7,1.4-2.8,3-3.7
	c1.3-0.7,2.6-1.7,3.5-2.8c4.8-5.9,7-12.6,6.1-20.2c-0.4-3.6-1.9-6.7-5.2-8.6c-0.9-0.5-0.7-1.1-0.5-1.8c0.7-2.4,1.5-4.8,2.1-7.2
	c1.7-6.7,2.6-13.5,1-20.3c-1.4-6-4.1-10.8-10.5-12.7c-1.3-0.4-2.1-1.4-2.4-2.7c-1.1-4.3-4.1-7.2-7.7-9.6c-7.4-5.1-15.9-6.7-24.6-7.2
	c-5.8-0.3-11.4,0.4-17,1.7c-11.9,2.8-22.3,8.1-30.4,17.5c-3.9,4.5-6.5,9.7-7.2,15.7c-0.3,3.1,0.3,4.1,3.2,4.8
	c0.4,0.1,0.8,0.7,0.9,1.1c0.2,1.2,0.2,2.5,0.3,3.8c0.4,5,0.7,10,1.1,15.1c0.1,0.9-0.1,1.5-1,2.1c-2.5,1.5-4.1,3.8-4.8,6.6
	c-0.9,3.7-0.8,7.3,0,10.9c1.4,6.1,4,11.4,9.8,14.6c0.9,0.5,1.8,1.5,2.1,2.5c2.2,7.2,5.4,13.8,10.2,19.7c0.4,0.5,0.7,1.3,0.7,2
	c0.1,2.1,0.1,4.2,0,6.3c0,2-0.5,3.9-2.1,5.2c-1.7,1.4-3.6,2.7-5.6,3.6c-7.7,3.4-15.6,6.5-23.2,10.1c-5.6,2.6-10.1,6.6-12.9,12.3
	c-2.3,4.7-2.5,9.8-2.9,14.8c-0.2,2.9,2.2,5.4,5.3,5.3c23.2-0.1,46.4-0.1,69.7-0.1c23.3,0,46.6,0,70,0
	C198.2,212.9,200.3,210.3,200,207.7z M91.2,131.4c-0.1-0.3-0.2-0.5-0.3-0.8c-0.4-2.4-1.3-3.9-3.9-4.6c-3.3-0.9-5-3.9-6.2-6.9
	c-1.3-3.1-2.1-6.4-1.8-9.8c0.1-1.9,1-3.9,2.2-4.8c0.8,1.2,1.5,2.3,2.3,3.4c1.1,1.3,2.3,0.4,3.5,0.1c1.1-0.3,0.9-1.1,1-1.9
	c0.5-4.8,0.9-9.6,1.6-14.4c0.6-3.8,2.3-7.3,4.8-10.2c1.9-2.2,4.3-3.1,7.1-3.1c5.2,0.1,10.4,0.5,15.5,0.5c6.6,0,13.1-0.8,19.3-3.3
	c4.5-1.8,8.8-3.9,13.3-5.8c1.4-0.6,2.8-1,4.4-1.5c0,0.9,0.1,1.6,0,2.3c-0.5,4.6,0.2,9.1,1.4,13.4c0.5,1.9,1.6,3.7,2.6,5.5
	c2,3.8,3.9,7.7,4.4,12.1c0.2,1.6,0.3,3.3,0.5,4.9c0.1,0.7,0.4,1.8,0.8,1.9c0.9,0.3,2.2,0.3,2.8-0.2c1.1-0.9,1.8-2.3,2.7-3.7
	c1.5,0.9,1.9,2.6,2,4.2c0.4,5.8-1.2,11-5.1,15.2c-1,1.1-2.7,1.9-4.2,2.4c-1.4,0.5-1.9,1.3-2.4,2.6c-1.4,4.1-2.5,8.4-4.5,12.2
	c-4,7.9-9.8,14.3-18,18c-10.3,4.6-20.2,3.7-29.4-3C99.2,149.9,94.1,141.4,91.2,131.4z M95.5,174.3c1.8-2.1,4-3.9,5.2-6.2
	c1.2-2.2,1.5-5,2.3-7.7c14.6,10.6,29.5,10,44.6-0.6c-0.6,6.4,2.4,10.7,7,14C142,191.5,108.5,191.7,95.5,174.3z"/>
</svg>
