<?xml version="1.0" encoding="utf-8"?>
<!-- Generator: Adobe Illustrator 23.1.0, SVG Export Plug-In . SVG Version: 6.00 Build 0)  -->
<svg version="1.1" id="Layer_1" xmlns="http://www.w3.org/2000/svg" xmlns:xlink="http://www.w3.org/1999/xlink" x="0px" y="0px"
	 viewBox="0 0 250 250" style="enable-background:new 0 0 250 250;" xml:space="preserve">
<g>
	<path d="M174.6,144.7c-2.2-7.6-3.9-15.2-3.6-23.2c0.1-2.9,0.2-5.9,0-8.8c-0.4-5.9-1.5-11.5-5-16.5c-3.7-5.4-8.7-7.4-15.2-5.7
		c-1.1,0.3-2.2,0.4-3.4,0.7c-0.7-4.1-2.9-6.8-6.3-8.3c-2.3-1-4.8-1.7-7.2-1.8c-3.4-0.1-4.8-1.4-5.8-4.6c-2.5-8.1-8.9-12.9-16.3-12.4
		c-1.6,0.1-3.2,0.6-4.8,0.8c-0.3-1.5-0.4-2.8-0.7-4.1c-2-7.4-5.6-13.7-13.7-15.5c-5.4-1.2-10.8-1.2-14.2,4.5
		c-0.1,0.2-0.5,0.3-0.8,0.4c-0.6-1.7-1.2-3.2-1.7-4.8c-2.3-6.6-6.2-12-12.1-16c-4.4-3-9.4-3-14.3-2.5C43.7,27.7,38,29.2,34,34.2
		c-5,6.2-7.9,13.3-9.1,21c-1,6.3-0.8,12.8-1.1,19.3c-0.3,6.6,0.9,13.1,2.7,19.5c2.1,7.5,3,15.1,2,22.9c-1.3,10.3-3.1,20.5-3.6,30.8
		c-0.5,9-0.2,18.2,1,27.2c1.5,11.3,4.8,22.4,8.7,33.1c1.2,3.4,3.6,6.1,5.4,9.1c4,6.9,9.6,10.3,17.4,10.4c6.5,0,13,0.1,19.5,0
		c4.7-0.1,9.5-0.1,14.2-0.5c5.3-0.5,9.8-2.8,11.8-8c2.4-6.4,4.8-13,6.3-19.7c1.8-7.8,3.1-15.7,3.9-23.7c0.7-7,0.7-14.1,0.4-21.2
		c-0.2-5.1-2.5-9.6-7.2-12.3c-4.1-2.4-8.2-4.6-12.2-7.2c-1.3-0.8-2.5-2.3-3.1-3.7c-0.9-2-1.1-4.4-1.6-6.7c2.8-0.1,2.2-2.1,2.1-3.7
		c-0.1-1-0.9-1.9-1.4-2.9c-0.3,0.1-0.6,0.1-0.9,0.2c0.2-1.4,0.1-3.7,0.8-4c2.2-1.1,2-2.8,1.7-4.4c-0.2-1-1.5-1.8-2.6-3
		c0.1-1.3-0.7-3.4,1.3-5.2c0.5-0.4,0.2-2.8-0.4-3.3c-1.1-1-2.9-1.7-4.3-1.7c-6.9-0.2-13.8-0.1-20.7-0.1c-0.6,0-1.4,0.2-1.9-0.1
		c-2.5-1.6-4.9-1.2-7.4,0c-1.9,0.9-2.8,4-1,5.2c2.3,1.6,2.1,3.7,2,5.9c-2.7,0.8-4.2,4.4-2.3,5.5c2.7,1.6,1.8,3.6,1.8,5.7
		c-1.6,0-3,0.1-3.2,2.1c-0.2,2.3,0.4,3.9,2.8,4.1c0.9,7-3.2,9.6-8.6,11.5c-4.6,1.6-9.1,3.9-11.7,8.4c-1.7,3-2.7,6.4-4.2,10
		c0.3-4.8,0.3-9.4,0.8-13.9c0.7-6.6,1.5-13.2,2.6-19.8c1.2-8,0.9-16-0.5-24c-0.9-4.9-2.2-9.8-3-14.7c-1.5-8.2-1.5-16.4,0-24.7
		c0.7-3.9,2.1-7.7,4.7-11.5c0.4,1.4,0.9,2.4,0.9,3.3c0.2,4.4,0.4,8.8,0.5,13.2c0.1,5.9,3.1,10.1,9,10.9c4.3,0.6,8.8,0.4,13.1-0.1
		c4.5-0.6,7.3-3.7,7.4-7.1c0.2-5.4,0.3-10.9,0.5-16.3c0-0.8,0.7-1.5,1.1-2.2c0.6,0.5,1.4,1,1.6,1.6c2,5.1,1.8,10.4,1.6,15.7
		c-0.2,7.3-0.2,14.6-0.2,21.8c0,2.3,1.2,3.3,3.4,3.3c1.9,0,2.8-1.2,2.9-3.5c0.1-4.5,0.3-9,0.5-13.5c0.1-1.6,0.5-3.2,0.8-4.9
		C86.1,72.8,93,72,100,66.9c-0.2,4.5-0.6,8.3-0.6,12.2c0,6.9,0.2,13.7,0.4,20.6c0.1,1.7,0.9,2.8,2.8,2.8c2.7,0.1,3.8-0.9,3.9-3.8
		c0-4.1,0-8.2,0-12.5c5.8,0.9,11.5,2.7,16.6-2.3c0,1.1,0,1.9,0,2.6c-0.2,8.5-0.4,17.1-0.5,25.6c0,2,0.9,3.1,2.9,3.2
		c1.8,0,3.2-1.4,3.3-3.2c0-1.9,0-3.8,0-5.7c0-3.5,0.3-3.7,3.7-3.8c4.1-0.1,8.8,1.2,11.3-3.9c0.2,0.6,0.2,1,0.1,1.3
		c-0.5,8.1-1,16.2-1.4,24.3c-0.2,3.3,2.2,5,4.8,3.4c1-0.6,1.6-2.2,1.7-3.4c0.4-4.2,0.4-8.4,0.6-12.5c3.8,0,7.5,0.5,10.9-0.1
		c3.6-0.7,3.6-1.2,4.2,2.6c0.1,0.9,0.2,1.7,0.2,2.6c-0.1,3.1-0.8,6.2-0.4,9.2c0.5,5,1.3,10,2.7,14.8c2.1,7.8,4.4,15.6,3.8,23.8
		c-0.3,4.5-0.8,8.9-1.4,13.3c-1.4,9.4-3.1,18.8-4.7,28.3c-0.6,3.7-1.5,7.4-2,11.1c-0.1,0.8,0.7,2.2,1.4,2.5c2.9,1.1,5-0.2,5.6-3.2
		c0.5-2.8,1.1-5.5,1.5-8.3c1.8-12.4,3.7-24.8,5.4-37.2C178.1,162.1,177.2,153.4,174.6,144.7z M63,102.7h19.7v5H63V102.7z
		 M66.2,113.9h16.7v4.6H62.5c-0.1-0.3-0.2-0.5-0.2-0.6C62.2,113.9,62.2,113.9,66.2,113.9z M40.6,147.4c0.3-0.8,1.4-1.4,2.3-1.9
		c4.7-2.4,9.5-4.9,14.3-7.2c2.1-1,3.1-2.8,3.6-4.9c0.5-2.4,0.8-4.9,1.3-7.4c0.1-0.6,0.9-1.6,1.3-1.6c6.5-0.1,12.9-0.1,19.4-0.1
		c0.9,3.5,1.9,6.8,2.7,10.1c0.6,2.4,2.1,4,4.1,5.2c4.1,2.5,8.1,5.1,12.3,7.5c4.3,2.5,5.6,6.5,5.5,11.3c-8.3,2.4-16.6,4.3-25.2,3.4
		c-6-0.6-12-2.2-18-3.4c-6-1.1-12-1.1-18.1-0.2c-2.6,0.4-5.3,0.8-8.1,1.2C37.7,155.2,39.2,151.3,40.6,147.4z M87.9,64.1
		c-3.7,0.1-4.3-0.4-4.2-4.1c0-1.9,0.2-3.8,0.5-5.6c0.3-1.7,1.5-2.8,3.3-2.6c1.6,0.1,3.2,0.4,4.9,0.8c1.9,0.4,2.7,1.8,2.7,3.6
		C95.1,61.5,93.6,64.2,87.9,64.1z M113.1,80.4c-3,0-3.2-0.2-3.3-2.9c-0.1-4.4,1.1-6.4,3.8-6.4c2.9-0.1,5.2,1.3,5.1,3.1
		C118.6,78.4,116.9,80.4,113.1,80.4z M139.2,91.1c-0.4,3.5-1.1,5.8-5.8,5.6c-2.2,0.4-2.8-0.7-2.8-2.9c0.1-4.9,1.2-6.6,4.7-6.6
		C137.6,87.2,139.5,88.9,139.2,91.1z M154.5,105.8c-2.5,0-3.7-1.3-3.7-3.7c0-3.2,2.2-5.8,4.9-5.8c2.8,0.1,4.9,2.3,4.9,5.2
		C160.5,103.9,157.8,105.8,154.5,105.8z"/>
	<path d="M227.3,75.4c-6.2-1.8-12.4-3.6-18.6-5.4c-1.2-0.3-2.7-0.1-3.8-0.7c-8.8-5.1-17.5-10.4-26.3-15.6c-1.5-0.9-1.7-1.7-1-3.2
		c1.7-3.4,3.1-7,4.7-10.5c0.8-1.8,0.3-3-1.4-3.8c-1.5-0.7-2.9-1.4-4.4-2.2c-8.3-4.2-16.6-8.3-24.9-12.5c-7.8-3.9-15.6-7.9-23.5-11.6
		c-1.6-0.8-3.7-0.9-5.5-0.6c-4.5,0.7-8.1,3.2-11.4,6.1c-5.4,4.8-5.2,15.3,0.2,19.5c16.6,12.9,33.2,25.8,49.8,38.7
		c1.9,1.5,2.5,1.4,3.7-0.6c2.9-4.8,5.7-9.6,8.7-14.7c0.2,0.1,0.5,0.4,0.9,0.6c7,4.1,14.1,8.2,21.1,12.5c3.4,2.1,7.1,3.4,9.5,7.1
		c3.2,5,7.2,9.5,11.1,14.1c0.7,0.8,2.3,1.8,3.1,1.5c1.7-0.6,4-1.5,4.7-2.9c2-4.1,3.5-8.5,5-12.8C229.7,76.9,228.8,75.8,227.3,75.4z
		 M162.1,65.7c-4.6-3.6-9.1-7-13.5-10.4C138.1,47.2,127.5,39,117,30.8c-4.3-3.4-3.7-9.9,1.2-12.3c1-0.5,2.1-1,2.9-1.7
		c2-1.7,4-1.4,6.1-0.3c13.7,6.9,27.4,13.7,41.2,20.6c2.3,1.1,4.5,2.3,7,3.6C170.9,49,166.6,57.3,162.1,65.7z"/>
</g>
</svg>
