<?xml version="1.0" encoding="utf-8"?>
<!-- Generator: Adobe Illustrator 23.1.0, SVG Export Plug-In . SVG Version: 6.00 Build 0)  -->
<svg version="1.1" id="Layer_1" xmlns="http://www.w3.org/2000/svg" xmlns:xlink="http://www.w3.org/1999/xlink" x="0px" y="0px"
	 viewBox="0 0 250 250" style="enable-background:new 0 0 250 250;" xml:space="preserve">
<g>
	<path d="M243.8,165.4c-1.6-5.4-2.8-10.9-2.6-16.7c0.1-2.1,0.1-4.2,0-6.3c-0.3-4.2-1.1-8.3-3.6-11.9c-2.7-3.9-6.3-5.3-10.9-4.1
		c-0.8,0.2-1.6,0.3-2.4,0.5c-0.5-2.9-2.1-4.9-4.5-6c-1.6-0.7-3.4-1.2-5.2-1.3c-2.4,0-3.5-1-4.2-3.3c-1.8-5.8-6.4-9.3-11.7-8.9
		c-1.1,0.1-2.3,0.4-3.4,0.6c-0.2-1-0.3-2-0.5-2.9c-1.4-5.4-4-9.8-9.9-11.2c-3.9-0.9-7.8-0.8-10.2,3.3c-0.1,0.2-0.4,0.2-0.6,0.3
		c-0.4-1.2-0.8-2.3-1.2-3.4c-1.7-4.7-4.5-8.6-8.7-11.5c-3.2-2.1-6.8-2.2-10.3-1.8c-4.3,0.4-8.3,1.5-11.2,5.1
		c-3.6,4.4-5.7,9.6-6.5,15.1c-0.7,4.6-0.6,9.2-0.8,13.9c-0.2,4.8,0.6,9.4,1.9,14c1.5,5.4,2.1,10.9,1.4,16.5
		c-0.9,7.4-2.2,14.8-2.6,22.2c-0.3,6.5-0.1,13.1,0.7,19.6c1.1,8.2,3.4,16.1,6.3,23.8c0.9,2.4,2.6,4.4,3.9,6.6
		c2.9,5,6.9,7.4,12.5,7.4c4.7,0,9.3,0,14,0c3.4,0,6.8-0.1,10.2-0.4c3.8-0.3,7.1-2,8.5-5.8c1.8-4.6,3.4-9.3,4.5-14.1
		c1.3-5.6,2.2-11.3,2.8-17c0.5-5,0.5-10.2,0.3-15.2c-0.1-3.7-1.8-6.9-5.2-8.9c-2.9-1.7-5.9-3.3-8.8-5.2c-0.9-0.6-1.8-1.6-2.2-2.7
		c-0.6-1.5-0.8-3.1-1.2-4.8c2-0.1,1.6-1.5,1.5-2.6c-0.1-0.7-0.6-1.4-1-2.1c-0.2,0-0.4,0.1-0.6,0.1c0.2-1,0-2.6,0.6-2.9
		c1.6-0.8,1.5-2,1.2-3.2c-0.2-0.7-1.1-1.3-1.9-2.2c0.1-1-0.5-2.5,0.9-3.7c0.4-0.3,0.2-2-0.3-2.4c-0.8-0.7-2.1-1.2-3.1-1.2
		c-5-0.1-9.9-0.1-14.9-0.1c-0.5,0-1,0.1-1.3-0.1c-1.8-1.1-3.5-0.8-5.3,0c-1.4,0.7-2,2.9-0.7,3.8c1.7,1.2,1.5,2.7,1.4,4.3
		c-1.9,0.5-3,3.2-1.7,4c1.9,1.1,1.3,2.6,1.3,4.1c-1.1,0-2.2,0.1-2.3,1.5c-0.2,1.6,0.3,2.8,2,3c0.7,5-2.3,6.9-6.2,8.3
		c-3.3,1.2-6.6,2.8-8.4,6c-1.3,2.1-1.9,4.6-3,7.2c0.2-3.5,0.2-6.8,0.6-10c0.5-4.8,1.1-9.5,1.8-14.3c0.9-5.8,0.7-11.5-0.3-17.3
		c-0.6-3.5-1.6-7-2.2-10.6c-1-5.9-1.1-11.8,0-17.7c0.5-2.8,1.5-5.5,3.4-8.3c0.3,1,0.6,1.7,0.7,2.4c0.2,3.2,0.3,6.3,0.3,9.5
		c0.1,4.3,2.3,7.3,6.5,7.8c3.1,0.4,6.3,0.3,9.4-0.1c3.2-0.4,5.2-2.6,5.3-5.1c0.1-3.9,0.2-7.8,0.3-11.8c0-0.5,0.5-1.1,0.8-1.6
		c0.4,0.4,1,0.7,1.2,1.2c1.5,3.7,1.3,7.5,1.2,11.3c-0.2,5.2-0.1,10.5-0.1,15.7c0,1.6,0.9,2.4,2.5,2.4c1.4,0,2-0.8,2.1-2.5
		c0.1-3.2,0.2-6.5,0.4-9.7c0.1-1.2,0.4-2.3,0.6-3.5c5.3,3.3,10.2,2.7,15.3-1c-0.2,3.2-0.4,6-0.4,8.8c0,4.9,0.2,9.9,0.3,14.8
		c0,1.2,0.7,2,2,2c2,0.1,2.8-0.7,2.8-2.7c0-2.9,0-5.9,0-9c4.2,0.6,8.3,1.9,11.9-1.7c0,0.8,0,1.3,0,1.9c-0.1,6.1-0.3,12.3-0.4,18.4
		c0,1.4,0.6,2.3,2.1,2.3c1.3,0,2.3-1,2.4-2.3c0-1.4,0-2.7,0-4.1c0-2.5,0.2-2.6,2.7-2.7c3-0.1,6.3,0.9,8.1-2.8c0.1,0.4,0.1,0.7,0.1,1
		c-0.3,5.8-0.7,11.6-1,17.5c-0.1,2.4,1.6,3.6,3.4,2.4c0.7-0.4,1.2-1.6,1.3-2.5c0.3-3,0.3-6,0.4-9c2.8,0,5.4,0.4,7.8-0.1
		c2.6-0.5,2.6-0.9,3,1.9c0.1,0.6,0.2,1.3,0.1,1.9c-0.1,2.2-0.6,4.4-0.3,6.6c0.4,3.6,1,7.2,1.9,10.6c1.5,5.6,3.2,11.2,2.7,17.1
		c-0.2,3.2-0.5,6.4-1,9.6c-1,6.8-2.2,13.6-3.3,20.3c-0.4,2.7-1.1,5.3-1.4,8c-0.1,0.6,0.5,1.6,1,1.8c2.1,0.8,3.6-0.1,4-2.3
		c0.4-2,0.8-4,1.1-6c1.3-8.9,2.6-17.8,3.9-26.8C246.3,177.9,245.6,171.7,243.8,165.4z M163.4,135.2h14.2v3.6h-14.2V135.2z
		 M165.7,143.3h12v3.3h-14.7c-0.1-0.2-0.1-0.3-0.1-0.4C162.8,143.3,162.8,143.3,165.7,143.3z M147.3,167.4c0.2-0.6,1-1,1.7-1.3
		c3.4-1.8,6.8-3.5,10.3-5.2c1.5-0.7,2.3-2,2.6-3.6c0.4-1.8,0.6-3.6,0.9-5.3c0.1-0.4,0.6-1.1,1-1.1c4.7-0.1,9.3-0.1,13.9-0.1
		c0.7,2.5,1.4,4.9,1.9,7.2c0.4,1.7,1.5,2.8,3,3.7c2.9,1.8,5.9,3.7,8.8,5.4c3.1,1.8,4,4.7,4,8.1c-6,1.8-12,3.1-18.1,2.4
		c-4.3-0.5-8.6-1.6-12.9-2.4c-4.3-0.8-8.7-0.8-13-0.1c-1.9,0.3-3.8,0.6-5.8,0.9C145.2,173,146.3,170.2,147.3,167.4z M181.3,107.4
		c-2.7,0.1-3.1-0.3-3-3c0-1.4,0.1-2.7,0.4-4c0.2-1.2,1.1-2,2.4-1.9c1.2,0.1,2.3,0.3,3.5,0.5c1.4,0.3,1.9,1.3,1.9,2.6
		C186.5,105.6,185.4,107.5,181.3,107.4z M199.5,119.2c-2.2,0-2.3-0.1-2.4-2.1c0-3.1,0.8-4.6,2.7-4.6c2.1,0,3.7,0.9,3.7,2.2
		C203.4,117.8,202.2,119.1,199.5,119.2z M218.3,126.9c-0.3,2.5-0.8,4.1-4.2,4c-1.6,0.3-2-0.5-2-2.1c0.1-3.5,0.9-4.7,3.4-4.7
		C217.1,124.1,218.5,125.3,218.3,126.9z M229.2,137.4c-1.8,0-2.7-0.9-2.7-2.7c0-2.3,1.6-4.2,3.5-4.1c2,0,3.5,1.6,3.5,3.7
		C233.6,136.1,231.7,137.4,229.2,137.4z"/>
	<path d="M30.3,113.6c-0.4-6.1-0.7-11.8-1-17.4c-0.4-6.3-0.8-12.7-1-19C28,71.9,27.7,66.6,28,61.4c0.4-6-0.2-12.1,2-17.9
		c0.6-1.7,1.5-3.4,2.7-4.8c2.1-2.6,5.7-2.8,8.4-0.6c3.6,2.9,5.1,7.1,5.9,11.4c0.9,4.6,1.4,9.4,1.8,14.1c0.5,4.8,0.7,9.7,1.1,14.5
		c0.4,5.4,0.6,10.7,1.1,16.1c0.3,3.6,0.9,7.1,1.4,10.7c0,0.3,0.3,0.5,0.7,1.1c0.3-0.8,0.5-1.2,0.5-1.6c0.2-2.9,0.4-5.9,0.4-8.8
		c0.2-9.8,0.2-19.6,0.4-29.3c0.1-4.4,0.1-8.7,0.4-13.1c0.4-5.3,0.9-10.7,1.7-16c0.4-3.1,1.7-5.9,4-8.3c2.7-2.7,8.2-2.5,10.6,0.5
		c3.5,4.4,4.9,9.5,5.6,15c1.6,13.8,1.2,27.6,1.3,41.4c0.1,6.8,0.3,13.5,0.5,20.3c0,0.5,0.1,1,0.2,1.6c0.1,0,0.3,0,0.4,0
		c0.3-1.9,0.6-3.8,0.8-5.7c0.3-4,0.5-7.9,0.7-11.9c0.3-5.9,0.5-11.9,1.1-17.8c0.8-7.8,1-15.8,3.4-23.4c1-3,1.8-6.3,4.7-8.3
		c3.8-2.7,8.2-1.6,10.4,2.5c1.6,3.1,2.2,6.4,2.3,9.8c0.3,8.6,0.5,17.2,0.4,25.8c-0.1,7.5-0.8,15.1-1.3,22.6
		c-0.3,5-0.5,10.1-0.7,15.2c-0.2,3.4-0.4,6.9-0.5,10.3c-0.1,2.1,0,4.2,0.4,6.3c1.1-4.2,2.1-8.4,3.2-12.5c1.8-6.8,4.1-13.4,8.9-18.8
		c3.2-3.6,7.1-5.7,12-5.9c1.8-0.1,3.1,1,3,2.9c-0.3,4.3-0.6,8.7-1,13c-0.4,4.4-0.8,8.9-1.3,13.3c-1.1,8.3-2.2,16.6-3.6,24.8
		c-1.1,6.7-3,13.2-5.9,19.4c-2.5,5.6-5.7,10.7-9.7,15.3c-5.3,6-7.4,13-7.8,20.8c-0.2,3.7-0.4,7.5-0.6,11.2c-0.1,1.6-1.2,1.9-2.5,1.9
		c-1.1,0-2.3-0.1-2.3-1.6c-0.3-8.4,0.3-16.7,2.9-24.7c1.6-4.7,4.6-8.6,7.7-12.5c6.3-8,10.4-17.1,12.5-27c1.3-6.2,2.4-12.4,3.3-18.7
		c0.6-4.1,0.9-8.2,1.2-12.3c0-0.7-0.4-1.4-0.7-2c-1.2-2.3-1.6-4.9-1.4-7.4c0.3-3.2,0.9-6.4,1.4-9.6c-2.4,0.8-4.2,2.5-5.5,4.8
		c-3.6,6.2-5.7,12.9-7.2,19.8c-0.9,4.1-2.1,8.1-3.4,12c-0.6,1.8-1.9,3.1-4,3c-1.6-0.1-2.8-0.6-3.2-2.3c-0.5-2.6-1.2-5.2-1.3-7.8
		c-0.2-5.2-0.2-10.5,0-15.7c0.3-6.6,0.9-13.2,1.2-19.8c0.3-5.6,0.6-11.2,0.8-16.8c0.2-4.8,0.2-9.5,0.4-14.3c0-0.5,0-1.1,0-1.8
		c-3.6,2.7-6.7,2-9.8-1.4c-0.3,2.5-0.6,4.6-0.8,6.6c-0.5,6.3-0.9,12.6-1.4,19c-0.4,5.9-0.8,11.9-1.5,17.8c-0.3,2.5-1,5-2,7.3
		c-1,2.3-2.6,2.9-4.8,2.5c-1.8-0.3-3.2-1.8-3.4-4c-0.5-6-0.9-12.1-1-18.1c-0.3-12.4-0.5-24.9-0.7-37.3c0-1.8-0.3-3.5-0.4-5.4
		c-5.4,4-5.5,4-11.7,0.4c-0.1,2.3-0.4,4.5-0.4,6.7c-0.1,3.9,0,7.7-0.1,11.6c-0.2,5.7-0.4,11.3-0.7,17c-0.2,5.3-0.4,10.5-0.7,15.8
		c-0.2,2.6-0.5,5.3-0.9,7.9c-0.3,1.8-1.3,3.1-3.1,3.4c-2,0.3-3.8-0.3-4.8-2.1c-0.8-1.6-1.6-3.3-1.9-5c-0.6-4.1-0.9-8.2-1.2-12.3
		c-0.6-6.9-1.2-13.7-1.8-20.6c-0.4-4.6-0.9-9.2-1.4-13.9c-1.4,1.6-2.6,3.1-4.7,3.5c-2.2,0.4-3.8-0.5-5.5-2.4c0,6.7-0.1,13,0,19.3
		c0.1,3.8,0.4,7.6,0.7,11.4c0.4,5.3,1,10.6,1.3,15.9c0.2,4.8,0.1,9.7,0.1,14.5c0,1.6-1.1,2.4-2.4,2.6c-1.5,0.3-3.1,0-3.8-1.6
		c-1.4-3.4-2.8-6.9-4-10.4c-1.7-4.9-3.1-9.8-4.7-14.7c-0.4-1.2-1.1-2.2-1.9-3.6c-1.8,2.8-4.4,2.8-7.2,2.7c0.4,2.1,0.8,4,1.2,5.9
		c1.7,8.5,3.6,17,5.2,25.5c1.8,8.9,3.5,17.8,5.1,26.7c1.3,7.2,2.8,14.3,5.3,21.1c2,5.3,4.5,10.5,6.2,15.9c1.2,3.8,1.7,7.9,2.2,11.9
		c0.4,2.7,0.3,5.5,0.4,8.3c0,1.6,0,3.3-0.4,4.9c-0.2,0.7-1.1,1.6-1.8,1.8c-1,0.3-2.2,0.2-2.5-1.2c-0.1-0.6-0.3-1.2-0.3-1.8
		c0-3.1,0.1-6.2,0-9.2c-0.4-7.6-2.1-14.9-5.2-21.9c-4.1-8.9-6.5-18.3-8.4-27.8c-2.9-14.6-5.6-29.3-8.5-44c-1.4-6.9-3-13.8-4.3-20.7
		c-0.6-3.1-0.7-6.4-0.9-9.6c-0.4-5.3,4.6-7.2,8.6-5.2c2.6,1.3,4.3,3.6,5.9,6c4.4,6.6,6.5,14,8.7,21.4c0.8,2.6,1.4,5.2,2.2,7.8
		C29.7,112.7,29.9,112.9,30.3,113.6z"/>
	<path d="M232.1,106.4c-4-3.3-8-6.5-12.1-9.7c-0.8-0.6-2-0.9-2.5-1.7c-4.9-6.5-9.7-13.1-14.6-19.6c-0.8-1.1-0.7-1.8,0.3-2.7
		c2.3-2,4.5-4.2,6.7-6.3c1.1-1,1.2-2.1,0.2-3.3c-0.9-1-1.7-2-2.6-2.9c-4.8-5.6-9.7-11.3-14.5-16.9c-4.6-5.3-9.1-10.6-13.7-15.8
		c-1-1.1-2.5-1.8-3.9-2.2c-3.5-0.9-7-0.1-10.3,1c-5.4,1.9-8.6,9.6-5.8,14.5c8.2,14.7,16.6,29.3,24.8,43.9c0.9,1.7,1.4,1.8,2.9,0.7
		c3.6-2.6,7.2-5.3,11-8.1c0.1,0.2,0.3,0.5,0.5,0.8c3.9,5.2,7.9,10.4,11.7,15.7c1.8,2.5,4.2,4.7,4.8,8.2c0.9,4.7,2.4,9.3,3.8,13.8
		c0.3,0.8,1.1,2,1.8,2.1c1.5,0.1,3.4,0.1,4.4-0.7c2.8-2.4,5.2-5.2,7.6-7.9C233.4,108.3,233.1,107.2,232.1,106.4z M187,79.2
		c-2.3-4.1-4.5-7.9-6.7-11.8c-5.3-9.3-10.6-18.6-15.8-27.9c-2.2-3.8,0.3-8.4,4.7-8.7c0.9-0.1,1.8-0.1,2.7-0.3c2-0.7,3.4,0.2,4.6,1.7
		c8,9.3,16,18.6,24,27.9c1.3,1.5,2.6,3.1,4.1,4.8C198.6,69.6,192.9,74.3,187,79.2z"/>
</g>
</svg>
