<?xml version="1.0" encoding="utf-8"?>
<!-- Generator: Adobe Illustrator 23.1.0, SVG Export Plug-In . SVG Version: 6.00 Build 0)  -->
<svg version="1.1" id="Layer_1" xmlns="http://www.w3.org/2000/svg" xmlns:xlink="http://www.w3.org/1999/xlink" x="0px" y="0px"
	 viewBox="0 0 250 250" style="enable-background:new 0 0 250 250;" xml:space="preserve">
<g>
	<path d="M218.5,212.3c-0.6-3.8-1.5-7.7-3-11.3c-2.8-6.9-6.1-13.5-9.2-20.3c-6.4-14.3-11.3-29.1-14-44.6c-1.1-6.4-1.8-12.9-2.5-19.4
		c-0.3-2.7-0.2-5.4-0.5-8c-0.4-4.7-1-9.4-1.5-14.1c-0.5-5.4-1-10.9-1.6-16.3c-0.9-8.3-3.5-16.2-7-23.6
		c-6.8-14.4-17.6-24.7-32.6-30.5c-10.2-4-20.7-5.2-31.6-3.5c-8.3,1.3-16,4.1-23.1,8.6C86.1,33,81.3,37.7,77,43.1
		c-4.8,6-7.9,12.8-10.5,19.9c-2,5.4-3.1,11-3.7,16.6c-0.8,6.9-1.4,13.9-2,20.8c-0.6,6.4-1,12.8-1.6,19.1c-0.4,4.5-0.8,9.1-1.7,13.6
		c-1.2,6.5-2.5,12.9-4.4,19.2c-2.3,7.7-5.1,15.4-7.9,22.9c-2.1,5.4-4.3,10.8-7,16c-3.3,6.5-6.5,13-7.4,20.4
		c-0.6,4.5-0.9,9.1-1.1,13.6c-0.1,3,1.6,4.8,4,4.9c2.7,0,4.1-1.5,4.3-4.7c0.2-3.6,0.2-7.2,0.6-10.7c0.7-6,2.2-11.9,7.1-15.9
		c3-2.4,6.3-4.6,9.8-6.2c8.2-3.7,16.7-7,25-10.4c11.3,14,26.3,19.9,43.7,19.9c17.6,0,32.5-6.3,43.8-20.3c0.9,0.4,1.7,0.8,2.4,1.1
		c7.9,3.2,15.8,6.3,23.6,9.7c4.2,1.8,8.1,4.3,11.2,7.8c4,4.5,5.2,10.2,5.7,16c0.3,3.2,0.3,6.3,0.5,9.5c0.1,2.3,1.2,3.7,3,4
		c3.1,0.6,5-1,5-4.5C219.2,220.9,219.1,216.6,218.5,212.3z M75.8,147.3c-1.9,9.8-3.7,19.6-7.1,29c-1,2.7-4.2,5-7.5,5.2
		c1.1-3.1,2.3-6,3.2-9.1c2.3-8.3,4.5-16.6,6.8-24.9c0.4-1.5,1.8-2.6,3.3-2.2C75.3,145.5,76.1,146,75.8,147.3z M86.9,177.3
		c1.7-0.8,3.4-1.7,5.1-2.5c3.5-1.8,4.2-5.6,6-8.6c1.1-1.8,1.9-3.7,2.9-5.8c2.4,1,4.8,2,7.2,3c11.9,4.6,23.7,4.1,35.3-1.1
		c0.5-0.2,1.1-0.4,1.6-0.7c2.9-1.3,2.8-1.3,4.2,1.6c1.4,3,2.8,6,4.5,8.8c0.7,1.1,2,1.9,3.1,2.6c1.5,1,3.1,1.7,4.8,2.6
		C140.7,201.4,100.7,196.1,86.9,177.3z M159.2,136c-4,8.2-9.5,14.8-17.8,18.9c-6.5,3.3-13.5,4.9-20.7,4
		c-12.1-1.5-22.4-6.6-28.7-17.6c-3.6-6.3-6-13.2-7.1-20.5c-0.5-3.5-0.4-7-0.5-10.5c0.2-5.3,0.1-10.6,1.8-15.8
		c1.5-4.5,4.7-7.6,8-10.5c10.2-9,21.2-17,32.7-24.4c2.1-1.3,4.3-2.5,6.2-4.1c1-0.9,1.8-2.4,2-3.8c1.1-5.9,2-11.8,2.9-17.7
		c0.3-1.8,1.7-2.7,3.5-2.3c1.6,0.4,2.3,1.6,2,3.3c-1.2,6.5-2.5,13-3.5,19.5c-0.2,1,0.6,2.5,1.3,3.3c2.9,3.2,6.4,5.9,9,9.3
		c5.4,6.9,9.1,14.6,10.9,23.2c1.2,5.9,2.6,11.8,3.1,17.7C165.1,117.7,163.5,127.1,159.2,136z M179.6,174c-1.8-8.8-3.9-17.6-5.9-26.4
		c-0.2-0.9-0.7-2.1,0.9-2.4c1.8-0.4,3.1,0.2,3.5,1.7c0.7,2.5,1.3,5,2,7.5c2.3,8.3,4.7,16.6,7,25c0.2,0.6,0.3,1.3,0.6,2.4
		C183.5,180.3,180.5,178.4,179.6,174z"/>
	<path d="M38.2,78.9c-1.6,3.3-3.4,6.4-4.6,9.7c-3.2,8.8-6.5,17.7-9.2,26.7c-2.3,7.7-4,15.6-5.6,23.5c-0.8,4.1-0.9,8.3-1.4,12.4
		c-0.3,2.4-0.7,4.7-1,7.1c-0.2,1.5-1.1,2.2-2.6,2.2c-1.5-0.1-1.6-1.1-1.7-2.3c-1.1-8-1.3-16-0.7-24c0.6-7.5,1.3-15,2.7-22.4
		c1.6-8.6,3.7-17.1,5.9-25.6c1.1-4.5,2.6-9,4.1-13.4c0.6-1.9-0.4-2.5-1.7-2.9c-1.8-0.5-3.7-0.7-5.5-1.2c-2.3-0.6-2.6-1.9-0.9-3.6
		c1.5-1.5,3.1-3,4.8-4.4c3.9-3.3,7.7-6.6,11.7-9.7c3.8-3,7.6-5.9,11.5-8.7c0.7-0.5,2-0.9,2.6-0.5c0.7,0.4,1.3,1.6,1.3,2.5
		c0.2,6.2,0.3,12.4,0.4,18.6c0.1,5.6,0.3,11.2,0.4,16.8c0,0.7-0.1,1.5-0.3,2.2c-0.7,2-1.8,2.3-3.5,1.2
		C42.6,81.8,40.5,80.5,38.2,78.9z"/>
	<path d="M225.6,71.2c2.4,7.9,4.9,15.5,6.9,23.2c1.8,7.1,3.3,14.4,4.5,21.7c1,6.6,1.6,13.3,2,20c0.3,5.2,0.1,10.4,0,15.6
		c-0.1,2.3-0.5,4.5-0.8,6.8c-0.2,1.1-0.8,2.2-2.1,1.9c-0.7-0.1-1.5-1.2-1.6-1.9c-0.8-5.3-1.2-10.7-2.1-16c-1-5.7-2-11.3-3.6-16.8
		c-2.5-9-5.3-18-8.2-26.9c-2.2-6.8-4.7-13.5-8.7-19.7c-2.4,1.4-4.8,2.8-7.2,4.1c-1.7,0.9-2.6,0.5-2.6-1.4C202,75.2,202,68.6,202,62
		c0-4.1,0.1-8.2,0.2-12.3c0-1.8,0.1-3.7,0.2-5.5c0.2-2.5,2-3.4,3.9-1.9c5.9,4.5,11.7,9,17.5,13.5c3.4,2.7,6.7,5.7,10.1,8.5
		c1.1,0.9,1.8,2,1.2,3.1c-0.5,0.9-1.8,1.5-2.8,1.9c-1.5,0.5-3.2,0.7-4.8,1.1C226.8,70.5,226.3,70.9,225.6,71.2z"/>
</g>
</svg>
