<?xml version="1.0" encoding="utf-8"?>
<!-- Generator: Adobe Illustrator 23.1.0, SVG Export Plug-In . SVG Version: 6.00 Build 0)  -->
<svg version="1.1" id="Layer_1" xmlns="http://www.w3.org/2000/svg" xmlns:xlink="http://www.w3.org/1999/xlink" x="0px" y="0px"
	 viewBox="0 0 64 64" style="enable-background:new 0 0 64 64;" xml:space="preserve">
<style type="text/css">
	.st0{fill:none;stroke:#000000;stroke-width:0.5;stroke-miterlimit:10;}
</style>
<g>
	<path class="st0" d="M26.9,19.1c1.3,4.9,0,9.5-2.9,10.3c-2.9,0.8-6.4-2.5-7.7-7.4c-1.3-4.9,0-9.5,3-10.3
		C22.1,10.9,25.6,14.2,26.9,19.1z"/>
	<path class="st0" d="M28.8,18.5c0,0.1,0.1,0.2,0.1,0.3c-0.1-0.3-0.2-0.7-0.3-1c0.1,0.2,0.1,0.3,0.2,0.5
		C28.8,18.4,28.8,18.4,28.8,18.5z"/>
	<path class="st0" d="M26.9,19.1c1.3,4.9,0,9.5-2.9,10.3c-2.9,0.8-6.4-2.5-7.7-7.4c-1.3-4.9,0-9.5,3-10.3
		C22.1,10.9,25.6,14.2,26.9,19.1z"/>
	<path class="st0" d="M28.6,17.8l0-0.1c0-0.1-0.1-0.3-0.1-0.4c-0.9-2.7-2.4-6.4-4.9-9.5C22.4,6.3,21.1,5,19.9,4c0,0-0.1-0.1-0.1-0.1
		c-0.6-0.4-1.4-0.4-1.9,0.1c-0.5,0.5-0.6,1.4-0.1,1.9c0,0,0,0,0,0c0,0,0,0.1,0.1,0.1c0,0,0,0,0.1,0.1l3.3,3.5
		c-0.8-0.2-1.7-0.2-2.6,0.1c-4.1,1.1-6,6.7-4.4,12.7c1.6,6,6.1,9.9,10.1,8.8c1.2-0.3,2.1-1,2.9-1.9c0,0,0,0,0-0.1
		c1.9-2.3,2.5-6.2,1.5-10.3l0-0.1C28.8,18.5,28.7,18.2,28.6,17.8z M23.9,29.3c-2.9,0.8-6.4-2.5-7.7-7.4c-1.3-4.9,0-9.5,3-10.3
		c2.9-0.8,6.4,2.5,7.7,7.4C28.2,23.9,26.9,28.5,23.9,29.3z"/>
	<path class="st0" d="M28.4,17l0.5,1.9c-0.1-0.3-0.2-0.7-0.3-1l0-0.1C28.5,17.5,28.5,17.2,28.4,17z"/>
	<path class="st0" d="M32,30.4L30.2,37l-2.8-7.7c1.9-2.3,2.5-6.2,1.5-10.3L32,30.4z"/>
	<path class="st0" d="M32.1,37.8c-0.5,0-0.8-0.4-0.8-0.8c0-0.5,0.4-0.8,0.8-0.8c0.4,0,0.8,0.4,0.8,0.8
		C32.9,37.4,32.5,37.8,32.1,37.8z"/>
	<path class="st0" d="M38.9,58.2c-0.1,0-0.1,0.1-0.2,0.1c-0.1,0-0.2,0-0.2,0c-0.3,0-0.5-0.2-0.6-0.5l-0.1-0.2L32,41.8l1.8-4.8
		l5.4,20.3C39.3,57.7,39.2,58,38.9,58.2z"/>
	<path class="st0" d="M47.7,22c-1.3,4.9-4.8,8.2-7.7,7.4c-2.9-0.8-4.3-5.4-2.9-10.3c1.3-4.9,4.8-8.2,7.7-7.4
		C47.7,12.5,49,17.1,47.7,22z"/>
	<path class="st0" d="M47.7,22c-1.3,4.9-4.8,8.2-7.7,7.4c-2.9-0.8-4.3-5.4-2.9-10.3c1.3-4.9,4.8-8.2,7.7-7.4
		C47.7,12.5,49,17.1,47.7,22z"/>
	<path class="st0" d="M45.3,9.8c-5.9-1.6-8.9,4.8-9.7,7.6c0,0.1-0.1,0.3-0.1,0.4l0,0.1c-0.1,0.4-0.2,0.7-0.3,1l0,0.1
		c-1,4.1-0.4,8,1.5,10.3c0,0,0,0,0,0.1c0.8,1,1.8,1.6,2.9,1.9c4.1,1.1,8.5-2.8,10.1-8.8C51.3,16.5,49.4,10.9,45.3,9.8z M47.7,22
		c-1.3,4.9-4.8,8.2-7.7,7.4c-2.9-0.8-4.3-5.4-3-10.3c1.3-4.9,4.8-8.2,7.7-7.4C47.7,12.5,49,17.1,47.7,22z"/>
	<path class="st0" d="M35.1,19L32,30.4L30.2,37l-5.5,20.4c-0.1,0.3,0,0.7,0.3,0.9c0.1,0,0.1,0.1,0.2,0.1c0.1,0,0.2,0,0.2,0
		c0.3,0,0.5-0.2,0.6-0.5l0.1-0.2l5.8-16l1.8-4.8l2.8-7.7C34.7,27,34.1,23.1,35.1,19z M32.1,37.8c-0.5,0-0.8-0.4-0.8-0.8
		c0-0.5,0.4-0.8,0.8-0.8c0.4,0,0.8,0.4,0.8,0.8C32.9,37.4,32.5,37.8,32.1,37.8z"/>
	<path class="st0" d="M32.9,36.9c0,0.5-0.4,0.8-0.8,0.8c-0.5,0-0.8-0.4-0.8-0.8c0-0.5,0.4-0.8,0.8-0.8
		C32.5,36.1,32.9,36.5,32.9,36.9z"/>
	<path class="st0" d="M32.9,36.9c0,0.5-0.4,0.8-0.8,0.8c-0.5,0-0.8-0.4-0.8-0.8c0-0.5,0.4-0.8,0.8-0.8
		C32.5,36.1,32.9,36.5,32.9,36.9z"/>
</g>
</svg>
