<?xml version="1.0" encoding="utf-8"?>
<!-- Generator: Adobe Illustrator 23.1.0, SVG Export Plug-In . SVG Version: 6.00 Build 0)  -->
<svg version="1.1" id="Layer_1" xmlns="http://www.w3.org/2000/svg" xmlns:xlink="http://www.w3.org/1999/xlink" x="0px" y="0px"
	 viewBox="0 0 250 250" style="enable-background:new 0 0 250 250;" xml:space="preserve">
<style type="text/css">
	.st0{fill:#FEFEFE;}
</style>
<g>
	<g>
		<path d="M224.9,223.3c-1.3-10.6-6.4-18.8-15.1-25c-3.7-2.5-7.7-4.3-12.1-5.6c0.6-0.3,1-0.4,1.4-0.5c14-3.9,22.2-15.4,22.7-29.9
			c0.3-6.4-1-12.7-2.9-18.8c-2.5-8.1-5.8-15.8-8.5-23.8c-2.8-8.5-5-17.2-7.7-25.9l-2.5-12.7l-1.1-5.4c-1.1-1.8-1.9-3.4-2.9-4.8
			c-2.3-3.5-3.9-7.3-6.9-10.3c-4.4-4.5-10.1-7.2-16.2-8.7c-3.8-0.9-7.4-1.5-10.9-3.7c-3.2-1.9-7.1-2.3-10.7-2.6
			c-8.6-0.8-17-0.3-25.1,2.8c-12,4.4-21.1,12.5-28.1,23c-5.8,8.5-9.1,18.2-11.7,28c-2.5,9.2-4.7,18.4-7.3,27.5
			c-2.3,7.7-5.7,15.1-8.6,22.6c-2.4,6.2-3.5,12.6-2.1,19.3c2.3,11.2,9.2,18.5,19.7,22.7c1.9,0.8,3.9,1.1,5.8,1.8
			c-0.3,0.3-0.4,0.3-0.6,0.4c-16,5.4-25.6,19.2-25.1,36.1c0,1,0.4,1.9,1,2.6c1,0.9,2.1,0.8,3.3,0.8c49.1,0,98.2,0,147.4,0
			c0.8,0,1.5,0,2.3,0c1.9-0.1,3-1.1,3-3C225.3,227.8,225.2,225.5,224.9,223.3z M179.8,194c-3.9,4.9-9.2,7.6-15,9.5
			c-7.9,2.6-16.3,3.4-24.6,2.4c-8.2-1-16-2.9-22.8-7.7c-1.9-1.3-3.5-2.9-5-4.8c7.7-4,11.1-10.6,11.1-19.4c7.3,4.4,15,6.7,23.3,6.7
			c8.3,0,16-2.4,23.1-6.8c0.5,2.6,0.5,5.2,1.3,7.7c1.4,4.7,4.2,8.2,8.3,10.6C180.6,192.7,180.4,193.1,179.8,194z M189.1,128.6
			c-0.5,6.1-1.8,11.9-4,17.4c-5.4,13.1-14.3,22.8-28.3,26.9c-12.6,3.7-24.1,0.9-34.2-7.2c-10.1-8.1-15.3-18.9-17.5-31.4
			c-0.6-3.9-1-7.8-0.9-11.7c0-1.8,0-3.5,0-5.3c0-1.3,0.5-1.8,1.6-2.1c11-3.3,21.3-7.8,30.8-14.4c7.7-5.4,14.1-12.1,19.8-19.4
			c0.8-1,1.6-2,2.5-2.9c0.5-0.5,1.1-0.8,1.8-0.1c7.7,6.9,15.3,13.8,21.1,22.5c3.4,5,6.2,10.5,7.3,16.5
			C189.6,121.1,189.5,124.9,189.1,128.6z"/>
	</g>
	<g>
		<path d="M73.5,59.5c-1-0.6-2.6-0.2-3.3,0.9c-0.6,0.9-0.3,2.8,0.9,3.2c1.3,0.8,2.4,0.4,3.1-0.8C75,61.6,74.5,60.2,73.5,59.5z"/>
		<path d="M110.4,38.3c-0.3-0.7-1-0.7-1.7-0.5c-0.5,0.1-1,0.3-1.4,0.4c-5.8,2.5-11.5,5.4-17.4,8.1c-5.7,2.7-11.3,5.5-17,8.2
			c-0.6-3.7-1.2-7.3-1.8-10.9c5.5-0.7,9.6-3.1,11.8-8.4c3-7.2-1.3-15.8-8.8-17.9c-6.5-1.7-13.7,1.3-16.4,8.7
			C55.3,32.8,59,40.7,65.8,43c0.3,0.1,0.5,0.3,0.6,0.6c0.8,4.2,1.4,8.3,2.2,12.4c0.1,0.4,0,0.6-0.2,0.9c-1.4,1.3-2.1,3-2.4,4.7
			c-0.1,0.4-0.2,0.7-0.6,0.8c-2.9,1.3-5.8,2.8-8.8,4.2c-0.4,0.2-0.8,0.1-1.1-0.2c-1.5-1.6-3.4-2.5-5.5-3.1c-5.9-1.6-11.9,0.9-15,5.8
			c-1.8,2.9-2.4,6-1.9,9.4c0.1,0.6-0.1,0.8-0.5,1c-1.3,0.5-2.7,1.1-4,1.8c-1,0.5-2.2,0.8-3.1,1.5c-1.3,1-1.1,2.4,0.2,3.3
			c0.9,0.6,1.8,0.2,2.8-0.2c1.9-0.8,3.7-1.7,5.5-2.5c0.5-0.3,0.8-0.1,1,0.3c1,1.8,2.5,3.2,4.2,4.3c3.2,1.9,6.8,2.5,10.4,1.5
			c4.6-1.2,7.7-4.2,9.3-8.8c1.2-3.3,0.8-6.4-0.4-9.6c-0.1-0.3-0.2-0.4,0.1-0.7c2.6-1.2,5.1-2.4,7.9-3.7c0.1,1.4,0.3,2.6,0.4,4
			c0.1,1,0.5,1.2,1.4,0.7c0.2-0.1,0.3-0.3,0.6-0.4c2.2-1.6,4.4-3.3,6.6-4.9c10.5-7.9,21.2-15.8,31.7-23.7c0.8-0.7,1.8-1.4,2.6-2.1
			C110.4,39.8,110.7,39.2,110.4,38.3z M54.3,81c-2.5,4.3-8.4,6-12.6,3.3c-3.8-2-6.3-7.4-3.4-12.6c2.5-4.4,8.4-6.1,12.9-3.4
			C55.4,70.9,56.8,76.7,54.3,81z M62.4,25.8c2.6-4.5,8-6.2,12.6-3.5c5,2.9,5.7,9,3.4,12.7c-2.3,4.3-8.2,5.9-12.6,3.4
			C61.8,36.2,59.7,30.4,62.4,25.8z M74.3,62.8c-0.7,1.2-1.8,1.5-3.1,0.8c-1.2-0.4-1.4-2.2-0.9-3.2c0.6-1.1,2.1-1.5,3.3-0.9
			C74.5,60.2,75,61.6,74.3,62.8z"/>
		<path d="M75.8,70.8c-0.5,11.3-1.1,22.5-1.5,33.8c0,0.5-0.1,1-0.1,1.4c-0.5,0.5-0.9,0.7-1.6,0.6c-0.7-0.1-1-0.6-1.1-1.2
			c-0.3-1.6-0.6-3.3-0.9-4.9c-1.1-8-2.3-16.1-3.2-24.2c-0.1-0.6,0.1-1.1,0.6-1.4c2.1-1.5,4.3-3.2,6.5-4.7c0.3-0.2,0.5-0.6,1.1-0.3
			C76,70,75.8,70.4,75.8,70.8z"/>
		<path class="st0" d="M74.3,62.8c-0.7,1.2-1.8,1.5-3.1,0.8c-1.2-0.4-1.4-2.2-0.9-3.2c0.6-1.1,2.1-1.5,3.3-0.9
			C74.5,60.2,75,61.6,74.3,62.8z"/>
	</g>
</g>
</svg>
