<?xml version="1.0" encoding="utf-8"?>
<!-- Generator: Adobe Illustrator 23.1.0, SVG Export Plug-In . SVG Version: 6.00 Build 0)  -->
<svg version="1.1" id="Layer_1" xmlns="http://www.w3.org/2000/svg" xmlns:xlink="http://www.w3.org/1999/xlink" x="0px" y="0px"
	 viewBox="0 0 250 250" style="enable-background:new 0 0 250 250;" xml:space="preserve">
<g>
	<path d="M119.4,126.6c-0.4-1.8-0.9-3.7-1.3-5.5c-2.7-10.3-8-19-15.6-26.4c-0.5-0.4-0.9-1.1-1-1.7c-0.5-2.5-0.7-5.1-1.3-7.6
		c-2.2-9.3-8.4-14.9-17.1-17.9c-4.6-1.6-9.5-1.5-14.3-1.1c-3.1,0.2-6.4,0.6-9.2,1.7C50,71.7,44.5,78.7,43,88.6
		c-0.5,3.7-1.6,6.6-4.4,9.2c-1.9,1.7-3.1,4.2-4.6,6.4c-1.8,2.6-4,5-5.1,7.9c-1.8,4.7-2.9,9.7-4.2,14.6c-0.2,0.8-0.3,1.7-0.3,2.6
		c-0.1,2.7,0,5.5-0.2,8.2c-0.3,4.6-0.9,9.2-0.9,13.8c-0.1,17.7-0.1,35.4-0.1,53c0,5.9,0,11.8,0,17.7c0,1.7,1.1,3.1,2.8,3
		c1.4,0,2.7-0.6,3.1-2.3c0.2-0.9,0.3-1.8,0.3-2.6c0-25.1,0-50.1,0.1-75.2c0-5.4,0.4-10.8,1.1-16.1c1.1-8.6,4.6-16.3,9.4-23.5
		c0.5-0.7,1.2-1.3,1.9-2c0.5,0.9,0.5,1.7,0.5,2.4c-0.1,10.9-0.4,21.7-0.3,32.6c0,4.5,0.4,9,1.1,13.4c1.6,9.8,7.7,16,16.7,19.4
		c4.7,1.8,9.9,2,15,1.8c5.7-0.3,11-1.7,15.5-5.2c4.8-3.7,8.8-8.2,9.9-14.3c0.9-4.9,1.5-10,1.6-15.1c0.2-10.9,0.1-21.7,0.1-32.6v-2.1
		c0.2-0.1,0.3-0.1,0.5-0.2c3.5,4.7,6.7,9.6,8.6,15.2c1.4,4.1,2.4,8.4,3.4,12.6c0.3,1.4,0.8,1.9,2.2,1.3
		C118.4,131.5,119.9,128.8,119.4,126.6z M90.7,158.5c-3.5,4.1-7.8,6.8-13.1,7.8c-4.5,0.8-9.1,0.8-13.5-0.3
		c-5.5-1.4-9.8-4.4-13.1-9.9c3.8-1.1,7.2-2.4,10.6-3c7.3-1.1,14.7-1.3,22,0.4c2.2,0.5,4.4,1.6,6.5,2.4
		C91.5,156.4,91.7,157.3,90.7,158.5z M95.4,138.9c0,3.9-0.5,7.8-0.8,11.8c-15.2-6.2-30-6.5-45.4-0.2c-0.3-1.3-0.9-2.6-0.9-3.9
		c-0.2-8.6-0.4-17.2-0.5-25.9c0-2.4,0.1-4.7,0.1-7.1c0.1-5.8,0.1-11.5,0.4-17.3c0.2-4.5,0.7-9.1,2.7-13.2c3-6.1,8.3-9.2,14.8-10.3
		c5.2-0.9,10.4-0.8,15.5,0.8c6.9,2.2,11.5,6.6,13,13.7c0.9,4.1,1.2,8.4,1.2,12.6C95.7,113,95.6,126,95.4,138.9z"/>
	<path d="M226.9,50.7h-0.4v-3.2c0-3.7-0.5-4.4-4.1-5.1c-2.5-0.5-5.1-0.8-7.6-1.1c-12.3-1.6-22.7-7.1-32-14.9c-2-1.6-5.5-1.7-7.3,0
		c-8.4,7.6-18.4,12.1-29.4,14.5c-3.9,0.8-8,1.1-12,1.6c-2.7,0.3-3.8,1.4-3.8,4.2c0,3.7,0,7.4,0,11.1c0,3.3,0,6.5,0,9.8
		c0,6.6,1,13.1,2.5,19.5c2.9,12.1,8.8,22.7,17.1,31.9c7.5,8.3,16.6,14.4,26.6,19.2c1,0.5,2.5,0.6,3.4,0.2
		c12.5-5.6,23-13.6,31.4-24.5c7.3-9.5,12.1-20.1,13.8-31.9c0.9-6.3,1.3-12.7,1.7-19.1C227.1,58.7,226.9,54.7,226.9,50.7z
		 M219.9,51.8c-0.1,7,0,14-0.4,21c-0.8,14.8-6.1,28-15.9,39.2c-6.2,7.1-13.2,13.1-21.5,17.5c-2.4,1.3-4.6,1.4-7.1,0
		c-12-6.9-21.9-16-28.8-28.2c-4.1-7.2-6.8-14.8-7.9-23.1c-1.1-8.8-1.5-17.5-1.4-26.3c0-0.9,0.2-1.7,0.4-2.8
		c11.3-0.6,21.8-3.6,31.5-9.1c3-1.7,5.8-3.9,8.5-5.9c1.3-0.9,2.2-1,3.5-0.1c6.6,5.1,13.6,9.4,21.5,12.2c4.7,1.6,9.5,2.6,14.5,2.6
		C219.7,48.8,219.9,48.9,219.9,51.8z"/>
	<path d="M142.9,118.5c-3.5,4.5-7.1,9.1-10.6,13.7c-8.8,11.3-17.6,22.7-26.4,34c-4.5,5.7-8.9,11.5-13.4,17.2c-1.7,2.1-4.7,2.1-6.3,0
		c-1-1.3-0.5-2.5,0.4-3.6c4.6-5.9,9.1-11.8,13.7-17.7c7.6-9.7,15.1-19.5,22.7-29.2c4.4-5.6,8.9-11.2,13.3-16.8c2-2.5,4-2.3,5.6,0.5
		C142.1,117.1,142.4,117.7,142.9,118.5z"/>
	<path d="M120.2,155.5c0.4,2.5,1,4.5,1,6.4c0.1,19.7,0,39.4,0,59.1c0,2.4-0.9,3.4-2.9,3.3c-2.3,0-3.3-1-3.3-3.4
		c0-19.6,0-39.3,0-58.9C115.1,158.9,117.7,157.7,120.2,155.5z"/>
	<path d="M71.7,215.1c-4.4-0.5-9.5-1.1-14.6-1.8c-3-0.4-4.1-2.5-3.1-4.6c0.6-1.2,1.4-1.6,2.8-1.3c7.2,1.5,14.4,2.1,21.7,1.4
		c2.9-0.3,5.7-0.7,8.6-1.2c1.6-0.3,2.8-0.2,3.2,1.6c0.4,2.2-0.5,3.7-2.4,4.1c-1.5,0.3-3,0.6-4.5,0.8
		C79.8,214.4,76.1,214.7,71.7,215.1z"/>
	<path d="M201.6,81.3c-0.4,0.7-1.7,1-2.6,1c-5,0.1-10,0.1-15.1,0c-1.6,0-2.1,0.6-2.1,2.1c0.1,3,0,6,0,9c0,2.9,0,5.7,0,8.6
		c0,2-0.9,2.9-2.9,2.9c-2.5,0.1-3.6-0.6-3.6-2.8c-0.1-5.7-0.1-11.3-0.1-17c0-2.8,0-2.8-2.7-2.8c-4.7,0-9.4,0-14.1,0
		c-2.1,0-3-0.9-3-3c0-2.2,1.1-3.5,3-3.5c4.9,0,9.8-0.1,14.7,0c1.7,0,2.2-0.5,2.1-2.2c-0.1-4.8,0-9.5,0-14.3c0-2.2,1.2-3.4,3.4-3.4
		c2.1,0,3.2,1.2,3.2,3.3c0,4.9,0,9.8,0,14.7c0,1.4,0.4,1.9,1.9,1.9c5.1-0.1,10.2,0,15.3,0c1.6,0,2.9,0.7,3.2,2.1
		C202.4,79,202.2,80.4,201.6,81.3z"/>
</g>
</svg>
