<?xml version="1.0" encoding="utf-8"?>
<!-- Generator: Adobe Illustrator 23.1.0, SVG Export Plug-In . SVG Version: 6.00 Build 0)  -->
<svg version="1.1" id="Layer_1" xmlns="http://www.w3.org/2000/svg" xmlns:xlink="http://www.w3.org/1999/xlink" x="0px" y="0px"
	 viewBox="0 0 250 250" style="enable-background:new 0 0 250 250;" xml:space="preserve">
<g>
	<path d="M88.6,41.1c-0.5,4.2-0.9,8.2-1.4,12.4c-23.5,0.4-35.6,14.2-41.4,35.3c0.1,0.1,0.2,0.2,0.3,0.3c1.6-2.4,3.2-4.8,4.8-7.2
		c4-6,8.4-11.8,14.1-16.4c6.2-5.1,13-8.4,21.2-8.1c0.3,0,0.6,0,1,0.1c0.1,1.5,0.3,2.9,0.4,4.3c0.1,1.6,0.2,3.3,0.4,4.9
		c0.1,1.7-0.1,3.1-1.2,4.5c-3.1,4.2-6.9,7.7-11,10.8c-5.6,4.3-11.4,8.4-17.3,12.3c-5.4,3.6-8.9,8.4-10.6,14.7
		c-0.3,1-1.1,1.9-1.6,2.8c-0.6-0.8-1.2-1.5-1.7-2.4c-0.7-1.2-1.4-2.3-3-2.3c-1.6,0-2.3,1.2-3,2.4c-1.4,2.6-1.1,5.2-0.4,8
		c0.8,3.3,1.9,6.5,4.4,8.8c1,0.9,2.4,1.5,3.8,1.8c1.1,0.3,1.9,0.6,2.2,1.8c2.2,8.4,6.7,15.3,13,21.2c5.9,5.5,12.7,9.3,20.8,10.2
		c9.9,1.1,18.9-1.4,26.7-7.7c7.6-6.1,12.7-13.8,15.5-23.2c0.2-0.7,0.8-1.6,1.4-1.7c2.7-0.8,4.3-2.6,5-5.1c0.9-3,1.8-6.1,2.1-9.3
		c0.3-2.6-0.5-5.3-2.5-7.8c-0.8,1.4-1.5,2.6-2.2,3.7c-0.4,0.6-1.1,1-1.7,1.5c-0.5-0.6-1.2-1.2-1.4-1.9c-0.7-2.1-1.1-4.4-1.8-6.5
		c-1.4-4.2-4.5-7.2-7.7-10.1c-4.9-4.4-9.9-8.7-14.5-13.3c-3.3-3.2-6.2-6.8-9.1-10.4c-0.6-0.7-0.5-2-0.6-3.1
		c-0.1-3.3-0.2-6.6-0.2-9.9c0-3.1,0.2-6.2,0.3-9.2c0.1-1.5,0.3-3,0.4-4.5c0-0.9,0.4-1.2,1.3-1.4c3.9-0.9,7.8-0.6,11.6,0.5
		c12.8,3.5,22.3,11.2,29,22.6c4.4,7.6,6.9,15.9,9,24.4c1.4,5.8,2.6,11.6,3.7,17.5c1.3,6.4,3.8,12.3,6.6,18
		c2.8,5.5,5.1,11.1,5.7,17.3c0.4,4.3-0.3,8.5-2,12.5c-1.3,3-2.7,6-4,9.1c-1.2,2.8-2.2,5.5-1.5,8.7c1,4.3,3.5,6.2,8,5.4
		c0.5-0.1,1,0.1,1.6,0.1c-0.1,0.5-0.1,1.1-0.3,1.6c-2,3.9-5.3,6-9.8,6.7c0.9,1.3,1.8,2.5,2.6,3.7c3,4.8,5.2,9.9,5.2,15.8
		c0,3.7-1.5,5.2-5.2,5.2c-44.6,0-89.2,0-133.8,0c-0.6,0-1.1-0.1-1.7-0.1c-2.2-0.3-3.2-1.4-3.4-3.7c-0.5-7.3,1.9-13.6,6.4-19.2
		c0.4-0.5,0.8-1,1-1.3c-2.5-1-5.1-1.8-7.4-3c-1.8-0.9-3.1-2.5-3.5-4.7c-0.2-1,0.1-1.4,1-1.2c6.2,1.6,8.6-3,8.8-7.5
		c0.2-3.9-1.5-7.3-3.2-10.7c-2.8-5.6-4.5-11.4-4-17.7c0.3-4.4,1.6-8.6,3.5-12.5c2.8-5.8,6-11.6,8.3-17.6c1.7-4.3,2.8-8.9,3.3-13.4
		c1.5-12.6,4.9-24.4,11.6-35.2C47.4,51.5,57.2,44,69.9,40.7C76.2,39.1,82.5,39.3,88.6,41.1z M119.2,177.5c-7.5-3.1-9.3-9.5-9.7-16.7
		C94.1,173.2,79,172,64.2,160.9c-0.6,3.2-1,6.5-1.9,9.6c-1,3.3-3.6,5.5-6.6,7.1c2,3.3,6.4,6.9,10.9,8.6c11.7,4.6,23.6,4.9,35.7,2
		C108.9,186.5,114.7,183.3,119.2,177.5z M140.5,180.6c0.1-0.3,0.1-0.4,0.1-0.4c-0.1-0.2-0.2-0.5-0.3-0.7c-1.1-3.2-1.3-6.5-0.8-9.9
		c0.7-4.2,2.6-7.9,4.3-11.7c2.7-6,3.5-12.3,2-18.7c-0.9-4-2.8-7.6-5.2-11.3c0,0.6-0.1,0.9-0.1,1.1c0.3,2.7,0.8,5.4,0.9,8.1
		c0.2,6.6-0.3,13.1-3,19.4c-1.8,4.3-3.3,8.8-3.1,13.6C135.7,174.3,137.3,177.7,140.5,180.6z M29.8,144.7c-0.8,5.3,0.7,10.2,2.4,15
		c2.3,6.7,2.6,13.2-1.6,19.4c-1.1,1.7-1.9,3.5-3,5.5c6.8-2.5,11-8.3,10.9-15.2c-0.1-4.7-1.4-9.1-3.5-13.3c-1.3-2.6-2.7-5.2-4-7.8
		C30.4,147.2,30.2,145.9,29.8,144.7z"/>
	<path d="M238.8,89c-0.8-5.9-3.3-10.7-7.8-14.5c-3.9-3.3-8.5-4.9-13.3-6.2c-10.6-2.8-21.4-4.2-32.1-6.2c-5.4-1-10.8-1.8-15.7-4.6
		c-3.9-2.2-8-4.1-12-6.2c-1.9-1-2.8-0.7-3.8,1.1c-3.7,6.7-7.3,13.4-10.9,20.1c-1.2,2.2-0.7,3.4,1.6,4.5c2.2,1,4.4,1.9,6.5,3
		c3,1.5,6,2.9,8.8,4.7c2.5,1.6,4.8,3.7,7.1,5.6c8,6.5,15.4,13.6,23.3,20.1c0.9,0.8,1.5,1.8,1.1,3.1c-0.8,2.6-1.6,5.2-2.4,7.8
		c-0.3,1-0.7,1.2-1.7,0.8c-2.5-0.8-3.7-0.3-4.7,2.1c-1.1,2.6-2.1,5.2-3.1,7.9c-1.2,3.2-0.1,5.2,3.4,6c-0.4,0.6-0.9,0.9-1.2,1.5
		c-1.1,2.8-2.4,5.6-3.3,8.5c-1.1,3.7-1.1,7.5,1.9,10.2c2.2,1.9,2.1,3.5,0.9,5.6c-0.2,0.4-0.3,0.8-0.4,1.2c-3,9.1-0.5,13.5,4.9,19.7
		c1,1.1,2.7,0.9,3.9-0.2c1.5-1.5,1.6-2.5,0.3-3.9c-1.3-1.4-2.4-2.9-3.3-4.6c-1.3-2.3-1.7-4.6-0.5-7.2c0.7-1.5,1.2-3.1,1.7-4.6
		c0.3-1.2,0.8-1.6,2-1.5c2.6,0.3,5.1,0,7.2-1.8c1.8-1.5,2.9-3.3,3.7-5.4c4.4-11.2,8.9-22.4,13.2-33.7c0.9-2.3,2.4-3.5,4.7-4
		c2.3-0.5,4.6-1.3,6.7-2.5C234.2,110.7,240.1,98.6,238.8,89z M162.1,78.9c-4.5-2.8,2.6-15.9,7-13.5
		C173.6,67.8,166.9,81.7,162.1,78.9z M214.1,104.2c-6.2,0-11-4.7-10.9-10.9c0-6.1,4.6-10.8,10.9-10.7c6.5,0.1,10.8,5.7,10.6,10.8
		C224.8,99.3,219.9,104.2,214.1,104.2z"/>
</g>
</svg>
