<?xml version="1.0" encoding="utf-8"?>
<!-- Generator: Adobe Illustrator 23.1.0, SVG Export Plug-In . SVG Version: 6.00 Build 0)  -->
<svg version="1.1" id="Layer_1" xmlns="http://www.w3.org/2000/svg" xmlns:xlink="http://www.w3.org/1999/xlink" x="0px" y="0px"
	 viewBox="0 0 250 250" style="enable-background:new 0 0 250 250;" xml:space="preserve">
<g>
	<path d="M168.9,212c-0.2-3.2-0.5-6.4-1.1-9.6c-1.5-8.2-5.1-15.5-11.8-20.5c-3.4-2.6-7.4-4.4-11.3-6.1c-3-1.4-4.9-3.7-7.1-6.2
		c0.7,0.1,1,0,1.3,0.1c4,1,8,0.7,11.9-0.6c6.9-2.4,10.7-7.9,12.9-14.5c2.2-6.5,2.4-13.2,0-19.8c-1.8-5.2-5.2-9.2-10.4-11.7
		c6.6-4.8,9.2-11.1,7.8-18.8c-1.5-8-7.4-11.7-14.3-14.3c9.4-12.5,3.4-29.7-15-31.1c-0.1-1.4-0.2-2.7-0.3-4.1
		c-0.6-8-4.6-13.8-11.8-17.3c-4.5-2.1-9.2-3.2-14.2-3.6c-5.6-0.5-10.9,0-16,2.4c-0.5,0.2-1.3,0.3-1.8,0c-3-1.7-6.3-2.3-9.6-2.5
		c-6.4-0.4-12.7,0.5-18.7,2.9c-7.6,3-12.5,8.5-13.7,16.8c-0.3,1.8-0.3,3.7-0.4,5.5c-7.7,0.8-14.3,3.5-17.7,10.8
		c-3.4,7.1-2,14,2.6,20.3c-7.1,2.5-13,6.6-14.4,14.3c-1.4,7.5,0.9,14.1,7.7,18.6c-4.5,2.4-7.4,5.4-9.2,9.2
		c-3.2,6.8-3.4,13.9-1.4,21.1c1.4,5.1,3.9,9.7,8.1,13c4.4,3.4,9.5,4.6,15.1,3.7c0.9-0.1,1.8,0,2.7,0c-1.5,1.5-2.6,3.3-4.2,4.4
		c-2.3,1.6-4.9,2.9-7.5,4.1c-4.6,2.2-8.4,5.4-11.4,9.4c-5.4,7.2-6.9,15.7-7.1,24.4c0,2,1.5,3.4,3.5,3.6c1.9,0.2,3.4-1,3.9-2.9
		c0.2-0.8,0.2-1.6,0.3-2.4c0.3-5.3,1.4-10.4,3.7-15.1c2.5-4.9,6.7-8,11.5-10.6c6.5-3.4,14.1-4.2,19.9-8.8
		c10,11.1,22.7,16.2,37.2,16.3c14.7,0.1,27.2-5.2,37-16c3.1,1.4,6,2.8,8.9,4.1c4.6,2,9.4,3.6,13.8,5.9c5.6,2.9,9.5,7.5,11.2,13.7
		c1.1,4,1.5,8.2,2.1,12.4c0.4,2.6,1.4,3.6,4,3.6C167.6,215.7,169.1,214.3,168.9,212z M43.1,151.7c-0.6,6-4.5,9.9-10.8,10.2
		c-4.1,0.2-7.6-1.1-9.9-4.6c-0.7-1.1-1-2.3-1.6-3.7h4.3c1.9,3.9,6.6,5.6,10.3,3.6c3.2-1.8,5.2-5.8,1.9-10.7c-2.7,1-5.9-2.4-5.8-4.9
		C38.6,140.5,43.7,144.9,43.1,151.7z M58.3,171.5c5.8-3.8,8.2-9.9,10.8-16c12.8,6.7,25.6,6.8,38.5,0c2.4,6.2,4.8,12.2,10.7,15.9
		C107.1,187.6,73,189.9,58.3,171.5z M124.3,112c-0.3,2.6-0.6,5.2-1,7.8c-1.1,7.6-3.8,14.6-8.8,20.5c-5.8,6.7-13.2,10.7-21.9,12.2
		c-6.7,1.1-13.1-0.4-19.1-3.4c-9.7-4.8-15.5-12.9-18.5-23.2c-1.3-4.3-1.7-8.6-2.1-13c0-0.3-0.1-0.6-0.1-1c-0.3-1.7-0.2-3.2,0.8-4.7
		c2.8-4.6,3.8-9.5,2.5-14.9c-0.2-0.7,0.2-1.8,0.6-2.5c3.7-5.4,8.3-9.8,14-13c4.2-2.4,8.5-4.8,12.1-8.1c2.9-2.7,4.8-6.1,5.6-10
		c0-0.2,0.1-0.5,0.3-0.8c0.5,1.5,0.9,2.8,1.4,4.1c2,5.6,6.5,9,11.3,11.8c4.5,2.7,9.2,5.1,13,8.7c2.5,2.4,4.6,5.1,6.7,7.8
		c0.4,0.5,0.4,1.4,0.2,2.1c-1.3,5.1-0.6,9.9,2.2,14.3C124.4,108.5,124.6,110.1,124.3,112z M139.6,141.7c1.4-0.5,3.1-0.4,4.6-0.5
		c0.3,0,0.9,0.6,0.9,1c0,2.4-1.8,4.3-4.3,4.4c0-0.3,0.1-0.7,0.1-1c-0.1,0-0.2-0.1-0.3-0.1c-0.7,1.1-1.7,2.1-2.2,3.3
		c-1.7,4.6,1.5,8.9,6.4,9c3,0.1,5.1-1,6.6-3.6c0.2-0.3,0.7-0.6,1.1-0.7c1-0.1,1.9,0,3.2,0c-0.7,4.1-2.9,6.7-6.6,7.8
		c-4.2,1.3-8.2,0.8-11.5-2.1C131.1,153.4,133.7,144,139.6,141.7z"/>
	<path d="M236.6,200.3c0.4-0.2,0.6-0.4,0.9-0.5c4.1-2.6,4.6-5.2,3.7-9.1c-0.8-3.5-2.3-6.9-3.4-10.4c-4.9-15.3-9.8-30.5-14.7-45.8
		c-0.2-0.6-0.1-1.4,0.3-1.9c2.8-4.2,0.4-8.7-3.5-9.9c-0.5-0.2-1.1-0.7-1.3-1.2c-0.8-2.3-1.5-4.6-2.2-6.9
		c-3.8-12.2-7.7-24.3-11.5-36.5c-2.8-8.7-5.5-17.5-8.3-26.2c-0.3-1.1-1-2.4-1.9-2.9c-1.6-0.9-1.9-2.3-2.4-3.8
		c-0.2-0.8-0.6-1.6-0.8-2.4c-1.3-4.6-5.3-6.9-9.7-7c-6.9,0-10.9,6.2-9.6,12.4c0.5,2.6,1.5,5.1,2.3,7.6c2.2,6.9,4.3,13.8,6.5,20.8
		c3.2,10.2,6.4,20.3,9.6,30.5c0.2,0.5,0.1,1.3-0.2,1.8c-1.6,2.7-3.4,5.3-4.9,8c-4.5,8.3-6.6,17.2-5,26.5c1.3,7.1,3.7,14.1,5.7,21.1
		c0.6,2.2,3.4,3.3,5.6,2.7c2.9-0.9,4.1-3.7,3-7c-1.6-4.9-3.1-9.7-4.7-14.6c-0.1-0.5-0.3-1.1-0.1-1.5c1.8-3.1,3.8-6.1,5.7-9.2
		c0.2,0.1,0.3,0.1,0.5,0.2c0.5,2,1.7,3.4,3.6,4.3c0.5,0.2,1,0.8,1.1,1.4c3.2,9.8,6.3,19.6,9.4,29.4c2.8,8.8,5.6,17.7,8.3,26.5
		c0.8,2.5,2.1,4.7,4.7,5.6c1.7,0.5,3.6,0.5,5.7,0.8c0-0.1,0.1,0.2,0.2,0.4c1,3.2,2,6.4,3,9.5c0.6,2.1,2.1,3.3,4.1,3.2
		c1.9,0,3.6-1.2,3.8-3.1c0.2-1.2-0.3-2.6-0.7-3.9C238.6,206.4,237.6,203.4,236.6,200.3z M195.4,124.3c-2.5,3.5-5,7-7.6,10.5
		c-0.1,0.1-0.2,0.2-0.6,0.5c0.5-6.9,2.9-12.8,6.4-18.6c0.7,2.2,1.4,4.2,2,6.3C195.7,123.4,195.6,124,195.4,124.3z M203.8,127
		c-7.2-22.8-14.4-45.6-21.6-68.5c2.9-1,5.8-1.9,8.8-2.9c7.2,22.9,14.3,45.6,21.5,68.5C209.5,125,206.7,126,203.8,127z"/>
</g>
</svg>
