<?xml version="1.0" encoding="utf-8"?>
<!-- Generator: Adobe Illustrator 23.1.0, SVG Export Plug-In . SVG Version: 6.00 Build 0)  -->
<svg version="1.1" id="Layer_1" xmlns="http://www.w3.org/2000/svg" xmlns:xlink="http://www.w3.org/1999/xlink" x="0px" y="0px"
	 viewBox="0 0 250 250" style="enable-background:new 0 0 250 250;" xml:space="preserve">
<style type="text/css">
	.st0{fill:#FEFEFE;}
</style>
<g>
	<g>
		<path d="M143.7,68.5c-0.2-0.9-0.9-1.2-1.7-1.2c-0.6,0-1.1,0-1.7,0c-7.3,0.8-14.6,1.9-21.9,3c-7.2,1.1-14.4,2.2-21.7,3.3
			c0.6-4.3,1.1-8.4,1.7-12.6c6.3,1.2,11.7-0.1,15.9-5.2c5.8-7,4.1-17.9-3.6-22.8c-6.6-4.2-15.7-3.3-21,4c-4.9,6.6-3.5,16.5,3.3,21.4
			c0.4,0.3,0.5,0.5,0.5,0.9c-0.6,4.8-1.2,9.7-1.8,14.5c-0.1,0.5-0.2,0.7-0.6,0.9c-1.9,1-3.3,2.5-4.3,4.4c-0.2,0.4-0.5,0.7-1,0.7
			c-3.7,0.5-7.4,1.1-11.1,1.7c-0.6,0.1-1-0.1-1.2-0.5c-1.1-2.3-2.9-4-5-5.3c-6-3.8-13.4-3.1-18.5,1.2c-3,2.5-4.7,5.8-5.4,9.7
			c-0.1,0.7-0.4,0.8-0.9,0.9c-1.6,0.2-3.3,0.3-4.9,0.6c-1.3,0.2-2.7,0.1-3.9,0.6c-1.7,0.7-2.1,2.3-0.9,3.7c0.9,1,2,0.9,3.1,0.8
			c2.3-0.3,4.6-0.6,7-0.9c0.7-0.1,0.9,0.1,1,0.7c0.5,2.3,1.6,4.4,3.1,6.1c2.9,3.3,6.6,5.1,11,5.3c5.6,0.2,10-2,13.3-6.5
			c2.4-3.2,3.1-6.8,2.9-10.7c0-0.3-0.1-0.6,0.4-0.6c3.3-0.4,6.5-0.9,9.9-1.4c-0.3,1.6-0.6,3-0.9,4.5c-0.2,1.2,0.1,1.5,1.3,1.3
			c0.3-0.1,0.5-0.2,0.8-0.3c3-1.1,6-2.1,9-3.2c14.4-5.1,28.8-10.2,43.1-15.2c1.2-0.4,2.4-0.9,3.6-1.4
			C143.3,70.1,143.8,69.5,143.7,68.5z M67.1,96.5c-4.3,3.9-11.3,3.7-15.1-0.7c-3.5-3.4-4.4-10.3,0.6-15.1c4.3-4.1,11.3-3.9,15.4,0.8
			C71.8,85.6,71.4,92.5,67.1,96.5z M95,38.2c4.4-4.1,11-4,15.2,0.5c4.6,4.9,3.3,11.9-0.5,15.2c-4,4-11.1,3.7-15.1-0.5
			C90.8,49.4,90.5,42.5,95,38.2z M95.4,83.2c-1.2,1.1-2.6,1-3.7-0.2c-1.2-0.8-0.9-2.9,0.1-3.8c1.1-1,2.9-1,3.9,0.1
			C96.7,80.4,96.6,82.1,95.4,83.2z"/>
		<path d="M94.4,92.5c-4.4,12.2-8.9,24.5-13.3,36.7c-0.2,0.5-0.4,1-0.6,1.5c-0.7,0.4-1.3,0.5-1.9,0.2c-0.7-0.3-0.9-1-0.8-1.7
			c0.2-1.9,0.5-3.8,0.8-5.6c1.5-9.3,3-18.6,4.7-27.8c0.1-0.7,0.4-1.2,1.2-1.4c2.9-1,5.9-2,8.8-3c0.4-0.1,0.8-0.4,1.3,0
			C94.9,91.7,94.5,92.1,94.4,92.5z"/>
	</g>
	<g>
		<path d="M136.7,164.5c0,2.9-2.8,6-5.4,5.8c-3.3-0.3-5.3-2.4-5.4-6.1c-0.1-3.1,2.5-5.8,5.4-5.9
			C134.2,158.3,136.7,161.1,136.7,164.5z"/>
		<path d="M170.2,189.3c-3.4,4.1-7.6,6.8-12.9,7.8c-1.5,0.3-3.1,0.3-4.6,0.4c-6.1-0.1-11.6-1.8-16-6.3c-0.7-0.7-1.4-1.6-1.9-2.5
			c-0.8-1.3-0.5-3.2,0.5-3.9c1-0.7,2.8-0.5,3.9,0.6c1.4,1.4,2.7,2.7,4.4,3.7c6.8,4.1,17.3,2.8,21.8-3.9c1-1.4,2.6-1.5,4.1-0.5
			C171,186,171.4,187.9,170.2,189.3z"/>
		<path d="M173.3,169.9c-3,0-5.4-2.7-5.4-6c0-3.2,2.4-5.8,5.5-5.7c2.7,0,5.2,2.4,5.4,6C179,167.2,176.3,169.9,173.3,169.9z"/>
		<path d="M216.7,164c-0.6-4.6-2.4-8.6-6.5-11.2c-0.6-0.4-0.4-0.6-0.3-1c1-4.4,1.3-8.9,1.2-14c0-2.4,0-5.3-0.5-8.2
			c-1.2-7.1-3.5-13.8-8.2-19.4c-4.2-5-9.5-8-16.1-8.3c-0.7,0-1.1-0.2-1.4-0.8c-1.4-2.5-3.5-4.3-5.8-6c-6.7-4.7-14.2-6.6-22.2-7.3
			c-8.7-0.7-17.2,0.5-25.4,3.4c-14.9,5.3-26,14.9-32.7,29.3c-2.5,5.4-4,11.1-4.6,17.1c-0.4,4.1-0.4,8.2,0,12.4
			c0.1,1.4,0.5,2.8-1,3.9c-1.8,1.4-2.8,3.5-3.6,5.6c-2.1,6.1-1.1,11.9,2.1,17.3c2.8,4.7,6.2,8.8,11.8,10.3c0.7,0.2,0.8,0.7,1,1.1
			c4.5,8.3,10.3,15.6,18,21.2c14.6,10.3,30.4,12.9,47.3,6.9c13.5-4.8,23.3-14.2,30.1-26.6c0.8-1.5,1.8-2.4,3.4-3.1
			C211.2,183.5,217.7,172.5,216.7,164z M202.9,179.6c-1.4,1-3,1.6-4.8,1.6c-0.8,0-1.1,0.3-1.4,1c-3.3,6.9-7.6,13.1-13.3,18.3
			c-7.1,6.5-15.2,10.8-24.8,12c-15.2,1.9-28-3.1-38.7-13.8c-4.9-4.9-8.6-10.7-11.5-16.9c-0.3-0.7-0.6-1-1.3-0.9
			c-2.9,0.4-5.1-1-6.9-3.1c-3.6-4.2-6-8.7-5.1-14.5c0.4-2.8,1.5-4.2,3.7-4.8c1.1-0.3,1.9,0.3,2.8,0.5c1.8,0.4,2.5,0.2,2.8-1.6
			c0.7-4.1,1.7-8.1,3.7-11.8c1.6-3,3.8-5.6,6.8-8.1c-1,3.3-1,6.3-1.4,9.3c-0.3,2.4,1.8,4,4.4,3.4c7.8-1.6,15.1-4.4,21.9-8.5
			c0.2-0.1,0.5-0.3,0.7-0.4c0.5,0.7-0.1,1.2-0.3,1.6c-0.8,1.6-1.8,3.1-2.7,4.7c-1.1,2-0.2,3.8,2.1,3.6c4.4-0.3,8.6-1.6,12.8-3
			c7.3-2.4,13.9-6.1,19.2-11.8c2.4-2.6,4.5-5.4,6.4-8.6c0.8,2.3,1.5,4.5,2.3,6.6c3.5,8.7,9.8,14.7,18.4,18.4
			c1.3,0.6,1.9,1.4,1.8,2.7c-0.1,0.7,0.1,1.3,0.3,1.9c0.5,1.6,1,1.9,2.7,1.5c1.3-0.3,2.6-1.1,4.1-0.3c1.7,0.9,2.2,2.4,2.5,4
			C211.4,169.5,207.3,176.5,202.9,179.6z"/>
		<path class="st0" d="M136.7,164.5c0,2.9-2.8,6-5.4,5.8c-3.3-0.3-5.3-2.4-5.4-6.1c-0.1-3.1,2.5-5.8,5.4-5.9
			C134.2,158.3,136.7,161.1,136.7,164.5z"/>
		<path class="st0" d="M170.2,189.3c-3.4,4.1-7.6,6.8-12.9,7.8c-1.5,0.3-3.1,0.3-4.6,0.4c-6.1-0.1-11.6-1.8-16-6.3
			c-0.7-0.7-1.4-1.6-1.9-2.5c-0.8-1.3-0.5-3.2,0.5-3.9c1-0.7,2.8-0.5,3.9,0.6c1.4,1.4,2.7,2.7,4.4,3.7c6.8,4.1,17.3,2.8,21.8-3.9
			c1-1.4,2.6-1.5,4.1-0.5C171,186,171.4,187.9,170.2,189.3z"/>
		<path class="st0" d="M173.3,169.9c-3,0-5.4-2.7-5.4-6c0-3.2,2.4-5.8,5.5-5.7c2.7,0,5.2,2.4,5.4,6
			C179,167.2,176.3,169.9,173.3,169.9z"/>
		<path d="M170.2,189.3c-3.4,4.1-7.6,6.8-12.9,7.8c-1.5,0.3-3.1,0.3-4.6,0.4c-6.1-0.1-11.6-1.8-16-6.3c-0.7-0.7-1.4-1.6-1.9-2.5
			c-0.8-1.3-0.5-3.2,0.5-3.9c1-0.7,2.8-0.5,3.9,0.6c1.4,1.4,2.7,2.7,4.4,3.7c6.8,4.1,17.3,2.8,21.8-3.9c1-1.4,2.6-1.5,4.1-0.5
			C171,186,171.4,187.9,170.2,189.3z"/>
		<path d="M136.7,164.5c0,2.9-2.8,6-5.4,5.8c-3.3-0.3-5.3-2.4-5.4-6.1c-0.1-3.1,2.5-5.8,5.4-5.9
			C134.2,158.3,136.7,161.1,136.7,164.5z"/>
		<path d="M173.3,169.9c-3,0-5.4-2.7-5.4-6c0-3.2,2.4-5.8,5.5-5.7c2.7,0,5.2,2.4,5.4,6C179,167.2,176.3,169.9,173.3,169.9z"/>
	</g>
</g>
</svg>
