<?xml version="1.0" encoding="utf-8"?>
<!-- Generator: Adobe Illustrator 23.1.0, SVG Export Plug-In . SVG Version: 6.00 Build 0)  -->
<svg version="1.1" id="Layer_1" xmlns="http://www.w3.org/2000/svg" xmlns:xlink="http://www.w3.org/1999/xlink" x="0px" y="0px"
	 viewBox="0 0 250 250" style="enable-background:new 0 0 250 250;" xml:space="preserve">
<g>
	<path d="M160,208.5c-0.5-3.5-1-7-1.9-10.3c-1-3.6-2.7-6.9-5.8-9.3c-0.7-0.6-1.5-1-1.9-1.4c0.1-1.1,0.5-2,0.3-2.7c-1-4-2-8-3.2-11.9
		c-2.6-8.7-5.9-17.2-7.7-26.1c-1.2-5.9-2-11.7-2-17.7c0-3-0.5-6.1-0.8-8.9c-1.6,1.1-3.1,2.3-4.7,3.1c-2.3,1.1-5.1-0.1-6.1-2.2
		c-2.3-4.6-4.7-9.2-7-13.8c-0.3-0.5-0.5-1-0.8-1.5c-0.4,0.6-0.4,1.1-0.5,1.6c-0.2,3.6-0.4,7.2-0.6,10.8c-0.2,6-1.6,11.8-2.8,17.6
		c-1.2,5.6-3,10.9-6.4,15.5c-4.2,5.6-9.7,9.7-16.3,12.3c-6.1,2.4-12.1,2.1-18.2-0.1c-4.5-1.7-8.3-4.3-11.8-7.5
		c-3.2-2.9-5.9-6.4-7.6-10.4c-2.2-5.1-3.4-10.4-4.4-15.8c-0.6-3.5-1.1-7-1.5-10.6c-0.4-4.3-0.7-8.6-0.9-12.9c0-0.8,0.3-2.1,1-2.5
		c6.5-4.1,13.2-7.9,19.7-12.2c4.7-3.1,9.1-6.6,13.5-10c1.6-1.3,2.9-2.9,4.4-4.4c7.2,11,18,17.3,29.3,23c-0.8-1.9-1.7-3.7-2.7-5.5
		c-2.3-4.3-4.6-8.5-6.7-12.9c-1.7-3.4-0.7-6,1.9-7.5c2.5-1.4,5.1-2.6,7.6-3.9c3.2-1.6,6.4-3.3,9.6-5c-0.2-0.4-0.2-0.6-0.3-0.7
		c-4-5.6-8.8-10.5-14.8-13.8c-10.4-5.7-21.6-8.1-33.4-7c-5.4,0.5-10.5,1.8-15.5,3.7c-8.4,3.3-15.3,8.5-20.7,15.7
		c-3.8,5-6.4,10.6-8.6,16.4c-2.8,7.6-3.9,15.5-4.9,23.5c-0.5,4.3-0.7,8.6-0.9,12.9c-0.3,4.8-0.4,9.6-0.6,14.4
		c-0.2,3.2-0.3,6.5-0.7,9.7c-0.7,5.5-1.4,11-2.7,16.4c-1.4,5.6-3.6,11-5.2,16.5c-1.2,4.2-2.2,8.5-3.2,12.8c-0.5,2.1-0.8,4.1-2.4,5.7
		c-2.7,2.8-4.1,6.3-4.6,10.1c-0.5,3.6-0.8,7.2-1.1,10.8c-0.2,2.1,1.3,3.7,3.2,3.7c1.4,0,2.7-1.8,2.9-3.6c0.4-4,0.7-8,1.7-11.9
		c1-4.2,3.3-7.7,7.3-9.7c4.8-2.4,9.7-4.8,14.7-6.9c3.2-1.4,6.6-2.3,10-3.2c0.4-0.1,1.2,0.2,1.6,0.6c1.9,2.2,3.5,4.7,5.5,6.8
		c7.8,8.4,17.9,11.6,28.9,12.2c3.9,0.2,7.8-0.5,11.7-1.2c8.1-1.3,15.1-4.8,20.9-10.6c2.2-2.2,3.8-4.9,5.6-7.4c0.7-1,1.3-1.3,2.4-0.7
		c1,0.5,2.1,0.9,3.1,1.3c6,2.4,12.2,4.6,18.1,7.4c5,2.4,8.8,6.4,10.1,12c0.9,4,1.3,8.1,1.8,12.2c0.3,2,1.2,3,3.1,3
		c1.6,0,2.8-1.3,2.8-3.1C160.3,211.7,160.3,210.1,160,208.5z M86.4,63.7c0-1.4,0-2.8,0-4.1c0-2.7,0.1-5.4,0.2-8.1
		c0.1-1.5,0.9-2.3,2.4-2.3c1.3,0,2.2,0.6,2.3,1.9c0.2,1.3,0.2,2.6,0.2,4c0,1.9-0.1,3.9-0.2,5.8c-0.1,4.3-0.2,8.7-0.3,13
		c0,0.9-0.3,1.3-1.3,1c-1.1-0.3-2.3-0.4-3.3-0.6C86.4,70.9,86.4,67.3,86.4,63.7z M35.9,118.3c-0.1-5.3,2.3-8.4,5-9.1
		c0.1,3.2,0,6.4,0.5,9.6c0.4,3.2,1.4,6.3,2.3,9.6C39.7,127.3,35.9,122.7,35.9,118.3z M107.4,186.1c-6.1,5-13.1,7.4-20.8,8.1
		c-7.9,0.8-15.3-0.4-22.3-4.1c-4.6-2.4-8.5-5.7-11.1-10.4c-0.1-0.2-0.2-0.5-0.3-0.7c-0.1-0.2-0.1-0.4-0.1-0.6c4-1.6,7.3-3.6,8.9-7.7
		c0.5-1.3,0.7-2.6,0.8-4c0.2-1.7,0.3-1.8,1.9-1c3,1.4,6,3.1,9.2,4c9.6,2.8,18.7,1.3,27.3-3.9c0.6-0.3,1.1-0.6,2.1-1.2
		c-1.4,8.3,3.1,12.1,10.3,13.9C111.8,181.7,109.9,184.1,107.4,186.1z"/>
	<path d="M244.6,152.6c0-2.3-0.7-4.6-1.5-6.7c-2.1-5.1-6.2-8.2-11.3-10c0-3,0-5.9,0-8.8c0-1.2,0.3-2.4,0.3-3.6c0-2.3-1.7-4-3.8-3.7
		c-0.8,0.1-1.7,0-2.6,0c-0.1-0.7-0.2-1.3-0.3-1.9c-0.5-3.3-0.9-6.5-1.4-9.8c-0.8-5-1.6-10-2.3-15c-0.2-1.8-1.1-2.8-3-2.9
		c-1.8-0.1-3.6,0-5.4,0c-1.9,0.1-2.5,0.7-2.7,2.6c-0.1,1.2-0.2,2.3-0.4,3.5c-1.2,7.8-2.4,15.5-3.7,23.5c-1,0-2.1,0-3.1,0
		c-2.6,0-3.9,1.2-3.8,3.8c0.1,3.7,0.2,7.5,0.3,11.2c0,0.9-0.2,1.4-1.2,1.8c-7.3,3.4-11.3,8.9-11.3,17.3c0.1,17.6,0,35.3,0,52.9
		c0,1,0,2.1,0.1,3.1c0.5,4.3,3.8,7.9,8.6,7.8c10.4-0.2,20.8-0.2,31.2-0.3c3.1,0,6.1,0.1,9.2,0.2c4.1,0.2,8.4-4.9,8.4-8.7
		C244.6,190,244.7,171.3,244.6,152.6z M215.7,99.8c0.1-0.1,0.2-0.1,0.4-0.2c0.2,0.5,0.6,0.9,0.7,1.4c0.6,5,1.2,10.1,1.9,15.1
		c0.1,1.1,0.4,2.3,0.6,3.5h-6.3C213.8,112.9,214.7,106.3,215.7,99.8z M205.8,125.6h20.1v9.1h-20.1V125.6z M206.5,140.7
		c6.6-0.1,13.1-0.2,19.7,0c7.1,0.2,12.4,5.6,12.6,12.6c0,1.4,0,2.7,0,4.2h-45.6C191.5,148.1,197.9,140.8,206.5,140.7z M220.8,191.7
		c-5.9,3.6-13.3,0-14.3-6.9c-0.3-2.1,0-3.9,1-5.7c2.7-4.7,5.3-9.3,8.2-14.4c2.4,3.9,4.4,7.4,6.6,10.8c1.5,2.3,2.6,4.7,3,7.5
		C225.7,185.8,223.6,189.9,220.8,191.7z M238.8,208.9c0,1.9-1.9,3.2-3.8,2.8c-0.6-0.1-1.3-0.3-1.9-0.3c-7.2,0-14.5-0.1-21.7,0
		c-3.3,0-6.5,0.4-9.8,0.5c-2.2,0-4.3-0.2-6.5-0.5c-1.2-0.1-1.8-1.1-1.8-2.3c-0.1-2.7,0-5.3,0-8.1h45.6
		C238.8,203.7,238.9,206.3,238.8,208.9z"/>
	<path d="M236.7,53.4c-0.2-2.9-1.5-5.2-3.4-7.1c-3.2-3.4-6.7-6.6-10-10c-4.4-4.6-9.4-4.6-14.5-2.4c-8.8,3.8-18.1,6.1-27.5,7.9
		c-3.2,0.6-6.4,1.2-9.2,3.1c-3.5,2.4-7.1,4.8-10.4,7.5c-2.6,2-5.1,4.2-7.2,6.6c-3.1,3.6-3.1,6.6-0.2,10.1c-0.3,0-0.5,0-0.8,0
		c-4.3-0.8-8.7-1.6-13-2.5c-3.1-0.7-5.8-1.1-8.8,0.7c-3.7,2.4-7.8,4.3-11.7,6.3c-2.8,1.4-5.6,2.8-8.5,4.1c-1.3,0.6-1.4,1.4-0.8,2.6
		c2.1,3.8,4.2,7.7,5.9,11.7c3.4,7.8,7.4,15.3,11.2,22.9c0.5,1,1.3,2,2,2.9c0.5,0.6,1.1,0.9,1.8,0.1c0.6-0.6,1.4-1.2,2.2-1.7
		c4.8-3.1,9-6.8,13-10.9c1.2-1.2,2.3-1.8,4-1.7c2.1,0.1,3.7-1.3,4.1-3.3c0.6-3.4,1.1-6.8,1.9-10.1c0.6-2.9,1.4-5.8,5.2-6.5
		c0,0.6,0,1,0,1.5c0.5,3.9,1.9,5.9,5.5,6.4c2.3,0.3,4.8,0.1,7.2-0.3c5.7-0.9,11.4-1.6,17.2-1.5c2.7,0.1,5.5-0.1,8.2-0.5
		c3.9-0.6,6.6-3.3,9.3-5.8c3.7-3.3,7.2-6.8,10.8-10.3c4.8-4.8,9.6-9.7,14.3-14.6C236,57.2,236.8,55.5,236.7,53.4z M142.6,102.4
		c-0.5,0.1-1,0.5-1.4,0.8c-2.8,2.3-5.6,4.6-8.4,6.9c-0.2,0.2-0.5,0.3-0.9,0.4c-0.2-0.3-0.4-0.6-0.5-0.8c-2-4-2-4,1.9-6.3
		c0.7-0.4,1.3-0.8,2-1.2c1.5-0.8,2-1.9,1.4-3.9c-1,0.3-2,0.5-2.9,0.9c-1.7,0.7-3.4,1.6-5.1,2.3c-0.3,0.1-1,0-1.2-0.3
		c-0.6-1-1.1-2-1.8-3.3c2.2-1.2,4.4-2.4,6.5-3.6c1.3-0.7,2.2-1.6,2-3.2c-0.2-1.3-0.5-1.6-1.7-1.1c-2.3,1-4.6,2.1-6.9,3.3
		c-1.1,0.6-1.8,0.4-2.4-0.6c-0.6-1-1.2-2-1.9-3c2.6-1.3,5.1-2.6,7.6-3.9c1.1-0.6,2-1.1,2-2.6c0-1.1-0.3-1.6-1.4-1.2
		c-2.1,0.7-4.4,1.2-6.3,2.2c-2.7,1.4-4.4,0.3-5.3-2.2c-0.1-0.2-0.2-0.5-0.4-0.8c1.2-0.6,2.3-1.2,3.5-1.8c3.1-1.5,6.2-3,9.3-4.6
		c1.1-0.5,1.7-0.4,2.2,0.7c1.1,2.3,2.2,4.6,3.4,6.8c2.8,5.7,5.6,11.3,8.4,17C145.2,101.4,144.9,102,142.6,102.4z M229.1,55.6
		c-2.7,2.7-5.5,5.4-8.2,8.1c-5.3,5.1-10.6,10.2-15.9,15.4c-3.9,3.9-8.6,5.5-14,5.2c-0.7,0-1.3,0-2,0c0-0.1,0-0.2,0-0.3
		c-4,0.5-8.1,1.1-12.1,1.5c-2.5,0.3-5,0.5-7.5,0.6c-0.3,0-1.1-0.8-1-1.2c0.2-1,0.5-2,1.1-2.8c2.7-3.1,6.3-4.9,10.3-5.5
		c3.7-0.6,7.2-1.5,10.2-3.7c3-2.1,5.8-6.5,4.4-10c-0.5-1.2-1.4-2.5-2.5-3.2c-3.2-2-6.8-2.3-10.6-2c-5.2,0.4-9.5,2.8-13.6,5.8
		c-2.2,1.6-4.6,3-7.5,2c-0.4-0.1-0.7-0.3-1.1-0.5c-0.8-0.4-1-0.8-0.2-1.5c1.7-1.5,3.3-3.2,5.1-4.6c3.5-2.8,7.2-5.4,10.8-8.2
		c2.9-2.3,6.4-3,9.9-3.6c7.7-1.3,15.2-2.9,22.6-5.6c2.4-0.9,4.7-1.8,7.1-2.8c1-0.4,1.7-0.1,2.4,0.6c3.1,3.3,6.3,6.4,9.3,9.8
		c1.2,1.4,2.2,3,3.2,4.7C229.5,54.1,229.4,55.2,229.1,55.6z"/>
</g>
</svg>
