<?xml version="1.0" encoding="utf-8"?>
<!-- Generator: Adobe Illustrator 23.1.0, SVG Export Plug-In . SVG Version: 6.00 Build 0)  -->
<svg version="1.1" id="Layer_1" xmlns="http://www.w3.org/2000/svg" xmlns:xlink="http://www.w3.org/1999/xlink" x="0px" y="0px"
	 viewBox="0 0 250 250" style="enable-background:new 0 0 250 250;" xml:space="preserve">
<style type="text/css">
	.st0{fill:none;}
</style>
<g>
	<path d="M156.5,86c-4.8-21.6-16.2-37.7-37.7-45.4c-1.4-0.5-3.2-2.2-3.4-3.6c-1.6-9.5-7.6-15.2-16.1-18.3C86.3,14,73.8,15.9,62,22.3
		c-7.8,4.2-12.5,11-12.3,20.3c0.1,2.8-1.5,4.2-3.7,5.5c-9.1,5-16.1,12-20.9,21.3c-6.2,12.1-7.8,25-5.9,38.3
		c1.4,9.5,3.6,18.8,8.5,27.3c0.9,1.5,1.3,3.3,1.8,5c1.8,7.3,3,14.7,5.4,21.8c4.4,12.7,11.2,24.2,21.7,33c2.1,1.7,4.2,3.4,6.8,5.5
		c-3.3,2.6-5.9,5.5-9.3,7.1c-4.3,2-9.2,3-13.8,4.3c-8.6,2.4-16.6,5.8-22.3,12.3l9.7,5c5.5-4.7,12.1-7.5,19.3-8.6
		c8.2-1.2,15.1-4.4,20.6-10.6c1.5-1.7,3.1-3.3,4.2-4.5c5.1,1,9.7,2,14.3,2.7c7.8,1.2,15.3-0.7,22.8-2.7c1.7-0.5,2.7,0,3.6,1.2
		c2.7,3.6,6.3,6.2,10.5,7.6c2.6,0.9,5.3,1.5,8,1.7c2.4,0.2,4.5-2.3,4.7-4.9c0.2-2.3-1.6-4.6-4-5.1c-0.9-0.2-1.9-0.3-2.8-0.5
		c-3.9-0.8-6.9-2.9-8.9-6.3c1.3-1.1,2.4-2.2,3.6-3.1c11.2-9.4,19.4-21.1,23.8-35c2.7-8.5,3.4-17.7,6.1-26.2
		c2.5-7.8,4.2-15.6,4.8-23.6C158.7,102.7,158.3,94.3,156.5,86z M34.4,81.3c6.7-5.6,13.1-11.5,20-16.7c14.3-10.7,28.8-21,43.2-31.5
		c1.6-1.1,2.8-1.4,4.1,0.2c1.3,1.6,0.6,2.6-0.7,3.9c-12.5,12.1-26.5,22.1-41,31.4c-7.8,5-15.6,10.1-23.6,15.3
		C35.8,83.1,35.3,82.4,34.4,81.3z M142.2,142.3c-2.1,12.1-6.3,23.3-13.4,33.3c-5.5,7.8-12,14.8-20.7,18.9c-4.6,2.2-10,3-15.1,3.6
		c-6.6,0.8-13-0.7-19.2-3.3c-7-3-12.5-8.1-17.2-13.9c-10.3-12.5-16-27.2-17.7-43.2c-1.8-17.2,4.9-31,18.3-41.4
		c12.4-9.6,25.3-18.7,37.9-28.1c1.2-0.9,2.6-1.5,3.9-2.2c0.2,0.2,0.4,0.5,0.6,0.7c-0.9,1.8-1.8,3.7-2.8,5.5
		c-1.5,2.8-1.1,4.7,1.5,6.7c9.3,7.1,18.7,14,27.9,21.3c7.5,6,13.5,13.2,16,22.7C144.1,129.3,143.3,135.8,142.2,142.3z"/>
	<g>
		<path d="M169.4,115.1c2.7-1.6,5.5-2,8.6-0.8c0-0.5,0-0.9,0-1.2c0-1-0.2-2,0-2.9c0.9-5.1,5.4-7.9,9.4-8.8c2-0.4,4-0.2,6,0.4
			c0.6,0.2,1.2,0.3,1.3-0.7c0.5-5.7,5.9-11.1,12.4-11.4c6-0.3,12,3.4,14,8.8c0.3,0.9,0.8,0.8,1.5,0.5c0.9-0.4,1.8-0.9,2.8-1.1
			c4.1-0.9,7.9,0.2,10.4,3.9c1.6,2.3,2.1,4.9,1.6,7.7c-0.2,1,0,1.7,1.2,2.1c2.8,0.9,5.1,2.6,6.8,5.1c2.3,3.2,3,6.8,2.3,10.7
			c15.2,0.3,30.4,0,45.6-2.6l6.1-1h0c0.2,0,0.5-0.1,0.7-0.1c0.3-0.1,0.6-0.1,0.9-0.2c2.7-0.4,5.4-0.9,8.1-1c4-0.1,6.9,3.4,6.8,7.2
			c-0.1,3.5-1.9,6.1-5.5,7.1c-1.1,0.3-1.8,1-2.1,2.2c-1.7,5.6-3.5,11.1-5.4,16.6c-1.3,3.7-2.9,7.3-5.7,10.1
			c-2.7,2.7-5.7,4.9-9.3,6.2c0.7,1.9,1.2,2.6,2.6,3.8c1,0.8,2,1.5,2.9,2.3c1.2,1.2,1.8,2.6,1.2,4.3c-0.6,1.6-2.3,2.7-4.2,2.6
			c-1.2,0-2.5,0-3.7-0.3c-3.2-0.6-6.2-1.7-7.5-5.1c-0.7-1.6-1.4-3.2-1.9-4.9c-0.3-0.9-0.8-1.1-1.6-1.1c-2.5,0.1-5.1,0.2-7.7,0.2
			c-12.5,0-25.1,0-37.6,0c-7.7,0-15.4,0-23,0c-0.9,0-1.3,0.2-1.5,1.1c-0.3,1.1-0.7,2.2-1.2,3.3c-0.7,1.4-1.2,2.9-2.3,3.9
			c-3.1,2.8-6.9,3.5-10.9,2.7c-2.8-0.6-4.3-3.6-2.3-6.2c0.4-0.6,1-1,1.6-1.4c1.5-1.2,3.2-2.2,4.1-4.1c0.4-0.8,0.2-1.2-0.6-1.7
			c-2.4-1.6-4.9-3-6.9-4.9c-3.6-3.3-5.7-7.6-7.2-12.2c-2.5-7.6-4.9-15.2-7.3-22.8c-0.2-0.8-0.6-1.2-1.4-1.6c-1.9-0.9-3.8-2-4.8-3.9
			C164.4,122,165.6,117.4,169.4,115.1z M213,108.2c-2.7,0.8-4.9,2.2-6.4,4.6c-0.7,1.1-0.6,1.8,0.2,2.4c1,0.7,1.6,0,2.2-0.7
			c1.8-2.4,4.3-3.5,7.3-3.5c3.2,0,6.3,2.4,7.2,5.7c0.3,1.2,0.4,2.5,0.5,3.8c0.1,0.8,0.2,1.6,1.2,1.8c1,0.2,1.6-0.5,1.8-1.3
			c0.2-0.7,0.2-1.4,0.3-2.1C227.4,110.2,219.2,106.4,213,108.2z M171.4,124.6c1.7,1,3.5,1.8,5.3,2.4c9.4,3.5,19,6.1,28.8,8
			c5.5,1,11,1.9,16.5,2.6c5.1,0.6,10.2,0.8,15.3,1.2c1.9,0.1,3.7,0.2,5.6,0.3c0,0,0,0.1,0,0.1c2.9,0,5.8,0.1,8.7,0
			c6.4-0.2,12.8-0.4,19.1-0.9c5-0.3,10.1-0.9,15-1.6c7.1-1,14.2-2.3,21.2-3.6c0.9-0.2,1.9-0.6,2.8-0.9c1.5-0.6,2.1-1.8,1.8-3.4
			c-0.2-1.2-1.5-2.2-2.8-2.1c-1.6,0.1-3.2,0.5-4.9,0.7c-4.9,0.8-9.7,1.8-14.6,2.4c-6.2,0.8-12.5,1.3-18.7,1.8
			c-2.8,0.2-5.6,0.2-8.4,0.3c-5,0.1-10.1,0.3-15.1,0.1c-4.4-0.1-8.7-0.5-13.1-0.8c-3.5-0.3-7-0.5-10.5-1c-4.6-0.6-9.2-1.2-13.8-2.1
			c-5.3-1-10.5-2.2-15.7-3.6c-6-1.5-11.8-3.5-17.4-6.1c-2.1-1-4.8-0.2-6.1,1.7C169.4,121.7,169.7,123.6,171.4,124.6z"/>
		<path d="M192.3,97.7c4.2-5.9,1.2-14-6-15.3c-5.2-0.9-9.7,2.2-10.8,7.2c-0.9,4.3,0.7,8.1,4.2,10.1c0.8,0.5,1.6,0.9,2.8,0.2
			c2.4-1.3,5.1-2,7.9-2.2C191,97.7,191.6,97.7,192.3,97.7z"/>
		<path d="M193.2,71.4c0,3.6,2.5,6.3,6.2,6.3c3.6,0,6.3-2.6,6.3-6.3c0-3.7-2.9-6.2-6.1-6.2C195.8,65.1,193.2,67.6,193.2,71.4z"/>
		<path d="M215.5,82.8c-0.4,2.8,2.5,6.1,6,6.1c3.6,0,6.3-2.6,6.2-6.2c0-3.7-2.6-6.2-6.2-6.2C217.8,76.5,215.2,79.8,215.5,82.8z"/>
	</g>
	<path class="st0" d="M27.7,229"/>
	<path class="st0" d="M18,224"/>
</g>
</svg>
