<?xml version="1.0" encoding="utf-8"?>
<!-- Generator: Adobe Illustrator 23.1.0, SVG Export Plug-In . SVG Version: 6.00 Build 0)  -->
<svg version="1.1" id="Layer_1" xmlns="http://www.w3.org/2000/svg" xmlns:xlink="http://www.w3.org/1999/xlink" x="0px" y="0px"
	 viewBox="0 0 250 250" style="enable-background:new 0 0 250 250;" xml:space="preserve">
<style type="text/css">
	.st0{fill:none;}
</style>
<g>
	<path d="M176.2,28.7c7.2,0.5,11.8,3.4,14.4,8.9c5.3,11.1,10.5,22.3,15.8,33.4c5.5,11.6,11.2,23.2,16.7,34.9
		c6.2,12.9,12.4,25.8,18.5,38.7c3.5,7.5-3,14.7-8.7,15.7c-5.9,1.1-11.3-2.8-13.3-8.1c-5.3-14.2-10.6-28.5-16.1-42.6
		c-1.6-4.2-4.3-5.1-8.2-3c-3,1.5-6,3.3-9,4.7c-3.1,1.5-6.6-0.7-6.9-4.1c-0.1-1.5,0.3-2.6,1.8-3.3c5.2-2.4,10.3-4.9,15.5-7.5
		c1-0.5,2.4-1.7,2.3-2.3c-0.3-1.7-1.3-3.3-2.2-4.8c-0.2-0.3-1.5,0-2.2,0.3c-4.4,2.2-8.8,4.4-13.2,6.6c-1.4,0.7-2.8,1.5-4.3,2.2
		c-0.4,0.2-1.2,0.4-1.3,0.2c-1-1.1-2.2-2.3-2.5-3.7c-0.2-0.9,0.8-2.5,1.7-3.1c3.5-2,7.2-3.7,10.9-5.5c2.1-1,4.2-2,6.4-3
		c1.3-0.6,1.7-1.3,1.1-2.8c-1.3-3.1-2-3.5-4.9-2c-4.9,2.4-9.8,4.7-14.6,7.2c-1.5,0.7-2.8,0.8-4.2-0.2c-2.5-1.8-2.2-4.5,0.8-5.9
		c5.5-2.5,11-5,16.5-7.6c1.9-0.9,2.1-1.6,1.2-3.5c-2-4.1-2-4-6-2c-4.7,2.4-9.5,4.7-14.2,7.2c-3.1,1.6-5.4-0.7-5.8-3.5
		c-0.1-0.6,0.9-1.8,1.6-2.1c5.8-2.8,11.6-5.5,17.4-8.2c2-0.9,2.3-1.6,1.3-3.5c-1.9-3.8-1.9-3.8-5.7-1.9c-4.9,2.5-9.8,5-14.7,7.5
		c-2.2,1.1-3.4,0.7-4.6-1.6c-1.3-2.4-0.9-3.8,1.3-4.9c5.2-2.5,10.3-5,15.5-7.5c2.3-1.1,2.8-2.3,2.1-4.2c-0.8-1.9-2.6-2.4-5-1.3
		c-4.2,2.1-8.5,4-12.6,6.4c-4.9,2.9-6.9,0.1-7.9-3.6c-0.9-3.3,0-5,3.1-6.6c5.5-2.7,10.9-5.6,16.4-8.2
		C172.3,29.7,174.8,29.2,176.2,28.7z"/>
	<path d="M162.5,137.8c-0.3-4.2,3.2-6.6,6.5-6.8c3.2-0.2,6.6,3.6,6.5,7c0,2.8-3.9,6.8-6.4,6.4C165.9,144,162.1,142.2,162.5,137.8z"
		/>
	<path d="M193.8,129.7c0,3-1.9,4.9-5,4.9c-2.7,0-4.4-1.9-4.4-4.8c0-3.1,1.7-4.9,4.6-4.9C191.8,124.9,193.8,126.9,193.8,129.7z"/>
	<path d="M176.9,113.3c0,2.9-1.8,4.9-4.6,4.9c-2.7,0-4.4-2.2-4.4-5.5c0-2.3,2-4.2,4.3-4.2C175.2,108.6,176.9,110.3,176.9,113.3z"/>
</g>
<path d="M154.3,88.5c-4.8-21.6-16.2-37.7-37.7-45.4c-1.4-0.5-3.2-2.2-3.4-3.6c-1.6-9.5-7.6-15.2-16.1-18.3
	c-12.9-4.7-25.4-2.7-37.2,3.6C52,29,47.4,35.7,47.6,45.1c0.1,2.8-1.5,4.2-3.7,5.5c-9.1,5-16.1,12-20.9,21.3
	c-6.2,12.1-7.8,25-5.9,38.3c1.4,9.5,3.6,18.8,8.5,27.3c0.9,1.5,1.3,3.3,1.8,5c1.8,7.3,3,14.7,5.4,21.8c4.4,12.7,11.2,24.2,21.7,33
	c2.1,1.7,4.2,3.4,6.8,5.5c-3.3,2.6-5.9,5.5-9.3,7.1c-4.3,2-9.2,3-13.8,4.3c-8.6,2.4-16.6,5.8-22.3,12.3l9.7,5
	c5.5-4.7,12.1-7.5,19.3-8.6c8.2-1.2,15.1-4.4,20.6-10.6c1.5-1.7,3.1-3.3,4.2-4.5c5.1,1,9.7,2,14.3,2.7c7.8,1.2,15.3-0.7,22.8-2.7
	c1.7-0.5,2.7,0,3.6,1.2c2.7,3.6,6.3,6.2,10.5,7.6c2.6,0.9,5.3,1.5,8,1.7c2.4,0.2,4.5-2.3,4.7-4.9c0.2-2.3-1.6-4.6-4-5.1
	c-0.9-0.2-1.9-0.3-2.8-0.5c-3.9-0.8-6.9-2.9-8.9-6.3c1.3-1.1,2.4-2.2,3.6-3.1c11.2-9.4,19.4-21.1,23.8-35c2.7-8.5,3.4-17.7,6.1-26.2
	c2.5-7.8,4.2-15.6,4.8-23.6C156.6,105.2,156.2,96.8,154.3,88.5z M32.3,83.8c6.7-5.6,13.1-11.5,20-16.7c14.3-10.7,28.8-21,43.2-31.5
	c1.6-1.1,2.8-1.4,4.1,0.2c1.3,1.6,0.6,2.6-0.7,3.9c-12.5,12.1-26.5,22.1-41,31.4c-7.8,5-15.6,10.1-23.6,15.3
	C33.7,85.6,33.2,84.9,32.3,83.8z M140,144.8c-2.1,12.1-6.3,23.3-13.4,33.3c-5.5,7.8-12,14.8-20.7,18.9c-4.6,2.2-10,3-15.1,3.6
	c-6.6,0.8-13-0.7-19.2-3.3c-7-3-12.5-8.1-17.2-13.9c-10.3-12.5-16-27.2-17.7-43.2c-1.8-17.2,4.9-31,18.3-41.4
	C67.6,89.1,80.4,80,93.1,70.7c1.2-0.9,2.6-1.5,3.9-2.2c0.2,0.2,0.4,0.5,0.6,0.7c-0.9,1.8-1.8,3.7-2.8,5.5c-1.5,2.8-1.1,4.7,1.5,6.7
	c9.3,7.1,18.7,14,27.9,21.3c7.5,6,13.5,13.2,16,22.7C141.9,131.8,141.1,138.3,140,144.8z"/>
<path class="st0" d="M25.5,231.5"/>
<path class="st0" d="M15.8,226.5"/>
</svg>
