<?xml version="1.0" encoding="utf-8"?>
<!-- Generator: Adobe Illustrator 23.1.0, SVG Export Plug-In . SVG Version: 6.00 Build 0)  -->
<svg version="1.1" id="Layer_1" xmlns="http://www.w3.org/2000/svg" xmlns:xlink="http://www.w3.org/1999/xlink" x="0px" y="0px"
	 viewBox="0 0 250 250" style="enable-background:new 0 0 250 250;" xml:space="preserve">
<g>
	<path d="M224.6,65.2c1.6-0.3,3.2-0.5,4.7-0.8c1.1-0.2,2.3-0.4,3.4-0.6c4-0.6,5.2-5.8,3.5-8.3c-3.7-5.4-7.5-10.8-11.5-16
		c-1.9-2.4-4.8-3.5-7.8-3.5c-10.4-0.1-20.9-0.1-31.3,0c-3.6,0-6.6,1.6-8.8,4.7c-1.9,2.8-1.8,5.9-1.8,9c0,2.2,0.6,2.9,2.8,3.3
		c1.7,0.4,3.5,0.6,5.2,1.1c3.8,1,3.9,1.1,2.9,5c-1.5,5.7-2.5,11.6-6.1,16.6c-0.3,0.4-0.6,1-0.6,1.6c-0.3,1.6-0.4,3.3,1,4.3
		c1.4,1,3,0.4,4.3-0.5c0.5-0.4,1-0.9,1.4-1.5c2.6-3.5,3.9-7.6,4.9-11.7c0.7-2.8,1.3-5.7,1.9-8.6c3,1.4,4.4,3.8,4.7,6.7
		c0.3,3.8,0.3,7.6,0.3,11.4c0,0.8-0.7,1.8-1.3,2.4c-1.6,1.3-2.9,2.7-3.1,4.8c-0.4,3.4-0.7,6.9-1,10.3c-0.2,2.4-0.7,4.5-2.6,6.4
		c-3.8,3.8-7.4,7.7-10.9,11.9c-3.3,4-4.7,8.8-4.7,14.1c0.2,12.5,0.1,25,0.1,37.6c0,0.8,0,1.6,0.2,2.4c1.5,5.9,6.4,9.7,12.5,9.7
		c11.4,0,22.7-0.1,34.1,0c8.2,0.1,13.2-6.5,13.1-12.9c-0.1-9.2-0.3-18.3,0-27.5c0.3-9.2-1.7-18-3-26.9c-1.1-7.4-2.6-14.7-3.6-22.1
		c-0.6-3.8-1.6-7.1-5.5-8.7c-0.3-0.1-0.7-0.8-0.7-1.2c0-2.9,0.1-5.9,0.2-8.8C221.6,67.2,223,65.6,224.6,65.2z M223.5,111.2
		c0.7,4.4,1.4,8.8,2.1,13.4c-0.4,0-0.7,0.1-1,0.1c-4.3,0-8.7,0-13.2,0c-0.1-0.5-0.3-1-0.3-1.5c0.2-4.4,0.4-8.8,0.5-13.1
		c0.1-4,0.2-8,0.4-12c0-1.2,0.1-2.4,0.3-3.6c0.1-1-0.2-1.5-1.3-1.5c-4.5-0.2-4.5-0.2-4.6,4.3c-0.2,7.6-0.4,15.3-0.7,22.9
		c0,1.4-0.3,2.9-0.4,4.4h-23.8c1-3.5,2.8-6.6,5.3-9.3c3.4-3.8,6.9-7.6,10.3-11.5c1.9-2.1,2.9-4.5,2.8-7.5c-0.1-3,0.4-6,0.6-8.9
		c0.1-1.2,0.8-1.9,2-1.9c4.7-0.1,9.5-0.3,14.2-0.3c1.6,0,2.3,0.7,2.6,2.4C220.8,95.4,222.2,103.3,223.5,111.2z"/>
	<path d="M150,58.3c-1.5,0-2.7,0.2-3-1.5c-0.2-1.7,0.2-2.8,1.9-3.3c4.8-1.5,9.6-2.8,14.4-4.2c0.9-0.3,1.9-0.8,2.8-0.6
		c1,0.1,2.2,0.6,2.7,1.4c0.6,1,0.3,2.4-0.9,3c-2.1,1-4.2,1.9-6.4,2.5c-3.4,1-6.8,1.8-10.2,2.7C150.8,58.3,150.2,58.2,150,58.3z"/>
	<path d="M153.5,74.8c-0.8-0.7-1.9-1.1-2-1.7c-0.2-0.9-0.1-2.3,0.5-2.8c2.9-2.8,5.9-5.5,8.9-8.2c1-0.9,2-1.9,3-2.9
		c1.5-1.4,3.5-1.8,4.5-0.9c1.1,1.1,0.8,3.2-0.8,4.7c-3.5,3.3-7,6.6-10.6,9.8C156.1,73.7,154.8,74.1,153.5,74.8z"/>
	<path d="M165.8,45.9c-1.8-0.5-3.6-1-5.4-1.6c-3.1-0.9-6.2-1.8-9.2-2.8c-1.1-0.4-2.1-0.9-3-1.6c-1-0.7-1.7-2-0.8-3
		c0.6-0.7,2.2-1.3,3.1-1.1c4.5,1.2,8.9,2.7,13.4,4c1.1,0.3,2.2,0.8,3.3,0.9c1.4,0.1,2,0.5,2,2c0,1.5-0.7,2.5-2.1,2.9
		c-0.3,0.1-0.7,0-1,0C165.8,45.8,165.8,45.8,165.8,45.9z"/>
	<path d="M90.3,41c-0.5,4.2-0.9,8.2-1.4,12.4c-23.4,0.4-35.5,14.2-41.3,35.3c0.1,0.1,0.2,0.2,0.3,0.3c1.6-2.4,3.2-4.8,4.8-7.2
		c4-6,8.4-11.8,14.1-16.4c6.2-5.1,13-8.4,21.2-8.1c0.3,0,0.6,0,1,0.1c0.1,1.5,0.3,2.9,0.4,4.3c0.1,1.6,0.2,3.3,0.4,4.9
		c0.1,1.7-0.1,3.1-1.2,4.5c-3.1,4.2-6.9,7.7-11,10.8c-5.6,4.3-11.4,8.4-17.3,12.3c-5.4,3.6-8.9,8.4-10.6,14.7
		c-0.3,1-1.1,1.9-1.6,2.8c-0.6-0.8-1.2-1.5-1.7-2.4c-0.7-1.2-1.4-2.3-3-2.3c-1.6,0-2.3,1.2-3,2.4c-1.4,2.6-1.1,5.2-0.4,8
		c0.8,3.3,1.9,6.5,4.4,8.8c1,0.9,2.4,1.5,3.8,1.8c1.1,0.3,1.9,0.6,2.2,1.8c2.2,8.4,6.7,15.3,13,21.2c5.9,5.5,12.7,9.3,20.8,10.2
		c9.9,1.1,18.9-1.4,26.7-7.7c7.6-6.1,12.7-13.8,15.5-23.2c0.2-0.7,0.8-1.6,1.4-1.7c2.7-0.8,4.3-2.6,5-5.1c0.9-3,1.8-6.1,2.1-9.3
		c0.3-2.6-0.5-5.3-2.5-7.8c-0.8,1.4-1.5,2.6-2.2,3.7c-0.4,0.6-1.1,1-1.7,1.5c-0.5-0.6-1.2-1.2-1.4-1.9c-0.7-2.1-1.1-4.4-1.8-6.5
		c-1.4-4.2-4.5-7.2-7.7-10.1c-4.9-4.4-9.9-8.7-14.5-13.3c-3.3-3.2-6.2-6.8-9.1-10.4c-0.6-0.7-0.5-2-0.6-3.1
		c-0.1-3.3-0.2-6.6-0.2-9.9c0-3.1,0.2-6.2,0.3-9.2c0.1-1.5,0.3-3,0.4-4.5c0-0.9,0.4-1.2,1.3-1.4c3.9-0.9,7.8-0.6,11.6,0.5
		c12.8,3.5,22.3,11.2,29,22.6c4.4,7.6,6.9,15.9,9,24.4c1.4,5.8,2.6,11.6,3.7,17.5c1.3,6.4,3.8,12.3,6.6,18
		c2.8,5.5,5.1,11.1,5.7,17.3c0.4,4.3-0.3,8.5-2,12.5c-1.3,3-2.7,6-4,9.1c-1.2,2.8-2.2,5.5-1.5,8.7c1,4.3,3.5,6.2,8,5.4
		c0.5-0.1,1,0.1,1.6,0.1c-0.1,0.5-0.1,1.1-0.3,1.6c-2,3.9-5.3,6-9.8,6.7c0.9,1.3,1.8,2.5,2.6,3.7c3,4.8,5.2,9.9,5.2,15.8
		c0,3.7-1.5,5.2-5.2,5.2c-44.6,0-89.2,0-133.8,0c-0.6,0-1.1-0.1-1.7-0.1c-2.2-0.3-3.2-1.4-3.4-3.7c-0.5-7.3,1.9-13.6,6.4-19.2
		c0.4-0.5,0.8-1,1-1.3c-2.5-1-5.1-1.8-7.4-3c-1.8-0.9-3.1-2.5-3.5-4.7c-0.2-1,0.1-1.4,1-1.2c6.2,1.6,8.6-3,8.8-7.5
		c0.2-3.9-1.5-7.3-3.2-10.7c-2.8-5.6-4.5-11.4-4-17.7c0.3-4.4,1.6-8.6,3.5-12.5c2.8-5.8,6-11.6,8.3-17.6c1.7-4.3,2.8-8.9,3.3-13.4
		c1.5-12.6,4.9-24.4,11.6-35.2c6.8-11.2,16.6-18.7,29.4-21.9C77.9,39.1,84.2,39.3,90.3,41z M120.9,177.5c-7.5-3.1-9.3-9.5-9.7-16.7
		c-15.4,12.4-30.5,11.2-45.3,0.1c-0.6,3.2-1,6.5-1.9,9.6c-1,3.3-3.6,5.5-6.6,7.1c2,3.3,6.4,6.9,10.9,8.6c11.7,4.6,23.6,4.9,35.7,2
		C110.6,186.5,116.4,183.3,120.9,177.5z M142.2,180.6c0.1-0.3,0.1-0.4,0.1-0.4c-0.1-0.2-0.2-0.5-0.3-0.7c-1.1-3.2-1.3-6.5-0.8-9.9
		c0.7-4.2,2.6-7.9,4.3-11.7c2.7-6,3.5-12.3,2-18.7c-0.9-4-2.8-7.6-5.2-11.3c0,0.6-0.1,0.9-0.1,1.1c0.3,2.7,0.8,5.4,0.9,8.1
		c0.2,6.6-0.3,13.1-3,19.4c-1.8,4.3-3.3,8.8-3.1,13.6C137.4,174.2,139,177.7,142.2,180.6z M31.5,144.7c-0.8,5.3,0.7,10.2,2.4,15
		c2.3,6.7,2.6,13.2-1.6,19.4c-1.1,1.7-1.9,3.5-3,5.5c6.8-2.5,11-8.3,10.9-15.2c-0.1-4.7-1.4-9.1-3.5-13.3c-1.3-2.6-2.7-5.2-4-7.8
		C32.1,147.1,31.9,145.9,31.5,144.7z"/>
</g>
</svg>
