<?xml version="1.0" encoding="utf-8"?>
<!-- Generator: Adobe Illustrator 23.1.0, SVG Export Plug-In . SVG Version: 6.00 Build 0)  -->
<svg version="1.1" id="Layer_1" xmlns="http://www.w3.org/2000/svg" xmlns:xlink="http://www.w3.org/1999/xlink" x="0px" y="0px"
	 viewBox="0 0 250 250" style="enable-background:new 0 0 250 250;" xml:space="preserve">
<g>
	<path d="M136.4,47.7c-3.6-2.3-7.3-4.6-11-6.8c-2.6-1.5-5.4-2.7-8.5-2.6c-1.9,0.1-3.5-0.1-4.5-2c-0.2-0.4-0.6-0.7-1-1
		c-3.7-3.2-8-4.7-12.9-4.7c-15,0.1-30,0-45,0c-4.6,0-8.6,1.3-12,4.4c-2.5,2.4-4.3,5.3-4.4,8.8c-0.1,5.8-0.1,11.7,0,17.5
		c0,2.4,0.8,4.5,2.1,6.5c2.1,3.3,5,5.6,8.8,6.6v110.8c-1.1,0-2.1,0-3.1,0c-2.6,0.2-5.3,0.1-7.8,0.6c-6.3,1.2-10.8,5.9-11.6,12.2
		c-0.5,3.7-0.5,7.5-0.6,11.3c-0.1,2.1,1.2,3.3,3.3,3.3c20.4,0,40.8,0,61.3,0c2.1,0,3.2-1.1,3.3-3.2c0-2.3,0.2-4.6-0.1-6.8
		c-0.3-2.7-0.5-5.6-1.5-8.1c-2.7-6.3-8.1-9-14.7-9.2c-7-0.2-14,0-21.1,0h-1.5V75.1h21.7c-0.6,3.6-0.7,6.1,0.5,8.7
		c2.6,5.7,5.5,11.2,8.3,16.8c0.8,1.6,3,1.6,4.3,0.2c2-2,4-4.1,6-6.1c11.1-11,22.1-22.1,33.2-33.1c2.9-2.9,5.9-5.9,8.8-8.8
		C138.9,50.7,138.8,49.2,136.4,47.7z M76.4,191.3c5.3,0.1,9.6,2.9,10.4,9.4c0.2,2,0.3,4.1,0.4,6.1H30.5c0.3-2.6,0.4-5.1,0.8-7.5
		c0.9-5.5,5.3-8,9.8-8C52.9,191.2,64.7,191.2,76.4,191.3z M77.8,69.1c-8.7,0-17.3,0-26,0c-4.9,0-8.9-4.3-8.8-8.8
		c0.1-4.8,0-9.6,0-14.4c0-4.7,4.3-9.1,9.1-9.1c15.8,0,31.6,0,47.4,0c3.4,0,6.1,1.3,8.3,3.6C99.5,47.8,92,56,84.1,63.8
		c-1.5,1.5-3,3.1-4.6,4.5C79.1,68.7,78.4,69,77.8,69.1z M87.2,93.3c-1.8-3.8-4-7.8-5.5-11.9c-1.2-3.3-0.2-6.6,2.3-9.1
		c8.3-8.4,16.7-16.8,25.1-25.1c2.8-2.8,7.3-3.7,11.1-1.9c3.4,1.6,6.6,3.6,9.8,5.4C115.7,64.9,101.6,79,87.2,93.3z"/>
	<path d="M219.2,202.9c0-4.3,0.1-8.7,0-13c-0.2-4-0.7-7.9-2.9-11.4c-2.3-3.7-5.5-6.4-9.4-8.1c-4.3-1.9-8.7-3.5-13.1-5.2
		c-3.5-1.4-6.8-3.1-9.2-6.3c-2.8-3.8-3.5-11,0.4-15.2c3.5-3.8,5.3-8.4,5.9-13.6c0.7-5.5,0.5-10.7-1.5-15.9c-2.5-6.5-9-10.8-16-11
		c-4.5-0.1-8.8,0.6-12.6,3.2c-4.4,3-6.9,7.1-7.6,12.3c-0.3,2.7-0.6,5.4-0.5,8.1c0.2,6.4,2,12.3,6.4,17.3c2.4,2.7,2.9,6.2,2.2,9.7
		c-0.9,4.5-3.7,7.6-7.6,9.5c-4.1,2-8.5,3.5-12.8,5.3c-4.4,1.8-8.5,3.8-11.7,7.5c-2.6,3-4,6.5-4.1,10.4c-0.2,9.5-0.2,19-0.3,28.4
		c0,0.8-0.1,1.5-0.2,2.3c-0.3,1.2-1.5,2-2.7,2c-1.3,0-2.5-0.9-2.7-2.1c-0.1-0.8-0.2-1.5-0.2-2.3c0-8,0-16,0-23.9
		c0-4.8,0.7-9.5,2.8-13.9c2.7-5.7,7.3-9.4,12.9-12c4.2-2,8.6-3.4,12.8-5.3c2-0.9,4.1-1.9,5.8-3.3c2.7-2.2,4-6.2,0.8-9.9
		c-3.8-4.4-5.8-9.7-6.7-15.4c-1.1-6.8-0.6-13.5,2.1-19.8c3.2-7.5,9-12,16.9-13.7c6-1.3,11.9-0.7,17.4,2c6.9,3.4,10.9,9,12.5,16.4
		c1.8,8,1.5,16-1.9,23.6c-1.2,2.7-2.9,5.2-4.7,7.4c-2.6,3.1-1.6,7.6,1.2,9.8c2.7,2.1,5.9,2.9,9,4.1c5.2,2,10.4,3.9,14.9,7.1
		c5.5,4,8.7,9.4,9.8,16c0.4,2.4,0.5,4.8,0.6,7.2c0.1,8.3,0,16.5,0,24.8c0,2.1-0.9,3.2-2.7,3.2c-1.8,0-3-1.3-3-3.3
		C219.2,211.6,219.3,207.3,219.2,202.9C219.3,202.9,219.2,202.9,219.2,202.9z"/>
	<path d="M188.6,75.1c-1.6-0.4-3.6-0.9-5.6-1.4c-13-3.5-26-7.1-39-10.6c-1.4-0.4-2.7-0.9-3-2.6c-0.4-2.4,1.4-3.9,3.9-3.2
		c8.3,2.2,16.7,4.5,25,6.8c6.2,1.7,12.5,3.4,18.7,5.1c0.6,0.2,1.2,0.3,1.8,0.6c1.3,0.7,1.8,2,1.5,3.3
		C191.5,74.4,190.6,75.1,188.6,75.1z"/>
	<path d="M101,100.2c1.9,0,2.6,0.6,3.1,2.3c1.5,5.7,2.9,11.5,4.4,17.2c2.2,8.7,4.5,17.4,6.7,26.1c0.4,1.7-0.4,3.3-1.9,3.7
		c-1.8,0.5-3.2-0.4-3.8-2.4c-1.6-6.4-3.3-12.8-4.9-19.2c-2-7.8-3.9-15.6-5.9-23.3c-0.5-2.2-0.2-3.5,1.3-4.2
		C100.4,100.3,100.9,100.3,101,100.2z"/>
	<path d="M113.2,89.8c1.6,0,2.4,0.6,3,1.6c5.6,10.3,11.2,20.5,16.8,30.8c0.5,1,1.1,2,1.7,3c0.9,1.6,0.5,3.5-0.9,4.3
		c-1.5,0.8-3.1,0.3-4-1.3c-3.1-5.6-6.2-11.2-9.3-16.8c-3.1-5.6-6.2-11.3-9.3-16.9C110,92.2,111.2,89.8,113.2,89.8z"/>
	<path d="M160.1,91.2c-0.3-0.1-1-0.3-1.6-0.7c-8.1-5.1-16.3-10.2-24.4-15.3c-0.6-0.4-1.2-0.8-1.6-1.4c-0.9-1.2-0.7-2.7,0.3-3.7
		c1-1,2.3-1.1,3.6-0.3c3.1,1.9,6.2,3.8,9.2,5.8c5.3,3.3,10.6,6.6,15.9,9.9c0.3,0.2,0.6,0.4,0.9,0.6c0.9,0.9,1.4,1.9,0.9,3.2
		C162.8,90.6,161.8,91.2,160.1,91.2z"/>
	<path d="M142.5,104.3c-0.7-0.4-1.5-0.8-2.1-1.3c-3.6-3.6-7.1-7.3-10.7-11c-2.1-2.2-4.3-4.4-6.4-6.6c-0.6-0.7-1.2-1.5-1.5-2.4
		c-0.4-1.4,0.2-2.6,1.5-3.1c1.2-0.5,2.3-0.4,3.2,0.6c2.4,2.5,4.8,4.9,7.1,7.4c3.7,3.8,7.3,7.5,11,11.3c1,1,1.3,2.2,0.6,3.5
		C144.7,103.7,143.8,104.2,142.5,104.3z"/>
	<path d="M206.1,207c0,3,0,6,0,9c0,2.1-1,3.3-2.7,3.3c-1.8,0-3-1.2-3-3.3c0-3.7,0-7.4,0-11.1c0-2.4,0-4.8,0-7.2
		c0-1.9,1.2-3.3,2.9-3.2c1.7,0.1,2.9,1.2,2.9,3.2C206.1,200.8,206.1,203.9,206.1,207z"/>
	<path d="M143.5,207.1c0,3.1,0,6.1,0,9.2c0,1.6-1.1,2.9-2.5,3c-1.5,0.1-2.8-0.8-3.1-2.4c-0.1-0.4-0.1-0.9-0.1-1.4c0-6,0-11.9,0-17.9
		c0-2,1-3,2.8-3.1c1.8,0,2.9,1.1,2.9,3C143.5,200.7,143.5,203.9,143.5,207.1z"/>
	<path d="M71.2,44.5c-0.1,1.7-1.5,2.9-3.4,2.9c-2.3,0-4.6,0-7,0c-2.2,0-4.5,0-6.7,0c-2,0-3.4-1.4-3.4-3.1c0-1.6,1.4-2.9,3.3-2.9
		c4.6,0,9.2,0,13.8,0C69.6,41.4,71.3,43,71.2,44.5z"/>
	<path d="M70.6,55.9c-0.5,0.5-1.4,1.1-2.1,1.1C66,57.1,63.5,57,61,57v0c-2.4,0-4.7,0-7.1,0c-2,0-3.1-1-3.2-2.8c0-1.7,1.3-3,3.1-3
		c4.7,0,9.5,0,14.2,0c1.2,0,2.2,0.4,2.7,1.5C71.3,53.8,71.5,55,70.6,55.9z"/>
</g>
</svg>
