<?xml version="1.0" encoding="utf-8"?>
<!-- Generator: Adobe Illustrator 23.1.0, SVG Export Plug-In . SVG Version: 6.00 Build 0)  -->
<svg version="1.1" id="Layer_1" xmlns="http://www.w3.org/2000/svg" xmlns:xlink="http://www.w3.org/1999/xlink" x="0px" y="0px"
	 viewBox="0 0 250 250" style="enable-background:new 0 0 250 250;" xml:space="preserve">
<g>
	<path d="M209,154c-0.4-2.1-0.6-4.5-1.7-6.3c-2.4-3.9-6-6.6-10.5-8c-0.7-0.2-1.4-0.6-1.9-1.1c-1.9-1.6-1.9-3.4-0.2-5.2
		c1-1.1,0.9-2.9-0.4-3.5c-1.7-0.8-1.4-2-1-3.1c0.5-0.7,1.3-1.2,1.5-2c0.4-1.3-0.4-2.1-1.7-2.5c-0.3-0.1-0.7-0.7-0.7-1.1
		c0-1.1,0.1-2.2,0.2-3.3c0.1-1.4-0.6-2.1-1.8-2.3c-1.2-0.3-2.4-0.5-3.7-0.5c-4-0.1-7.9-0.1-11.9,0c-1.1,0-2.2,0.2-3.3,0.4
		c-1.1,0.2-1.8,0.9-1.7,2.1c0.1,1.1,0.1,2.2,0.3,3.3c0.1,0.9,0,1.5-1.1,1.8c-0.5,0.1-1.2,0.7-1.3,1.2c0,0.8,0.1,2,0.6,2.2
		c1.7,0.8,1.5,2,1.4,3.4c-1.3,0.3-2.1,1.1-2,2.4c0,0.7,0.5,1.7,1.1,2c1,0.5,1.1,1.2,1,2.1c-0.2,1.5-0.8,2.7-2.3,3.3
		c-1.1,0.4-2.1,0.9-3.2,1.3c-3.7,1.3-6.3,3.9-8.4,7.1c-2.2,3.4-2.3,7.3-2.3,11.1c0.1,5.5,0.4,11,1,16.4c0.4,4.1,1,8.2,2.1,12.2
		c1.4,5,3.5,9.7,5.4,14.6c0.8,1.9,1.9,3.9,3.9,4.5c1.9,0.6,4.1,0.9,6.1,0.9c7.1,0,14.1-0.1,21.2-0.2c2.7,0,5-1.3,6.2-3.6
		c1.7-3.2,3.1-6.5,4.2-9.9c2.3-6.9,3.8-14,4.7-21.2C209.6,166.2,210.1,160.1,209,154z M177.1,119.6c2.7,0,5.4,0,8.1,0
		c2.6,0,2.7,0.1,2.5,2.9h-13.2c0,0,0,0,0,0c-0.1-0.1-0.1-0.2-0.1-0.2C174.4,119.6,174.4,119.6,177.1,119.6z M187.8,127.7
		c0,0.7,0.1,1.8-1.2,1.8c-3.9,0-7.9,0-11.9,0v-3c4.1,0,8.2,0,12.2,0.1C187.2,126.6,187.8,127.3,187.8,127.7z M203.8,159.1
		c-2.1,0.5-4.2,0.7-6.3,1.2c-6,1.4-12,1.6-17.7-0.6c-6.2-2.4-12.6-2.5-19-2.6c-0.6,0-1.3,0.2-2,0.3c-0.3-3.2,0.2-6.1,2.2-8.6
		c1.7-2,3.5-3.7,6.2-4.5c1.6-0.4,3-1.5,4.5-2.4c2.4-1.5,2.6-4.1,2.9-6.6c0-0.2,0-0.5,0-0.8c0.3,0,0.7-0.1,1-0.1
		c3.9-0.1,7.7-0.2,11.6-0.2c0.3,0,0.8,0.6,0.9,1c0.2,0.8,0.3,1.7,0.3,2.5c-0.1,2.6,1.5,4,3.6,5c1.8,0.9,3.6,1.7,5.4,2.5
		c3.9,1.7,6.3,4.4,6.8,8.7c0.2,1.4,0.5,2.8,0.6,4.1C204.8,158.3,204.2,159,203.8,159.1z"/>
	<path d="M204.2,120.7c0.1-0.9,0.4-2.4,0.5-3.8c0-0.9-0.1-1.8-0.4-2.6c-2.3-6.5-4.7-13-7.1-19.6c-0.4-1-0.9-1.3-1.9-0.9
		c-3.1,1-6.1,2-9.2,3c-1.2,0.4-2-0.1-2.5-1.3c-0.6-1.5-0.3-2.4,1.1-3.1c0.7-0.3,0.8-0.7,0.6-1.4c-2.5-9.8-4.9-19.6-7.3-29.5
		c-1.1-4.5-2.2-9.1-3.3-13.6c-0.9-3.6,3.2-9.2,6.9-9.5c4.7-0.4,7.7,1.4,9.6,5.7c5.7,12.9,11.5,25.8,17.2,38.7
		c0.2,0.5,0.8,1.1,1.3,1.1c1.2,0.1,2,0.5,2.3,1.8c0.3,1.3-0.4,2.3-1.6,2.7c-2.1,0.8-4.2,1.5-6.4,2.2c-2.1,0.7-2.2,0.7-1.5,2.7
		c2.3,6.6,4.5,13.3,7.1,19.9c0.8,1.9,2.7,3.4,4,5.2c2.1,2.8,4.2,5.6,6.1,8.5c1.6,2.6,0.6,5.3-2.2,6.5c-1.7,0.7-3.5,1.3-5.2,1.9
		c-2.6,0.8-4.3,0.1-5.4-2.3C205.1,129.2,204.4,125.3,204.2,120.7z"/>
	<path d="M53.6,131.2c0-17.9,0-35.8,0-53.6c0.2-0.1,0.4-0.1,0.5-0.2c1,2.2,3.9,2.7,3.8,6c-0.1,22.3,0,44.5,0.1,66.8
		c0,1.1-0.1,2.3-0.1,3.4c-0.1,1.5-0.8,2.3-1.9,2.4c-1.2,0-2.2-1-2.4-2.3c-0.6-4-0.8-8.1-1.9-12c-1.1-4.2-2.7-8.3-4.5-12.3
		c-1.5-3.3-3.4-6.3-5.4-9.3c-1.2-1.9-3.1-3.2-5.5-4.5c0.3,0.8,0.4,1.3,0.5,1.7c0.9,3.7,2,7.4,2.6,11.2c0.4,2.8-1,4.7-3.6,5.7
		c-1.1,0.4-1.1,0.8-0.9,1.8c1.5,8.2,3.4,16.4,4.1,24.7c0.9,9.7,4.9,18,9.8,26.1c3.1,5.1,6.1,10.3,9.2,15.5c1.2,2.1,1.8,4.3,1.8,6.7
		c0,1.4-0.5,2.3-2,2.5c-1.4,0.2-2.1-0.5-2.3-1.9c-1-6-4.7-10.7-7.8-15.7c-3.6-6-7.4-12-10.1-18.5c-1.7-4.2-2.5-8.7-3-13.2
		c-0.6-5.4-1.5-10.8-2.5-16.2c-1.3-7.1-2.8-14.3-4.3-21.4c-0.9-4.1-1.8-8.3-2.7-12.4c-0.3-1.6,0.4-2.9,2-3c5.7-0.4,11,1.1,15.5,4.7
		c5.2,4.1,7.9,9.8,10.2,15.7c0.2,0.5,0.3,1,0.5,1.5C53.3,131.3,53.4,131.2,53.6,131.2z"/>
	<path d="M143.2,99c0.9,6.6,0.7,13.2,0.5,19.8c-0.1,3.7-0.2,7.4-0.3,11.1c-0.1,4.4-0.3,8.7-0.5,13.1c-0.2,4.1-0.5,8.3-0.9,12.4
		c-0.6,5.2-1.5,10.5-1.9,15.7c-0.7,8.1-2.9,15.9-5,23.6c-1,3.6-2.3,7.1-3.3,10.7c-0.4,1.5-0.7,3.1-0.8,4.7c-0.1,1.1-0.7,1.5-1.7,1.5
		c-1.1,0-2.2-0.3-2.2-1.5c0-2.1-0.1-4.3,0.4-6.4c1.5-5.5,3.4-10.8,4.9-16.3c1.1-4,2-8.1,2.7-12.2c1.1-6.8,1.9-13.7,2.7-20.6
		c0.4-3.9,0.6-7.8,0.7-11.7c0.3-8.8,0.6-17.6,0.9-26.4c0.1-4.3,0.2-8.6,0.3-12.9c0-1,0.1-1.8,1.1-2.5c0.8-0.6,1.4-1.5,2.1-2.3
		C142.9,98.9,143,99,143.2,99z"/>
	<path d="M103.5,78.8c1.2,0.9,2.2,1.7,3.2,2.6c0.2,0.2,0.3,0.7,0.3,1.1c-0.2,7-0.4,14-0.6,21.1c-0.2,4.9-0.4,9.8-0.6,14.7
		c-0.1,2.3-0.2,4.6-0.3,6.9c-0.1,2.1-1.8,3.9-3.7,4.1c-2.5,0.3-4.3-0.7-5.1-2.9c-0.3-0.8-0.5-1.6-0.5-2.5c-0.1-4.7-0.2-9.3-0.3-14
		c-0.1-6.1-0.2-12.1-0.3-18.2c-0.1-5.7-0.3-11.4-0.4-17.1c0-0.2,0-0.3,0-0.5c-0.9-3.1,0.3-5.1,3.3-6.6c0.2,1.3,0.6,2.6,0.7,4
		c0.2,2.9,0.4,5.8,0.4,8.7c0.1,4.1,0.1,8.2,0.2,12.3c0.2,9,0.4,17.9,0.6,26.9c0,1.5,0.3,2.9,0.6,4.4c0.2-1.2,0.4-2.3,0.4-3.5
		c0.3-7.2,0.5-14.4,0.7-21.6c0.1-3.5,0.1-6.9,0.3-10.4C102.7,85.2,103.1,82,103.5,78.8z"/>
	<path d="M74.1,78.5c0.2,2.3,0.5,4.5,0.6,6.7c0.3,6.3,0.4,12.6,0.6,18.9c0.2,5.4,0.6,10.9,0.9,16.3c0,0.3,0.2,0.7,0.3,1
		c0.1,0,0.3,0,0.4,0c0-0.4,0.1-0.9,0.1-1.3c0-2.7,0-5.3,0-8c0.1-5.4,0.2-10.7,0.3-16.1c0.1-5.8,0.1-11.6,0.4-17.4
		c0.1-4,0.6-7.9,1-12c1.2,1.8,3.7,2.4,3.5,5.6c-0.5,11.4-0.5,22.9-0.7,34.3c-0.1,5.5-0.2,10.9-0.4,16.4c0,0.9-0.1,1.8-0.4,2.7
		c-0.6,2.3-2.4,3.4-5.1,3.2c-1.9-0.2-3.6-1.9-3.8-4c-0.2-1.9-0.2-3.9-0.3-5.8c-0.2-5.2-0.4-10.3-0.6-15.5c-0.1-2.3-0.2-4.6-0.3-6.9
		c-0.2-4.8-0.3-9.6-0.4-14.4c0-0.3,0.1-0.7,0.4-0.9C71.7,80.3,72.8,79.5,74.1,78.5z"/>
	<path d="M123.8,129.5c0.2-1.4,0.6-2.7,0.7-4.1c0.3-5.2,0.4-10.3,0.7-15.5c0.2-3.5,0.5-7,0.8-10.7c1.3,1,2.3,1.7,3.2,2.6
		c0.3,0.3,0.5,0.8,0.5,1.3c-0.1,4.7-0.1,9.4-0.3,14.1c-0.2,4.1-0.5,8.2-0.9,12.2c-0.3,3-1.6,4.8-4,5.2c-2.5,0.4-4.8-0.7-5.2-3.2
		c-0.4-2.2-0.4-4.5-0.4-6.7c0-10.6,0-21.2,0-31.8c0-3.3-0.2-6.5-0.3-9.8c0-1,0.1-1.8,1.1-2.3c0.8-0.5,1.4-1.2,2.3-2.1
		c0.3,1.8,0.7,3.5,0.8,5.1c0.2,3.5,0.3,6.9,0.4,10.4c0.1,3.4,0.2,6.8,0.3,10.2c0,4.9,0,9.7,0,14.6c0,3-0.2,5.9-0.2,8.9
		c0,0.5,0.1,1,0.2,1.5C123.4,129.5,123.6,129.5,123.8,129.5z"/>
	<path d="M72.9,67.1c-0.3,1.7-0.5,4.1-1.2,6.3c-1.1,3.4-4.6,5.6-8,5.1c-4-0.6-6.6-3-7.1-6.9c-0.7-5.6-0.2-11,2.1-16.2
		c1.9-4.2,6.7-5.5,9.7-2.5c1.3,1.3,2.1,3,2.8,4.7c0.6,1.2,0.8,2.7,1,4C72.5,63.2,72.6,64.9,72.9,67.1z"/>
	<path d="M80.7,56.1c0-4.4,0.7-8.5,3-12.4C86.2,39.4,92,39,94.6,44c2.7,5.2,3.5,10.8,2.3,16.6c-0.7,3.3-2.8,5.6-6.1,6.3
		c-3.2,0.7-6.1,0-8.2-2.8C80.9,61.7,80.7,58.9,80.7,56.1z"/>
	<path d="M121.4,66.8c-0.6,2.5-1,5.2-2,7.6c-1.4,3.4-4.4,4.3-7.4,4.1c-3.3-0.2-6-2.5-6.7-5.7c-1.4-6.3-0.7-12.4,2.2-18.1
		c0.8-1.7,2.2-2.8,4-3.5c2.7-1,5.1,1,6.3,2.8c2.5,3.9,3,8.3,3.1,12.7C121.1,66.8,121.2,66.8,121.4,66.8z"/>
	<path d="M141,90.8c0.1,2.3-0.4,4.4-2,6.1c-1.7,1.6-3.7,2.6-6.1,1.8c-2.3-0.8-4-2.2-4.5-4.8c-0.8-4.5-0.4-8.8,1.9-12.9
		c0.9-1.6,2.2-2.9,4.1-2.7c2.2,0.2,4.1,1.4,4.8,3.5c1,2.9,1.5,6,2.2,8.9C141.3,90.8,141.1,90.8,141,90.8z"/>
	<path d="M217.8,140c1.1,1.8,2.2,3.6,3.2,5.3c2,3.3,3.5,6.9,3.9,10.7c0.3,2.8-0.7,5.3-3,6.9c-2.3,1.5-4.7,1.2-6.9-0.2
		c-2.5-1.6-3.7-4.2-2.9-7c1.5-5.2,3.4-10.3,5.2-15.4C217.3,140.3,217.5,140.2,217.8,140z"/>
</g>
</svg>
