<?xml version="1.0" encoding="utf-8"?>
<!-- Generator: Adobe Illustrator 23.1.0, SVG Export Plug-In . SVG Version: 6.00 Build 0)  -->
<svg version="1.1" id="Layer_1" xmlns="http://www.w3.org/2000/svg" xmlns:xlink="http://www.w3.org/1999/xlink" x="0px" y="0px"
	 viewBox="0 0 250 250" style="enable-background:new 0 0 250 250;" xml:space="preserve">
<style type="text/css">
	.st0{fill:#B7B7B7;}
</style>
<g>
	<path d="M101.4,212c0-10.4,0.2-20.9,0.2-31.3c0-6.2-0.1-12.3-0.3-18.5c-0.3-8.3-0.5-16.5-1.2-24.7c-0.6-6.7-1.5-13.3-2.8-19.9
		c-1.6-7.8-4.5-15.1-9.8-21.2c-2.7-3.2-4.7-6.4-5.5-10.6c-1.2-6.8-5.4-11.3-11.6-14.2c-6.8-3.2-13.9-3.9-21.2-2.5
		c-4.3,0.9-8.3,2.3-11.9,4.9c-4.9,3.6-6.5,9.1-8,14.6c-0.7,2.5-0.6,5.1-2.6,7.3c-3.5,3.7-5.9,8.1-7.8,12.9
		c-3.7,9.2-5.1,18.9-5.9,28.7c-0.5,6.9-0.7,13.8-0.9,20.8C12,165.6,12,173,12,180.3c0,18,0.1,35.9,0.1,53.9c0,2.4,0.7,3.3,2.6,3.3
		c1.9,0,2.6-1,2.6-3.3c0-11.8-0.1-23.6,0-35.4c0.2-18.1,0.4-36.3,0.8-54.4c0.1-5.2,0.6-10.4,1.2-15.5c0.8-6.9,2.3-13.6,5.2-20
		c0.9-1.9,1.8-3.8,2.7-5.7c0.1,2.3-0.2,4.5-0.3,6.7c-0.3,6.9-0.7,13.7-0.8,20.6c-0.1,4.9,0,9.9,0.4,14.8c0.3,4.2,0.7,8.5,1.7,12.6
		c2.1,8.6,6.9,15,15.7,17.8c7.6,2.4,15.3,2.4,23,0.2c4.4-1.3,8.5-3,11.5-6.7c4.2-5.2,6.1-11.4,6.9-17.8c0.7-5.7,1-11.4,1-17.2
		c0-5.7-0.4-11.5-0.7-17.2c-0.2-5.1-0.5-10.2-0.8-15.3c0.1,0,0.3-0.1,0.4-0.1c1,2,2.2,3.9,3.1,6c3.9,8.7,5.5,18,6.4,27.4
		c0.7,6.6,0.9,13.2,1.1,19.8c0.3,8.8,0.4,17.7,0.4,26.5c0.1,11.3,0.1,22.5,0.1,33.8c0,0.7-0.1,1.5-0.1,2.2c0,5.7,0,11.5,0.2,17.2
		c0,0.7,0.7,1.6,1.3,2c1.9,1.2,3.9-0.2,3.9-2.7C101.6,226.5,101.4,219.2,101.4,212z M37.9,166.4c6.7-5.6,26.2-6.9,36,0.4
		C65,174,46.5,175,37.9,166.4z M81.1,140.3c-0.4,4.7-0.8,9.4-1.5,14c-0.4,2.7-1.7,5.2-2.5,7.9c-14.3-7.3-28.1-7.3-42.6-0.5
		c-0.9-4.4-2.3-8.8-2.6-13.3c-0.5-8.7-0.6-17.4-0.4-26.1c0.2-8.9,0.8-17.7,1.6-26.5c0.4-4.9,1.6-9.8,4.1-14.2
		c2.4-4.2,5.7-6.8,10.7-7.1c6.2-0.4,12.3-1.1,18.4,1.2c4.8,1.8,8.7,4.6,10.2,9.9c0.4,1.5,0.9,3,1.6,4.4c1.8,3.7,0.5,6.4-2.1,9.1
		c-4.7,5.1-9.2,10.4-13.8,15.6c-0.4,0.4-0.8,0.9-1.1,1.4c-1.7,2.6-1.5,2.9,1,4.6c3.2,2.3,6.3,4.7,9.3,7.3c3.2,2.8,6.4,5.7,9.3,8.7
		C81.3,137.5,81.2,139.1,81.1,140.3z M81.2,130.4c-0.3,0.2-0.6,0.4-1,0.7c-4.2-4.7-8.4-9.5-12.6-14.3c3.8-4.3,8-9.2,12.3-14.2
		C81.2,111.8,81.5,121.1,81.2,130.4z"/>
	<path class="st0" d="M81.2,130.4c-0.3,0.2-0.6,0.4-1,0.7c-4.2-4.7-8.4-9.5-12.6-14.3c3.8-4.3,8-9.2,12.3-14.2
		C81.2,111.8,81.5,121.1,81.2,130.4z"/>
	<path d="M235.8,33.3c-1.8-2.2-3.6-4.3-5.4-6.4c-3.5-3.8-7.1-7.6-10.6-11.4c-3.5-3.7-11.6-4.2-15.6-0.5c-1.7,1.5-3.3,3.1-5,4.6
		c-9.6,8.9-19.1,17.9-28.8,26.7c-6.1,5.5-12.4,10.7-18.6,16.1c-2.1,1.8-2.3,3.2-0.4,5.2c3.3,3.6,6.7,7.1,10.3,11
		c-1.2,1.4-2.3,2.8-3.5,4.1c-4.9,4.9-10,9.7-14.9,14.6c-5.7,5.7-12.2,10.4-19,14.5c-5.3,3.2-10.6,6.4-15.8,9.7
		c-2.3,1.4-2.4,2.7-0.5,4.6c1.4,1.4,2.8,2.6,4.3,3.9c4.8,4.5,9.5,9,14.3,13.4c1.1,1.1,2.7,0.9,3.6-0.3c0.9-1.2,1.8-2.5,2.6-3.8
		c4.1-7.2,8.2-14.5,12.3-21.7c1-1.8,1.8-3.9,3.2-5.3c5.4-5.3,11-10.3,16.5-15.5c2.7-2.5,5.4-4.9,8.6-7.7c0.5,0.8,0.8,1.6,1.4,2.1
		c2.9,2.7,5.9,5.4,8.9,8.1c1.8,1.6,2.5,1.5,4.2-0.3c1.6-1.7,3.3-3.5,4.9-5.2c3.2-3.4,6.5-6.7,9.7-10.2c6.8-7.5,13.4-15,20.2-22.5
		c4.2-4.7,8.6-9.4,12.7-14.2C238.4,43.5,239.1,37.4,235.8,33.3z M142.2,111c-4.5,8.2-8.9,16.5-13.4,24.7c-0.2,0.3-0.4,0.7-1.2,1.8
		c-4.2-4.8-8.2-9.4-12.3-14.1c8.5-5.2,17.3-10.7,26.2-16.1C143.2,108.3,143.1,109.4,142.2,111z M231.8,40c-1.4,2.3-2.7,4.8-4.4,6.8
		c-7.3,8.4-14.7,16.7-22.1,25c-6,6.6-12.1,13-18.2,19.4c-0.7,0.8-1.5,1.5-2.3,2.2c-9.2-9.6-18.3-19-27.3-28.3
		c6.8-5.9,13.9-12.1,20.9-18.3c6-5.3,11.9-10.7,17.8-16.2c3.4-3.1,6.7-6.3,10.1-9.5c2.6-2.5,6.6-2.8,9.2-0.3
		c5.4,5.3,10.6,10.8,15.9,16.1C232.3,38,232.4,39,231.8,40z"/>
	<path d="M135.1,180.3c-1.6-9.6-5.5-18.4-10.2-26.9c-0.9-1.6-2-1.7-3.3-0.7c-0.8,0.6-1.4,1.4-1.8,2.3c-2.3,4.9-4.7,9.9-6.7,14.9
		c-1.4,3.5-2.4,7.2-3.6,10.9c0.2,0,0.4,0.1,0.6,0.1c0.1,0.5,0.1,1.1,0.2,1.6c0.7,8,9.8,14.1,17.5,10.6
		C132.4,191,135.9,185.2,135.1,180.3z M128.7,186.1c-1.7,3.1-6.6,3.1-9.5,1c-3.3-2.3-4-7.2-2.5-11c1.8-4.8,3.8-9.5,5.7-14.2
		c0.1-0.2,0.3-0.3,0.7-0.7c2.1,6.1,4.2,11.9,6,17.8C129.9,181.3,130,183.7,128.7,186.1z"/>
	<path d="M56.5,222.7c-4.4-0.5-8.9-0.9-13.4-1.4c-1.8-0.2-2.6-1.4-2.3-3c0.4-1.7,1.4-2.2,3.3-1.9c2.2,0.4,4.5,0.7,6.7,0.9
		c6.7,0.6,13.4-0.2,20-1.1c1.6-0.2,2.6,0.7,2.7,2.3c0.2,1.7-0.9,2.7-2.4,2.9C66.3,221.8,61.5,222.2,56.5,222.7z"/>
</g>
</svg>
