<?xml version="1.0" encoding="utf-8"?>
<!-- Generator: Adobe Illustrator 23.1.0, SVG Export Plug-In . SVG Version: 6.00 Build 0)  -->
<svg version="1.1" id="Layer_1" xmlns="http://www.w3.org/2000/svg" xmlns:xlink="http://www.w3.org/1999/xlink" x="0px" y="0px"
	 viewBox="0 0 250 250" style="enable-background:new 0 0 250 250;" xml:space="preserve">
<g>
	<path d="M224.1,200.4c-0.7-0.5-1.4-0.9-2.2-1.2c-4.4-1.6-8.8-3.1-13.2-4.6c-4.4-1.5-8.8-2.9-12.9-5.1c-4.5-2.3-7.8-5.6-8.6-10.7
		c-0.5-3.2-0.5-6.5-0.8-9.8c0-0.5,0.1-1.1-0.1-1.6c-0.4-1.4,0-2.7,0.9-3.7c6-7,9.8-15,11.4-24c0.2-1.1,0.7-1.8,1.8-2.2
		c2.2-0.9,3.9-2.4,5.2-4.4c2.2-3.5,3.5-7.3,4-11.4c0.5-3.5,0.9-6.9,0-10.4c-0.5-1.9-1.1-3.7-2.8-4.8c-0.8-0.5-0.9-1-0.7-1.8
		c0.6-2.6,1.3-5.3,1.4-8c0.2-4.7,0.3-9.4-0.6-14c-1.6-8.9-5-16.9-11.7-23.1c-4-3.7-8.7-6.2-14.2-6.9c-0.8-0.1-1.6-0.4-2.2-0.8
		c-5.3-3.6-11.2-5.3-17.5-5.5c-2.9-0.1-5.7-0.1-8.6,0.3c-3.3,0.4-6.6,0.9-9.7,1.9c-9.1,3-16.3,8.6-22,16.2c-2.2,3-4,6.3-4.9,10
		c-0.3,1.4,0.3,2.6,1.6,3c1.1,0.3,1.9-0.2,2.4-1.6c0.1-0.4,0.3-0.8,0.4-1.2c4.1-10,11.2-17.1,21.1-21.3c6.1-2.6,12.5-3.5,19.2-3
		c5.1,0.3,9.9,1.5,14.1,4.4c1.5,1,3.1,1.6,5,2c7.5,1.4,13.4,5.4,17.2,12.1c5.7,9.9,7.1,20.6,5.3,31.8c-0.2,1.2-0.6,2.3-0.9,3.6
		c-0.5-2.6-0.7-5-1.4-7.3c-2-6.6-5.4-12.3-11.3-16.1c-5-3.2-7.4-7.9-7.8-13.7c0-0.7-0.4-1.7-0.9-1.9c-0.6-0.2-1.5,0.1-2.3,0.4
		c-0.4,0.1-0.6,0.5-0.9,0.9c-2.1,3-5,4.7-8.4,5.5c-4.2,1-8.5,1.9-12.7,2.8c-5.1,1.1-10,2.8-14.6,5.4c-5.6,3.3-10.4,7.6-14.5,12.7
		c-2.5,3.1-4.7,6.4-6.1,10.1c-0.4,1.1-0.7,2.2-1.1,3.3c-0.2,0-0.3,0-0.5,0.1c-0.5-1.3-1.2-2.5-1.4-3.9c-0.4-2.9-0.5-5.8-0.7-8.8
		c-0.1-1.5-0.7-2.2-2.1-2.2c-1.5,0-2.3,0.7-2.3,2.2c0,3.5-0.2,7.1,0.9,10.5c0.1,0.5,0.1,1.3-0.3,1.7c-2.3,2.1-2.9,5-3.1,7.9
		c-0.3,5.5,0.4,10.9,2.8,16.1c-0.4-0.4-0.7-0.8-1.1-1.1c-4.5-4.8-8.9-9.6-13.4-14.4c-2.8-3.1-5.6-6.1-8.4-9.2
		c-1.6-1.7-3.2-3.4-4.8-5.1c-1.1-1.1-2.5-1.1-3.4-0.3c-0.9,0.9-0.9,2.2,0.2,3.3c1,1,2,2,3,3.1c3.4,3.7,6.8,7.4,10.2,11
		c4,4.3,8,8.5,12,12.8c2.2,2.4,4.5,4.8,6.7,7.2c1.2,1.3,3,1,3.5-0.6c0.1-0.2,0.2-0.5,0.2-0.7c0.8,0.4,1.6,1,2.4,1.2
		c1,0.2,1.3,0.9,1.5,1.7c0.8,3.3,1.5,6.6,2.6,9.8c1.7,5.2,4.4,9.9,7.9,14.1c1.1,1.3,1.6,2.6,1.5,4.3c-0.1,1.3-0.1,2.5-0.2,3.8
		c-0.2,2.5-0.2,5.1-0.6,7.6c-0.6,3.3-2,6.2-4.7,8.4c-3.1,2.6-6.8,4.1-10.5,5.4c-5.7,2-11.5,3.8-17.2,5.8c-1.5,0.5-2.9,1.1-4.2,1.9
		c-0.6,0.3-1,1.3-1,2c-0.1,0.9,0.6,1.6,1.4,1.8c0.6,0.1,1.4,0.1,2-0.2c6-2.1,11.9-4.2,17.8-6.3c4.3-1.5,8.7-3,12.7-5.5
		c4.6-2.9,7.4-6.9,8-12.4c0.3-3,0.5-6,0.7-9c0-0.4,0.1-0.8,0.2-1.3c0.6,0.3,1,0.5,1.4,0.8c2.1,1.3,4.1,2.8,6.3,3.9
		c5.7,3,11.8,4.5,18.3,3.5c4.9-0.7,9.4-2.7,13.6-5.3c1.4-0.9,2.7-1.8,4.3-2.8c0.1,1,0.1,1.7,0.2,2.4c0.2,2.6,0.3,5.2,0.7,7.8
		c0.5,3.6,2.1,6.7,4.7,9.3c3,3,6.6,5,10.6,6.5c5.3,1.9,10.6,3.7,15.9,5.5c2.7,1,5.4,2.1,8.1,3.1c1,0.4,2.1-0.1,2.6-1
		C225.2,202,225.1,201.1,224.1,200.4z M200.2,126.1c0.2-2.6,0.5-5.1,0.7-7.7c0.2-2.1,0.1-4.3,0.6-6.4c0.2-0.9,1.3-1.6,2-2.3
		c0.1-0.1,0.9,0.4,1.1,0.7c0.5,1.2,1,2.5,1.1,3.8c0.2,5.1-0.5,10.1-2.6,14.8c-0.7,1.4-1.5,2.7-3.3,3.6
		C199.8,130.3,200,128.2,200.2,126.1z M116.5,127.5c-0.8-2.7-1.4-5.6-1.9-8.4c-0.4-2.4-0.5-4.8,0.2-7.1c0,0,0-0.1,0-0.1
		c0.4-0.8,0.4-2,1.6-2.1c0.7-0.1,2.3,1.8,2.3,2.7c0.4,4.7,0.8,9.3,1.2,14c0.2,2.1,0.4,4.3,0.6,6.7
		C118.3,131.6,117.2,129.7,116.5,127.5z M173.6,169.4c-4.4,2.5-9.1,4.3-14.3,4.2c-4.2-0.1-8.1-1.4-11.7-3.5
		c-12-6.8-19.2-17.1-21.7-30.5c-0.9-5-1.2-10.2-1.7-15.3c-0.4-4-0.7-8-0.8-12.1c-0.1-4.5,1.4-8.7,3.9-12.4c1.9-2.9,4.2-5.6,6.6-8
		c6.3-6.6,14.1-10.6,23.1-12.4c4.7-1,9.3-2,14-3.2c1.9-0.5,3.6-1.6,5.3-2.5c0.7-0.4,1.1-0.6,1.5,0.5c1.7,4.4,4.3,8.2,8.4,10.8
		c5,3.1,7.8,7.8,9.6,13.2c1,3.2,1.2,6.5,1.4,9.8c-0.4,5.5-0.8,11-1.3,16.5c-0.4,4.6-0.9,9.1-1.5,13.7c-0.7,5.1-2.3,9.9-4.8,14.4
		C185.7,159.5,180.6,165.4,173.6,169.4z"/>
	<path d="M97.6,54.4c-0.6-6-5-8.6-9.7-8.6c-16.6,0-33.2,0-49.8,0c-0.9,0-1.8,0.1-2.6,0.2c-5.1,1.1-9,5.1-9.1,11
		c-0.1,9,0,18.1,0,27.1c0,0.8,0.1,1.6,0.2,2.4c0.9,5.2,4.2,8.6,9.4,9.7c1.5,0.3,3.1,0.3,4.7,0.5c0,0.5,0,0.8-0.1,1.2
		c-0.5,3.3-1,6.7-1.4,10c-0.6,4.8-1.2,9.5-1.9,14.3c-0.9,6.4-1.8,12.7-2.8,19.1c-0.5,3.5,0.6,6.2,3.7,8c0.6,0.4,0.7,0.7,0.6,1.4
		c-0.7,3-1.2,6.1-2,9.1c-2.4,9.5-5.6,18.6-10,27.3c-0.7,1.4-1.3,2.8-1.8,4.2c-0.4,1,0.2,2.2,1.1,2.6c0.9,0.4,2,0.1,2.6-0.9
		c0.4-0.6,0.8-1.2,1.1-1.9c4.4-8.8,8.1-17.9,10.6-27.4c1.1-4.1,1.7-8.2,2.6-12.4c0.1-0.7,0.5-0.9,1.1-0.8c3.9,0.3,7.5-3.1,8.3-7
		c1.2-5.9,2.3-11.9,3.5-17.9c2-9.7,4-19.4,6-29.2h1.1c4,0,8.1,0.1,12.1-0.1c1.7-0.1,3.4-0.5,4.9-1.2c3.2-1.3,4.5-4.2,5.6-7.3
		c3.8-10.6,7.7-21.1,11.5-31.7C97.4,55.8,97.7,55,97.6,54.4z M55.7,105.4c-1.7,8.4-3.5,16.7-5.2,25.1c-0.8,4.1-1.6,8.2-2.5,12.2
		c-0.9,4-6.3,4.2-8.2,2.3c-0.5-0.5-0.8-1.6-0.7-2.4c0.4-3.5,0.9-7,1.4-10.5c0.4-3,0.9-6.1,1.3-9.1c0.5-3.6,1.1-7.3,1.5-10.9
		c0.4-2.6,0.6-5.2,1-7.8c0.3-2.4,0.6-4.7,1-7.1c0-0.3,0.4-0.7,0.7-0.7c3.8,0,7.6,0,11.5,0C56.9,99.7,56.3,102.6,55.7,105.4z
		 M92.6,55.5c-1.8,5.1-3.7,10.1-5.5,15.2c-2,5.5-3.9,11.1-5.9,16.6c-1.2,3.3-3,4.6-6.5,4.6c-12,0-24.1,0-36.1,0
		c-4.2,0-7-2.5-7.5-6.6C31.1,84,31,82.7,31,81.4c0-7.6-0.1-15.2,0-22.9c0.1-3.8,1.9-6.7,5.6-7.7c0.8-0.2,1.7-0.4,2.6-0.4
		c8,0,16.1,0,24.1,0c8.1,0,16.2,0,24.2,0c1.2,0,2.5,0.4,3.6,1C92.8,52.3,93.3,53.6,92.6,55.5z"/>
	<path d="M70.7,107.9c0-1.6,0.7-2.6,1.8-2.8c1.3-0.2,1.8,0,2.4,1.5c3.4,8.2,6.7,16.4,10.1,24.5c2.6,6.2,5.3,12.3,7.9,18.4
		c0.7,1.6,0.6,2.7-0.2,3.6c-0.9,0.9-1.9,0.9-2.7,0c-0.6-0.7-1.2-1.4-1.5-2.3c-2.9-6.8-5.7-13.6-8.5-20.4c-3-7.2-6-14.4-9-21.6
		C70.8,108.6,70.7,108.1,70.7,107.9z"/>
	<path d="M123.9,90.1c-0.9-0.3-1.6-0.5-2.4-0.8c-7.8-3.1-15.6-6.2-23.4-9.2c-0.8-0.3-1.6-0.6-2.3-1c-1.2-0.7-1.6-1.7-1.1-2.8
		c0.4-0.9,1.6-1.5,2.8-1.1c1.2,0.4,2.4,0.8,3.5,1.3c7.7,3,15.3,6,23,9c2,0.8,2.6,2.7,1,4.1C124.8,89.7,124.3,89.9,123.9,90.1z"/>
	<path d="M106.7,102.6c-0.9-0.4-1.8-0.8-2.6-1.3c-4.2-2.8-8.4-5.5-12.5-8.4c-0.7-0.5-1.3-1.1-1.6-1.8c-0.2-0.6,0-1.6,0.4-2.1
		c0.3-0.4,1.4-0.6,1.9-0.4c1.7,0.8,3.4,1.8,5,2.8c3.4,2.2,6.7,4.5,10.1,6.7c1.3,0.9,1.7,2,1.3,3.1
		C108.2,102.2,107.9,102.4,106.7,102.6z"/>
	<path d="M62.9,69.1c0,1.5-1,2.6-2.7,2.6c-6.7,0-13.4,0-20.1,0c-1.5,0-2.5-1.1-2.5-2.4c0-1.5,1-2.4,2.6-2.4c3.4,0,6.7,0,10.1,0
		c0,0,0,0,0,0c3.3,0,6.5,0,9.8,0C61.9,67,62.9,67.7,62.9,69.1z"/>
	<path d="M60.5,61.4c-3.4,0-6.7,0-10.1,0c-3.3,0-6.7,0-10,0c-1.7,0-2.7-1-2.5-2.6c0.1-1.2,1.2-1.9,2.8-2c4.2,0,8.4,0,12.5,0
		c2.3,0,4.7,0,7,0c1.6,0,2.7,0.9,2.7,2.2C63,60.5,62.1,61.4,60.5,61.4z"/>
</g>
</svg>
