<?xml version="1.0" encoding="utf-8"?>
<!-- Generator: Adobe Illustrator 23.1.0, SVG Export Plug-In . SVG Version: 6.00 Build 0)  -->
<svg version="1.1" id="Layer_1" xmlns="http://www.w3.org/2000/svg" xmlns:xlink="http://www.w3.org/1999/xlink" x="0px" y="0px"
	 viewBox="0 0 250 250" style="enable-background:new 0 0 250 250;" xml:space="preserve">
<style type="text/css">
	.st0{fill:#979797;}
</style>
<g>
	<path d="M227,138.8c-2.3-2.2-5.2-3.1-8.4-3.4c0-1.4,0-2.7,0-4.1c0-1.5-0.7-2.2-2.2-2.2c-5.1,0-10.2,0-15.3,0
		c-1.4,0-2.1,0.6-2.1,2.1c0,1.4,0,2.7,0,4.2c-0.5,0.1-0.9,0.3-1.4,0.3c-5.8,1-10.7,6.9-10.6,12.9c0.2,13,0,26,0,39
		c0,5,2.6,7.8,7.6,7.9c9.8,0.1,19.6,0.1,29.4,0c4.6,0,7.3-3,7.3-7.6v-40.2C231.3,144.1,229.6,141.3,227,138.8z M225.6,178.3H193V153
		h32.6V178.3z"/>
	<rect x="193" y="153" class="st0" width="32.6" height="25.3"/>
	<path d="M227.1,86.2c-0.3-4-1.8-7.7-3.5-11.3c-3.5-7.2-8.6-13.2-14.3-18.9c-4.9,4.9-9.5,10-12.9,16c-3,5.4-5.8,10.9-5.1,17.4
		c0.7,6.1,3.4,10.7,8.7,13.8c4.4,2.5,9.1,2.9,14,1.7C223.3,102.6,227.6,94.2,227.1,86.2z M209,98.3c-4.4,1.1-8.7-1.9-9.4-5.5
		c-0.1-0.6-0.2-1.2-0.3-1.5c0-0.6-0.1-0.9,0-1.2c0.1-0.3,0.3-0.8,0.6-0.8c0.3-0.1,0.8,0.1,1.1,0.3c0.3,0.3,0.4,0.8,0.5,1.2
		c0.8,3.6,3.5,5.6,7.2,5.4c0.4,0,1.2,0.5,1.3,1C210.3,97.9,209.7,98.1,209,98.3z"/>
	<path d="M209.1,115.3c3.3,0,6.6,0,9.9,0c1.9,0,3.2,0.9,3.5,2.7c0.3,1.4,0.3,3,0.1,4.4c-0.3,2-1.7,3-3.8,3c-6.6,0-13.2,0-19.9,0
		c-2.2,0-3.5-1.5-3.5-3.7c0-1,0-2,0-3c0-2,1.4-3.4,3.5-3.4C202.3,115.3,205.7,115.3,209.1,115.3z"/>
	<path d="M163.8,191.4c-1.9-2.9-4.2-5.4-6.4-8.1c4.8-0.5,9-2.3,11.2-7.7c-1.9,0-3.5,0.1-5.1,0c-4-0.3-6.7-3.9-6.3-7.9
		c0.4-3.3,1.9-6.1,3.7-8.8c4.8-7.2,6.5-15,3.9-23.5c-1.6-5-3.9-9.6-6.5-14c-3.2-5.6-6.1-11.4-7.3-17.8c-0.9-4.9-1.5-9.9-2.3-14.8
		c-1.3-8.7-3.9-16.9-7.9-24.8c-4-7.8-9.3-14.4-17.4-18.3c-5.6-2.7-11.4-4.4-17.8-3.4c-0.7,0.1-1.5,0.2-2.1-0.1
		c-4.8-2.3-9.8-3.2-15-3.3c-2.9,0-5.9,0.3-8.7,0.9C68.5,42,59.1,47.6,52.2,57c-8.1,11.2-12.6,23.8-14.1,37.6
		c-0.7,6.5-2.1,13-5.1,18.9c-2.3,4.6-4.8,9.1-7.2,13.7c-2.2,4.2-3.9,8.5-4.4,13.2c-0.7,6.7,1.2,12.7,4.8,18.3
		c1.5,2.4,2.8,5.1,3.6,7.9c1.4,5.2-1.8,9-7.2,9.1c-1.3,0-2.5,0-4,0c2.2,5.4,6.9,6.6,11.8,7.7c0.2,0.2,0.3,0.3,0.5,0.5
		c-0.6,0.3-1.2,0.5-1.6,0.9c-6,5.9-9.1,12.9-8.8,21.4c0.1,2.7,1.8,4.5,4.4,4.7c0.5,0,1,0,1.5,0c45.2,0,90.4,0,135.6,0
		c0.4,0,0.9,0,1.3,0c2.2-0.2,3.7-1.6,4-3.8c0.2-1.3,0.1-2.7,0-4C167,199,166.1,194.9,163.8,191.4z M53.5,89.2
		c4.8-7.3,9.4-14.6,14.2-21.8c4.4-6.5,9.8-12,16.9-15.6c4.5-2.3,9.1-2.5,14-1.3c-7.6,2.8-13.9,7.4-19,13.6
		c-4.9,6.1-9.7,12.2-14.6,18.3c-4.2,5.1-8.9,9.6-14.9,12.5c-0.2,0.1-0.4,0.2-0.8,0.1C50.7,93,52.2,91.1,53.5,89.2z M97.5,60.5
		c-8.3,15.3-17.9,29.2-35.1,35.3c1.2-1.3,2.6-2.8,4-4.3c4.4-4.5,8.9-9,13.2-13.6c3.2-3.5,5.9-7.4,9.1-10.9
		C91.1,64.2,94.1,62.2,97.5,60.5z M53.2,166.5C52.9,173.1,49,180,42.7,182c0.9-2.8,2.1-5.8,2.8-8.8c1.4-5.8,0.1-11.3-2.3-16.6
		c-1.9-4.1-3.1-8.3-2.7-12.9c0.2-2,0.5-4,1.2-5.8c1.5-4,3.4-8,5.1-12c0,0,0.1,0.1,0.2,0.1c-0.4,3.2-0.9,6.3-1.1,9.5
		c-0.4,6.1,1.2,11.9,4,17.3C52.1,157.1,53.4,161.6,53.2,166.5z M122.1,181.3c-5.2,3.5-11.1,5.4-17.3,6.4c-8.5,1.3-17,1-25.4-1.5
		c-3.9-1.1-7.9-2.2-11-4.9c-2.1-1.8-3.9-4-6.1-6.3c8.4-2.7,11.5-8.4,11.2-16.6c14.9,9.5,29.6,9.4,44.1-0.8
		c-0.3,8.2,2.9,14,10.9,16.7C126.9,177.2,124.7,179.5,122.1,181.3z M132.2,119c-1,7.4-3.3,14.3-7.2,20.6
		c-5.3,8.7-12.5,15.3-22.6,17.9c-9.4,2.4-18.1,0.8-26-5c-9.2-6.7-14.8-15.9-17.6-26.8c-0.8-3-1.2-6.1-1.5-9.2
		c-0.5-6.4,2.1-11.4,7.5-14.8c4.6-2.9,9.4-5.4,14.2-7.9c6.8-3.5,13.2-7.5,18.2-13.3c3.9-4.5,7-9.5,9-15.6c1.5,6,4.4,10.9,8,15.3
		c3.1,3.9,6.6,7.6,10,11.3c3.5,3.8,6.6,8,7.8,13.2C133,109.5,132.9,114.3,132.2,119z"/>
	<path class="st0" d="M53.2,166.5C52.9,173.1,49,180,42.7,182c0.9-2.8,2.1-5.8,2.8-8.8c1.4-5.8,0.1-11.3-2.3-16.6
		c-1.9-4.1-3.1-8.3-2.7-12.9c0.2-2,0.5-4,1.2-5.8c1.5-4,3.4-8,5.1-12c0,0,0.1,0.1,0.2,0.1c-0.4,3.2-0.9,6.3-1.1,9.5
		c-0.4,6.1,1.2,11.9,4,17.3C52.1,157.1,53.4,161.6,53.2,166.5z"/>
	<path class="st0" d="M97.5,60.5c-8.3,15.3-17.9,29.2-35.1,35.3c1.2-1.3,2.6-2.8,4-4.3c4.4-4.5,8.9-9,13.2-13.6
		c3.2-3.5,5.9-7.4,9.1-10.9C91.1,64.2,94.1,62.2,97.5,60.5z"/>
	<path class="st0" d="M98.6,50.4c-7.6,2.8-13.9,7.4-19,13.6c-4.9,6.1-9.7,12.2-14.6,18.3c-4.2,5.1-8.9,9.6-14.9,12.5
		c-0.2,0.1-0.4,0.2-0.8,0.1c1.4-1.9,2.8-3.8,4.1-5.7c4.8-7.3,9.4-14.6,14.2-21.8c4.4-6.5,9.8-12,16.9-15.6
		C89.1,49.5,93.7,49.2,98.6,50.4z"/>
</g>
</svg>
