<?xml version="1.0" encoding="utf-8"?>
<!-- Generator: Adobe Illustrator 23.1.0, SVG Export Plug-In . SVG Version: 6.00 Build 0)  -->
<svg version="1.1" xmlns="http://www.w3.org/2000/svg" xmlns:xlink="http://www.w3.org/1999/xlink" x="0px" y="0px"
	 viewBox="0 0 250 250" style="enable-background:new 0 0 250 250;" xml:space="preserve">
<style type="text/css">
	.st0{fill:none;}
</style>
<g id="Layer_1">
	<line class="st0" x1="-1055.3" y1="-52.8" x2="-1074.5" y2="-65.9"/>
	<line class="st0" x1="-742.5" y1="-66.4" x2="-760.8" y2="-52.6"/>
</g>
<g id="Layer_2">
	<g>
		<path d="M240.6,154.9c-8.9-15.8-17.8-31.6-26.7-47.4c-2.5-4.4-5-8.7-7.4-13.1c-1.3-2.4-5.1-3.4-7.3-2.6c-1.9,0.7-3.2,2-4.2,3.7
			c-7.1,12.7-14.2,25.3-21.3,38c-3.9,7-7.9,14.1-11.8,21.2c-0.8,1.5-1.5,3.3-1.4,4.9c0.3,4.3,3.4,6.7,7.8,6.7h33.2v0
			c11.2,0,22.4,0,33.6,0c3.3,0,5.8-1.8,6.8-4.9C242.6,159,241.7,156.9,240.6,154.9z M201.3,157.1c-2.4,0.2-4.2-1.6-4.4-4.3
			c-0.1-2.1,1.6-4.2,3.6-4.3c2.4-0.2,4.6,1.6,4.8,4C205.4,154.8,203.6,156.9,201.3,157.1z M205.3,126.1c-0.2,3.1-0.3,6.2-0.5,9.3
			c-0.1,1.9-0.4,3.7-0.8,5.6c-0.4,1.6-1.2,2.1-3,2c-1.8,0-2.6-0.5-3-2.1c-0.4-1.7-0.6-3.4-0.7-5.1c-0.2-4.3-0.3-8.6-0.5-13
			c-0.1-2.4-0.3-4.8-0.5-7.1c-0.2-2.1,0.8-4.5,2.4-5.3c1.9-1,4.7-0.8,6.2,0.5c0.9,0.8,1.3,2,1.3,4.3
			C205.8,118.7,205.5,122.4,205.3,126.1z"/>
		<path d="M91.2,111.8L91.2,111.8z"/>
		<path d="M80.8,52.8c1.8-0.2,3.5-0.3,5.2-0.3V95c-0.6,0.5-1.3,1-1.9,1.5c-5.9,4.6-12.2,8.5-18.7,12.1c-2.8,1.6-5.5,3.4-7.8,5.6
			c-3.5,3.2-3.9,7.5-4.2,11.9c-0.2,3.5,0.5,6.9,1.1,10.3c0.8,4.2,1.7,8.3,3.6,12.2c3.1,6.4,7.5,11.8,13.2,16l-2.4,5.8
			c-0.1,1.2-0.3,2.2-0.4,3.3c-0.7,6.6-3.9,11.6-9.7,14.9c-1.2,0.6-1,1.1-0.5,1.7c-8.1,5.6-15.8,7.6-28.3,7.2
			c0.4-0.3,0.7-0.5,1.1-0.8c-6.4,0.4-12.4,0-15.9-6.1c0.1-0.2,0.1-0.4,0.1-0.6c1.3,0,2.7,0.3,4-0.1c3.6-0.9,5-3.1,4.7-7.2
			c-0.2-2.8-1.6-5.1-3.2-7.4c-2.5-3.5-4.7-7.3-5.7-11.6c-1.2-5.4-0.5-10.6,1.7-15.6c1.8-4.2,4.1-8.1,6.4-11.9
			c4.7-7.8,7.3-16.2,9.2-25c1.9-8.6,4.1-17.1,7.6-25.2c3.2-7.4,7.6-14.1,13.4-19.7C61,58.8,70.2,54.3,80.8,52.8z"/>
		<path d="M91.2,111.8L91.2,111.8z"/>
		<path d="M91.2,111.8L91.2,111.8z"/>
		<line class="st0" x1="91.2" y1="164.1" x2="91.2" y2="164.1"/>
		<path d="M151.4,117.3c1.6-8.5,3.1-17.1,1.6-25.8c-1.9-10.6-7.3-18.1-18-21c-2.4-0.6-3.9-1.6-5.2-3.9c-3.2-5.5-8.7-8.3-14.5-10.3
			c-6.2-2.2-12.5-3.4-18.9-3.7v46.2c4.4-0.3,8.8-0.8,13.1-1.7c6.3-1.2,11.8-4.2,16.6-8.8c0.7,3.3,1.2,6.6,1.9,9.7
			c1.2,5.3,3.7,10.2,6.2,15c2.5,4.8,4,9.7,3.7,15.1c-0.1,1.3-0.1,2.6,0,4c0.1,1.4,0.8,2.4,2.2,2.7c1.4,0.4,2.4-0.3,3-1.7
			c0.4-0.9,0.9-1.7,1.5-2.7l6.3-4.7c-0.6-0.7-0.9-1.2-0.6-2.2C150.7,121.5,151,119.4,151.4,117.3z"/>
	</g>
</g>
</svg>
