<?xml version="1.0" encoding="utf-8"?>
<!-- Generator: Adobe Illustrator 23.1.0, SVG Export Plug-In . SVG Version: 6.00 Build 0)  -->
<svg version="1.1" id="Layer_1" xmlns="http://www.w3.org/2000/svg" xmlns:xlink="http://www.w3.org/1999/xlink" x="0px" y="0px"
	 viewBox="0 0 250 250" style="enable-background:new 0 0 250 250;" xml:space="preserve">
<g>
	<path d="M162.6,179c0.2-0.5,0.2-1.1,0.3-1.6c-0.6,0-1.1-0.2-1.6-0.1c-4.5,0.8-7-1.1-8-5.4c-0.7-3.2,0.3-5.9,1.5-8.7
		c1.3-3.1,2.7-6.1,4-9.1c1.7-4,2.4-8.2,2-12.5c-0.6-6.2-2.9-11.8-5.7-17.3c-2.8-5.7-5.3-11.6-6.6-18c-0.3-1.3-0.5-2.7-0.8-4
		c-0.9-4.5-1.8-9-2.9-13.5c-2.1-8.5-4.6-16.8-9-24.4c-6.7-11.4-16.2-19.1-29-22.6c-1.4-0.4-2.7-0.7-4.1-0.9c-2.5-0.3-5-0.2-7.5,0.4
		c-0.9,0.2-1.3,0.5-1.3,1.4c-0.1,1.5-0.3,3-0.4,4.5c-0.1,3-0.3,6.1-0.3,9.2c0,3.3,0.1,6.6,0.2,9.9c0.1,1.1,0,2.4,0.6,3.1
		c2.8,3.4,5.5,6.9,8.7,10c0.1,0.1,0.3,0.3,0.4,0.4c4.6,4.6,9.6,8.9,14.5,13.3c3,2.7,5.8,5.4,7.4,9.2c0.1,0.3,0.2,0.6,0.3,0.9
		c0.7,2.1,1.1,4.4,1.8,6.5c0.2,0.7,0.9,1.3,1.4,1.9c0.6-0.5,1.3-0.9,1.7-1.5c0.7-1.1,1.4-2.3,2.2-3.7c2,2.5,2.8,5.2,2.5,7.8
		c-0.3,3.2-1.2,6.3-2.1,9.3c-0.7,2.5-2.3,4.3-5,5.1c-0.6,0.1-1.2,1-1.4,1.7c-2.8,9.4-7.9,17.1-15.5,23.2c-7.8,6.3-16.8,8.8-26.7,7.7
		c-8.1-0.9-14.9-4.7-20.8-10.2c-6.3-5.9-10.8-12.8-13-21.2c-0.3-1.2-1.1-1.5-2.2-1.8c-1.4-0.3-2.8-0.9-3.8-1.8
		c-2.5-2.3-3.6-5.5-4.4-8.8c-0.7-2.8-1-5.4,0.4-8c0.7-1.2,1.4-2.4,3-2.4c1.6,0,2.3,1.1,3,2.3c0.5,0.9,1.1,1.6,1.7,2.4
		c0.5-0.9,1.3-1.8,1.6-2.8c1.7-6.3,5.2-11.1,10.6-14.7c5.9-3.9,11.7-8,17.3-12.3c4.1-3.1,7.9-6.6,11-10.8c1.1-1.4,1.3-2.8,1.2-4.5
		c-0.2-1.6-0.3-3.3-0.4-4.9c-0.1-1.4-0.3-2.8-0.4-4.3c-0.4-0.1-0.7-0.1-1-0.1c-8.2-0.3-15,3-21.2,8.1C61.1,70,56.7,75.8,52.7,81.8
		c-1.6,2.4-3.2,4.8-4.8,7.2c-0.1-0.1-0.2-0.2-0.3-0.3c5.8-21.1,17.9-34.9,41.3-35.3c0.5-4.2,0.9-8.2,1.4-12.4
		c-6.1-1.7-12.4-1.9-18.6-0.3c-12.8,3.2-22.6,10.7-29.4,21.9c-6.7,10.8-10.1,22.6-11.6,35.2c-0.5,4.5-1.6,9.1-3.3,13.4
		c-2.3,6-5.5,11.8-8.3,17.6c-1.9,3.9-3.2,8.1-3.5,12.5c-0.5,6.3,1.2,12.1,4,17.7c1.7,3.4,3.4,6.8,3.2,10.7c-0.2,4.5-2.6,9.1-8.8,7.5
		c-0.9-0.2-1.2,0.2-1,1.2c0.4,2.2,1.7,3.8,3.5,4.7c2.3,1.2,4.9,2,7.4,3c-0.2,0.3-0.6,0.8-1,1.3c-4.5,5.6-6.9,11.9-6.4,19.2
		c0.2,2.3,1.2,3.4,3.4,3.7c0.6,0,1.1,0.1,1.7,0.1h133.8c3.7,0,5.2-1.5,5.2-5.2c0-5.9-2.2-11-5.2-15.8c-0.8-1.2-1.7-2.4-2.6-3.7
		C157.3,185,160.6,182.9,162.6,179z M29.3,184.6c1.1-2,1.9-3.8,3-5.5c4.2-6.2,3.9-12.7,1.6-19.4c-1.7-4.8-3.2-9.7-2.4-15
		c0.4,1.2,0.6,2.4,1.2,3.6c1.3,2.6,2.7,5.2,4,7.8c2.1,4.2,3.4,8.6,3.5,13.3C40.3,176.3,36.1,182.1,29.3,184.6z M104,188.2
		c-12.1,2.9-24,2.6-35.7-2c-4.5-1.7-8.9-5.3-10.9-8.6c3-1.6,5.6-3.8,6.6-7.1c0.9-3.1,1.3-6.4,1.9-9.6c14.8,11.1,29.9,12.3,45.3-0.1
		c0.4,7.2,2.2,13.6,9.7,16.7C116.4,183.3,110.6,186.5,104,188.2z M145.5,157.9c-1.7,3.8-3.6,7.5-4.3,11.7c-0.5,3.4-0.3,6.7,0.8,9.9
		c0.1,0.2,0.2,0.5,0.3,0.7c0,0,0,0.1-0.1,0.4c-3.2-2.9-4.8-6.4-5.2-10.5c-0.2-4.8,1.3-9.3,3.1-13.6c2.7-6.3,3.2-12.8,3-19.4
		c-0.1-2.7-0.6-5.4-0.9-8.1c0-0.2,0.1-0.5,0.1-1.1c2.4,3.7,4.3,7.3,5.2,11.3C149,145.6,148.2,151.9,145.5,157.9z"/>
	<g>
		<path d="M173.3,45.1c0,0.7,0.1,1.4,0.3,2.1L173.3,45.1z M187,47.2c0.2-0.7,0.3-1.4,0.3-2.1L187,47.2z M187,47.2
			c0.2-0.7,0.3-1.4,0.3-2.1L187,47.2z M173.3,45.1c0,0.7,0.1,1.4,0.3,2.1L173.3,45.1z M173.3,45.1c0,0.7,0.1,1.4,0.3,2.1L173.3,45.1
			z M187,47.2c0.2-0.7,0.3-1.4,0.3-2.1L187,47.2z M187,47.2c0.2-0.7,0.3-1.4,0.3-2.1L187,47.2z M173.6,47.2l-0.3-2.1
			C173.3,45.8,173.4,46.5,173.6,47.2z M245.9,18.5H114.7c-6.6,0-12,5.4-12,12v6.4c1.7,0.2,3.5,0.5,5.2,1c13.4,3.7,24,11.9,31.3,24.4
			c4.8,8.3,7.4,17.2,9.4,25.5c1.1,4.5,2.1,9.3,3.1,14.4h21.4v30.6c0,3.9,3.2,7.1,7.1,7.1s7.2-3.2,7.2-7.1v-30.6h58.5
			c6.6,0,12-5.4,12-12V30.5C257.9,23.9,252.5,18.5,245.9,18.5z M200.6,87.8H160c-7.6,0-12.4-8.3-8.6-14.9l20.3-35.2
			c3.8-6.6,13.4-6.6,17.2,0l20.3,35.2C213,79.5,208.3,87.8,200.6,87.8z M187.3,45.1l-0.3,2.1C187.2,46.5,187.3,45.8,187.3,45.1z
			 M173.6,47.2l-0.3-2.1C173.3,45.8,173.4,46.5,173.6,47.2z M173.3,45.1c0,0.7,0.1,1.4,0.3,2.1L173.3,45.1z M187,47.2
			c0.2-0.7,0.3-1.4,0.3-2.1L187,47.2z M187,47.2c0.2-0.7,0.3-1.4,0.3-2.1L187,47.2z M173.3,45.1c0,0.7,0.1,1.4,0.3,2.1L173.3,45.1z"
			/>
	</g>
	<g>
		<path d="M187,47.2c0.2-0.7,0.3-1.4,0.3-2.1L187,47.2z M173.3,45.1c0,0.7,0.1,1.4,0.3,2.1L173.3,45.1z"/>
		<path d="M187.3,45.1l-0.3,2.1l0,0l-2.4,16c0,2.4-1.9,4.3-4.3,4.3s-4.3-1.9-4.3-4.3l-2.4-16l0,0l-0.3-2.1c0-3.9,3.2-7,7-7
			S187.3,41.2,187.3,45.1z"/>
		<path d="M184.6,74.8c0,2.4-1.9,4.3-4.3,4.3s-4.3-1.9-4.3-4.3s1.9-4.3,4.3-4.3S184.6,72.4,184.6,74.8z"/>
		<path d="M173.6,47.2c-0.2-0.7-0.3-1.4-0.3-2.1L173.6,47.2z"/>
		<path d="M187.3,45.1c0,0.7-0.1,1.4-0.3,2.1L187.3,45.1z"/>
	</g>
</g>
</svg>
